<svg width="317" height="224" viewBox="0 0 317 224" fill="none" xmlns="http://www.w3.org/2000/svg">
<g clip-path="url(#clip0)">
<path d="M101.004 103.492H58.5259V150.991H101.004V103.492Z" fill="#CCCCCC"/>
<path d="M36.9007 222.431H15.2755L12.9585 203.895H39.2177L36.9007 222.431Z" fill="#E6E6E6"/>
<path d="M80.3256 209.005L79.5959 218.982C79.5628 219.433 79.6267 219.887 79.7833 220.312C79.9399 220.736 80.1855 221.123 80.5036 221.445C80.8218 221.767 81.2052 222.018 81.628 222.18C82.0509 222.341 82.5035 222.411 82.9555 222.384L88.0798 222.073C88.3173 222.059 88.5486 221.992 88.7574 221.878C88.9663 221.764 89.1474 221.606 89.2881 221.414C89.4287 221.222 89.5254 221.002 89.5712 220.768C89.617 220.535 89.6109 220.294 89.5532 220.063L86.7087 208.686L80.3256 209.005Z" fill="#E6E6E6"/>
<path d="M123.188 214.905C129.219 216.315 133.527 218.321 136.357 221.035C137.365 221.994 138.684 222.559 140.073 222.628C141.848 222.721 143.3 222.522 144.39 222.035H144.391C144.67 221.912 144.911 221.716 145.09 221.468C145.268 221.22 145.376 220.929 145.404 220.625C145.437 220.316 145.387 220.004 145.259 219.721C145.131 219.438 144.929 219.195 144.675 219.016L130.372 208.839L124.296 211.269L122.879 212.687C122.725 212.84 122.61 213.027 122.541 213.233C122.472 213.439 122.451 213.658 122.481 213.873C122.511 214.087 122.591 214.293 122.713 214.472C122.836 214.651 122.998 214.799 123.188 214.905H123.188Z" fill="#E6E6E6"/>
<path d="M104.628 52.0144L63.7432 51.6358C63.846 45.6809 65.2315 39.8333 68.26 34.6006C70.2491 31.1639 70.2061 27.4238 69.7267 24.2728C68.987 19.4102 70.7072 14.4351 74.5295 11.3397C77.4506 8.97006 81.1373 7.75026 84.8952 7.91004L85.6891 7.94312C88.275 8.05058 90.7925 8.80597 93.0104 10.1399C95.2283 11.4739 97.0756 13.3436 98.3825 15.5775C99.711 17.9623 100.247 20.7077 99.9123 23.417C99.6531 25.9662 100.273 28.5413 101.724 31.141C104.226 36.8495 104.768 44.1543 104.628 52.0144Z" fill="#2F2E41"/>
<path d="M131.982 209.37L123.958 211.463L84.8841 126.338L87.3262 209.37H79.3022C70.7279 170.306 55.2477 125.222 62.2075 110.988L103.723 108.546L131.982 209.37Z" fill="#6E0B9C"/>
<path d="M84.5352 37.725C90.5082 37.725 95.3502 32.8829 95.3502 26.91C95.3502 20.937 90.5082 16.095 84.5352 16.095C78.5623 16.095 73.7202 20.937 73.7202 26.91C73.7202 32.8829 78.5623 37.725 84.5352 37.725Z" fill="#FFB9B9"/>
<path d="M93.9545 46.7956L76.1621 45.749C77.9058 41.7468 78.6023 37.8929 77.9065 34.2362H91.1636C91.1335 37.0439 92.5307 41.9006 93.9545 46.7956Z" fill="#FFB9B9"/>
<path d="M105.118 111.686L66.0449 114.477L70.0568 45.2258L76.8599 43.3069L84.5349 45.0512L92.2099 41.2135L97.0941 42.9582L105.118 111.686Z" fill="#6E0B9C"/>
<path d="M72.6735 161.574L45.9849 155.469C53.9208 129.153 68.2177 68.9483 63.6029 47.4934L77.5577 41.2137L72.6735 161.574Z" fill="#E6E6E6"/>
<path d="M59.7657 85.5203L49.6484 79.2407L58.2767 53.9702C59.239 51.3626 61.0822 49.1733 63.4877 47.7806L66.3942 46.0979L64.6499 71.5655L59.7657 85.5203Z" fill="#E6E6E6"/>
<path d="M128.318 155.818C119.895 160.691 98.8386 163.408 89.5934 160.004C88.9131 136.227 87.5789 68.9701 91.8611 40.5159L107.211 46.7956L105.816 65.6346C98.4772 81.7504 119.787 137.882 128.318 155.818Z" fill="#E6E6E6"/>
<path d="M127.098 82.3805L117.678 79.2406L105.119 64.9367L107.212 46.7954L128.144 76.1007L127.098 82.3805Z" fill="#E6E6E6"/>
<path d="M97.5768 95.9596C97.7309 96.6359 98.1469 97.2236 98.7337 97.5936C99.3204 97.9637 100.03 98.086 100.707 97.9337L108.703 96.1229L107.547 91.0192L99.5509 92.8296C98.8741 92.983 98.2859 93.3989 97.9157 93.9858C97.5455 94.5728 97.4236 95.2827 97.5768 95.9596V95.9596Z" fill="#FFB9B9"/>
<path d="M93.9547 24.119C87.9477 21.6489 82.0148 21.4701 76.1623 23.7701L73.7202 15.0483H96.048L93.9547 24.119Z" fill="#2F2E41"/>
<path d="M104.77 90.0556L109.305 98.4285C116.934 96.3009 123.545 89.5935 129.889 81.6826L128.144 76.1007L117.329 78.8917L104.77 90.0556Z" fill="#E6E6E6"/>
<path d="M101.455 72.7865H100.06C100.06 53.0494 95.9961 39.2949 92.0359 39.2949L91.687 37.8994C95.2386 37.8994 97.5028 43.6239 98.7769 48.4264C100.504 54.9369 101.455 63.5881 101.455 72.7865Z" fill="#3F3D56"/>
<path d="M69.3594 67.9022H67.9639C67.9639 49.8262 72.0558 38.597 78.0812 38.597L77.7323 39.9925C73.5646 39.9925 69.3594 48.6225 69.3594 67.9022Z" fill="#3F3D56"/>
<path d="M100.757 76.6242C102.684 76.6242 104.246 75.0622 104.246 73.1354C104.246 71.2087 102.684 69.6467 100.757 69.6467C98.8305 69.6467 97.2686 71.2087 97.2686 73.1354C97.2686 75.0622 98.8305 76.6242 100.757 76.6242Z" fill="#3F3D56"/>
<path d="M63.7773 76.2752H62.3818C62.3818 71.2737 65.1989 67.2046 68.6615 67.2046V68.6001C65.9683 68.6001 63.7773 72.0431 63.7773 76.2752Z" fill="#3F3D56"/>
<path d="M74.9413 76.2751H73.5458C73.5458 72.043 71.3548 68.6 68.6616 68.6V67.2045C72.1243 67.2045 74.9413 71.2736 74.9413 76.2751Z" fill="#3F3D56"/>
<path d="M74.2431 78.0195C75.0138 78.0195 75.6386 77.3947 75.6386 76.624C75.6386 75.8533 75.0138 75.2285 74.2431 75.2285C73.4724 75.2285 72.8477 75.8533 72.8477 76.624C72.8477 77.3947 73.4724 78.0195 74.2431 78.0195Z" fill="#3F3D56"/>
<path d="M63.0796 78.0195C63.8503 78.0195 64.475 77.3947 64.475 76.624C64.475 75.8533 63.8503 75.2285 63.0796 75.2285C62.3089 75.2285 61.6841 75.8533 61.6841 76.624C61.6841 77.3947 62.3089 78.0195 63.0796 78.0195Z" fill="#3F3D56"/>
<path d="M45.6362 63.7917L54.3431 65.3464L74.2437 93.6431L63.6713 91.1554L45.6362 63.7917Z" fill="#6E0B9C"/>
<path d="M44.0917 63.4453C43.959 63.4473 43.8293 63.4849 43.7162 63.5542C43.603 63.6235 43.5105 63.7219 43.4484 63.8392C43.3863 63.9564 43.3569 64.0882 43.3631 64.2208C43.3694 64.3533 43.4112 64.4817 43.4841 64.5926L62.0862 92.8166C62.19 92.9744 62.3503 93.0864 62.5342 93.1295L71.1892 95.1659C71.3351 95.2002 71.488 95.1894 71.6277 95.1348C71.7673 95.0802 71.887 94.9845 71.971 94.8603C72.055 94.7361 72.0992 94.5893 72.0978 94.4394C72.0964 94.2895 72.0495 94.1436 71.9632 94.021L51.5393 64.9807C51.4839 64.9015 51.4135 64.8341 51.332 64.7822C51.2505 64.7303 51.1596 64.695 51.0645 64.6783L44.2312 63.4579C44.1852 63.4497 44.1385 63.4454 44.0917 63.4453V63.4453Z" fill="#3F3D56"/>
<path d="M55.6953 83.6252L56.2123 88.8328L64.3706 88.0229C65.0611 87.9544 65.6962 87.6143 66.136 87.0776C66.5759 86.5408 66.7845 85.8513 66.7159 85.1608C66.6474 84.4702 66.3073 83.8351 65.7706 83.3953C65.2338 82.9555 64.5443 82.7469 63.8538 82.8154L55.6953 83.6252Z" fill="#FFB9B9"/>
<path d="M48.6016 83.022C48.6134 84.7976 49.3266 86.4966 50.5856 87.7488C51.8447 89.0009 53.5476 89.7047 55.3233 89.7067H56.6648L57.6414 81.5681L49.5552 78.657L48.6016 83.022Z" fill="#E6E6E6"/>
<path d="M330 0H170.9V83.7978H330V0Z" fill="#E6E6E6"/>
<path d="M175.534 79.1638H325.366V4.63391H175.534V79.1638Z" fill="white"/>
<path d="M240.41 15.4467H187.119V68.7375H240.41V15.4467Z" fill="#3F3D56"/>
<path d="M227.666 39.775C228.519 39.775 229.211 39.0834 229.211 38.2303C229.211 37.3772 228.519 36.6857 227.666 36.6857C226.813 36.6857 226.122 37.3772 226.122 38.2303C226.122 39.0834 226.813 39.775 227.666 39.775Z" fill="#6E0B9C"/>
<path d="M221.874 34.3687C222.727 34.3687 223.418 33.6772 223.418 32.8241C223.418 31.971 222.727 31.2794 221.874 31.2794C221.021 31.2794 220.329 31.971 220.329 32.8241C220.329 33.6772 221.021 34.3687 221.874 34.3687Z" fill="#6E0B9C"/>
<path d="M221.102 38.2303C220.533 38.2305 219.976 38.3883 219.492 38.6864C219.066 38.0454 218.565 37.4574 218 36.9348C218.006 36.8524 218.012 36.7698 218.012 36.6857C218.013 36.0796 217.835 35.4867 217.5 34.981C217.166 34.4754 216.69 34.0794 216.133 33.8423C215.575 33.6052 214.959 33.5376 214.363 33.6479C213.767 33.7582 213.217 34.0416 212.781 34.4626C211.954 34.3452 211.114 34.3379 210.285 34.4408C210.286 34.4166 210.289 34.3931 210.289 34.3687C210.29 33.8516 210.16 33.3426 209.913 32.8884C209.666 32.4342 209.309 32.0493 208.874 31.7689C208.44 31.4886 207.942 31.3218 207.426 31.2838C206.911 31.2459 206.394 31.338 205.923 31.5517C205.452 31.7654 205.042 32.0939 204.731 32.5071C204.42 32.9202 204.218 33.4048 204.143 33.9164C204.068 34.428 204.123 34.9503 204.302 35.4354C204.481 35.9204 204.779 36.3527 205.169 36.6927C204.651 37.1357 204.182 37.6319 203.769 38.1731C203.388 37.8558 202.936 37.635 202.451 37.5293C201.966 37.4237 201.463 37.4364 200.984 37.5662C200.506 37.6961 200.065 37.9394 199.7 38.2755C199.335 38.6116 199.057 39.0306 198.888 39.4971C198.719 39.9636 198.666 40.4639 198.731 40.9556C198.797 41.4474 198.98 41.9161 199.265 42.3221C199.55 42.7282 199.928 43.0597 200.368 43.2885C200.808 43.5173 201.297 43.6367 201.793 43.6367L201.803 43.6362C201.798 43.7646 201.793 43.8932 201.793 44.0228C201.793 44.8001 201.887 45.5746 202.073 46.3294C201.155 46.6749 200.339 47.248 199.703 47.9949C199.067 48.7418 198.632 49.6381 198.437 50.5995C198.242 51.561 198.295 52.5562 198.59 53.4917C198.886 54.4271 199.414 55.2722 200.125 55.9477C200.837 56.6231 201.708 57.1067 202.658 57.3531C203.607 57.5994 204.604 57.6005 205.554 57.3562C206.504 57.1119 207.376 56.6302 208.089 55.9563C208.802 55.2824 209.332 54.4385 209.63 53.5036C211.778 53.9167 214.004 53.5865 215.94 52.5675C216.138 53.033 216.447 53.4429 216.84 53.7611C217.233 54.0793 217.698 54.2962 218.195 54.3926C218.691 54.4891 219.204 54.4622 219.688 54.3143C220.171 54.1664 220.611 53.902 220.969 53.5444C221.327 53.1867 221.591 52.7468 221.739 52.2631C221.887 51.7795 221.914 51.2669 221.817 50.7704C221.721 50.2739 221.504 49.8087 221.186 49.4156C220.867 49.0225 220.458 48.7136 219.992 48.5158C220.661 47.2462 221.037 45.8426 221.092 44.4085L221.102 44.409C221.921 44.409 222.707 44.0835 223.286 43.5042C223.865 42.9248 224.191 42.139 224.191 41.3197C224.191 40.5004 223.865 39.7146 223.286 39.1352C222.707 38.5558 221.921 38.2304 221.102 38.2304V38.2303Z" fill="#6E0B9C"/>
<path d="M220.329 14.2881H204.882V16.6051H220.329V14.2881Z" fill="#E6E6E6"/>
<path d="M308.375 15.4467H255.084V68.7375H308.375V15.4467Z" fill="#3F3D56"/>
<path d="M291.847 51.5917C292.231 51.5917 292.542 51.2805 292.542 50.8966C292.542 50.5127 292.231 50.2015 291.847 50.2015C291.463 50.2015 291.152 50.5127 291.152 50.8966C291.152 51.2805 291.463 51.5917 291.847 51.5917Z" fill="#6E0B9C"/>
<path d="M289.24 49.1589C289.624 49.1589 289.935 48.8477 289.935 48.4638C289.935 48.0799 289.624 47.7687 289.24 47.7687C288.856 47.7687 288.545 48.0799 288.545 48.4638C288.545 48.8477 288.856 49.1589 289.24 49.1589Z" fill="#6E0B9C"/>
<path d="M288.893 50.8965C288.637 50.8966 288.387 50.9676 288.169 51.1017C287.977 50.8133 287.752 50.5487 287.497 50.3135C287.5 50.2765 287.503 50.2393 287.503 50.2014C287.503 49.9287 287.423 49.6619 287.272 49.4343C287.122 49.2068 286.908 49.0286 286.657 48.9219C286.406 48.8152 286.129 48.7848 285.861 48.8344C285.593 48.8841 285.345 49.0116 285.149 49.201C284.776 49.1482 284.399 49.1449 284.026 49.1912C284.026 49.1803 284.027 49.1697 284.027 49.1588C284.028 48.9261 283.969 48.697 283.858 48.4926C283.747 48.2882 283.586 48.115 283.391 47.9889C283.195 47.8627 282.971 47.7877 282.739 47.7706C282.507 47.7535 282.274 47.795 282.063 47.8911C281.851 47.9873 281.666 48.1351 281.526 48.321C281.386 48.507 281.295 48.725 281.262 48.9553C281.228 49.1855 281.252 49.4205 281.333 49.6388C281.414 49.857 281.548 50.0516 281.723 50.2046C281.49 50.4039 281.279 50.6272 281.093 50.8708C280.922 50.728 280.718 50.6286 280.5 50.5811C280.282 50.5335 280.056 50.5392 279.84 50.5977C279.625 50.6561 279.427 50.7656 279.262 50.9168C279.098 51.0681 278.973 51.2566 278.897 51.4666C278.821 51.6765 278.797 51.9016 278.826 52.1229C278.856 52.3442 278.938 52.5551 279.066 52.7378C279.195 52.9205 279.365 53.0697 279.563 53.1727C279.761 53.2756 279.981 53.3294 280.204 53.3294L280.209 53.3291C280.206 53.3869 280.204 53.4448 280.204 53.5031C280.204 53.8529 280.247 54.2014 280.33 54.5411C279.917 54.6966 279.55 54.9544 279.264 55.2906C278.978 55.6267 278.782 56.03 278.694 56.4627C278.606 56.8953 278.63 57.3431 278.763 57.7641C278.896 58.1851 279.134 58.5654 279.454 58.8693C279.774 59.1732 280.166 59.3909 280.593 59.5017C281.021 59.6126 281.469 59.6131 281.897 59.5031C282.324 59.3932 282.717 59.1764 283.037 58.8732C283.358 58.57 283.597 58.1902 283.731 57.7695C284.698 57.9554 285.699 57.8068 286.57 57.3482C286.659 57.5577 286.799 57.7421 286.975 57.8853C287.152 58.0285 287.362 58.1261 287.585 58.1695C287.808 58.2129 288.039 58.2008 288.257 58.1343C288.474 58.0677 288.672 57.9488 288.833 57.7878C288.994 57.6269 289.113 57.4289 289.18 57.2113C289.246 56.9936 289.258 56.763 289.215 56.5396C289.172 56.3161 289.074 56.1068 288.931 55.9299C288.788 55.753 288.603 55.614 288.394 55.525C288.695 54.9536 288.864 54.322 288.889 53.6767L288.893 53.6769C289.262 53.6769 289.615 53.5305 289.876 53.2697C290.137 53.009 290.283 52.6554 290.283 52.2867C290.283 51.918 290.137 51.5644 289.876 51.3037C289.615 51.043 289.262 50.8965 288.893 50.8965V50.8965Z" fill="#6E0B9C"/>
<path d="M297.3 38.4009C297.684 38.4009 297.995 38.0897 297.995 37.7058C297.995 37.3219 297.684 37.0107 297.3 37.0107C296.916 37.0107 296.605 37.3219 296.605 37.7058C296.605 38.0897 296.916 38.4009 297.3 38.4009Z" fill="#6E0B9C"/>
<path d="M298.935 35.2324C299.319 35.2324 299.63 34.9212 299.63 34.5373C299.63 34.1534 299.319 33.8422 298.935 33.8422C298.551 33.8422 298.24 34.1534 298.24 34.5373C298.24 34.9212 298.551 35.2324 298.935 35.2324Z" fill="#6E0B9C"/>
<path d="M296.499 34.8623C296.43 34.6161 296.293 34.394 296.105 34.2208C296.331 33.9579 296.525 33.6692 296.682 33.3607C296.719 33.3535 296.755 33.346 296.791 33.3357C297.054 33.262 297.289 33.1125 297.467 32.9061C297.646 32.6996 297.759 32.4452 297.794 32.1747C297.828 31.9041 297.783 31.6294 297.662 31.3846C297.542 31.1399 297.352 30.9361 297.116 30.7986C297.066 30.4259 296.967 30.0615 296.821 29.7149C296.832 29.7122 296.842 29.7107 296.853 29.7077C297.077 29.6449 297.282 29.5269 297.448 29.3644C297.615 29.202 297.738 29.0003 297.806 28.7779C297.875 28.5555 297.886 28.3195 297.84 28.0915C297.793 27.8635 297.691 27.6508 297.541 27.4729C297.391 27.295 297.198 27.1576 296.981 27.0733C296.764 26.989 296.53 26.9605 296.299 26.9904C296.068 27.0203 295.849 27.1077 295.661 27.2445C295.472 27.3813 295.321 27.5631 295.222 27.7733C294.967 27.6034 294.695 27.4607 294.41 27.3477C294.501 27.1438 294.541 26.921 294.528 26.6982C294.514 26.4754 294.448 26.259 294.333 26.0675C294.218 25.8759 294.059 25.7148 293.869 25.5978C293.679 25.4807 293.463 25.4112 293.241 25.395C293.018 25.3788 292.795 25.4165 292.59 25.5049C292.385 25.5933 292.204 25.7297 292.063 25.9027C291.922 26.0757 291.825 26.2801 291.779 26.4986C291.734 26.7172 291.742 26.9435 291.802 27.1584L291.804 27.1625C291.747 27.176 291.691 27.1897 291.635 27.2055C291.298 27.3003 290.974 27.4354 290.67 27.6079C290.408 27.2523 290.061 26.9691 289.659 26.7847C289.258 26.6004 288.817 26.5209 288.377 26.5539C287.937 26.5869 287.512 26.7311 287.143 26.9732C286.774 27.2152 286.472 27.5471 286.266 27.9376C286.06 28.3282 285.957 28.7646 285.966 29.2059C285.975 29.6473 286.097 30.0791 286.318 30.4608C286.54 30.8425 286.855 31.1617 287.234 31.3883C287.613 31.6149 288.043 31.7415 288.484 31.7562C288.567 32.7374 288.982 33.6611 289.66 34.3756C289.482 34.518 289.342 34.7019 289.252 34.9109C289.162 35.12 289.125 35.348 289.144 35.5748C289.163 35.8016 289.237 36.0204 289.36 36.2118C289.483 36.4033 289.651 36.5616 289.85 36.6729C290.048 36.7842 290.271 36.845 290.499 36.8501C290.726 36.8551 290.952 36.8043 291.155 36.7019C291.358 36.5996 291.533 36.4489 291.665 36.2631C291.796 36.0773 291.88 35.8621 291.909 35.6363C292.54 35.7712 293.194 35.7628 293.822 35.6117L293.823 35.616C293.872 35.7918 293.956 35.9562 294.069 36.0997C294.182 36.2433 294.322 36.3632 294.481 36.4525C294.64 36.5419 294.816 36.599 294.997 36.6206C295.179 36.6421 295.362 36.6278 295.538 36.5782C295.714 36.5287 295.878 36.4451 296.022 36.332C296.165 36.219 296.285 36.0788 296.374 35.9194C296.464 35.76 296.52 35.5846 296.542 35.4033C296.563 35.2219 296.549 35.038 296.499 34.8623V34.8623Z" fill="#6E0B9C"/>
<path d="M270.378 28.9551C270.762 28.9551 271.073 28.6439 271.073 28.26C271.073 27.8761 270.762 27.5649 270.378 27.5649C269.994 27.5649 269.683 27.8761 269.683 28.26C269.683 28.6439 269.994 28.9551 270.378 28.9551Z" fill="#6E0B9C"/>
<path d="M266.824 29.2399C267.208 29.2399 267.519 28.9287 267.519 28.5448C267.519 28.1609 267.208 27.8497 266.824 27.8497C266.44 27.8497 266.129 28.1609 266.129 28.5448C266.129 28.9287 266.44 29.2399 266.824 29.2399Z" fill="#6E0B9C"/>
<path d="M268.386 30.4419C268.214 30.6308 268.097 30.8639 268.05 31.1151C267.707 31.0623 267.36 31.0504 267.015 31.0797C266.989 31.0525 266.964 31.0254 266.936 30.9999C266.734 30.8159 266.483 30.6951 266.214 30.6528C265.944 30.6105 265.669 30.6484 265.42 30.7619C265.172 30.8754 264.963 31.0593 264.819 31.2909C264.675 31.5224 264.602 31.7913 264.61 32.064C264.32 32.3033 264.063 32.5799 263.845 32.8867C263.837 32.8792 263.831 32.871 263.822 32.8637C263.651 32.7066 263.442 32.5951 263.217 32.5394C262.991 32.4837 262.754 32.4856 262.529 32.5449C262.304 32.6043 262.098 32.7192 261.929 32.879C261.76 33.0389 261.633 33.2387 261.562 33.46C261.49 33.6813 261.475 33.9171 261.518 34.1458C261.561 34.3745 261.66 34.5888 261.807 34.7689C261.955 34.9491 262.145 35.0894 262.36 35.177C262.576 35.2647 262.81 35.2968 263.041 35.2704C263.032 35.5767 263.054 35.8832 263.109 36.1847C262.887 36.2152 262.677 36.2984 262.495 36.4275C262.313 36.5565 262.164 36.7275 262.062 36.926C261.96 37.1245 261.907 37.3447 261.908 37.568C261.909 37.7912 261.964 38.0109 262.068 38.2085C262.172 38.4061 262.322 38.5758 262.505 38.7032C262.688 38.8306 262.899 38.912 263.121 38.9405C263.342 38.969 263.567 38.9438 263.777 38.8669C263.986 38.7901 264.174 38.6639 264.325 38.499L264.328 38.4956C264.369 38.5362 264.41 38.5768 264.453 38.6161C264.712 38.8519 264.997 39.0557 265.305 39.2231C265.141 39.633 265.084 40.0779 265.139 40.5158C265.194 40.9538 265.36 41.3706 265.621 41.727C265.881 42.0834 266.228 42.3678 266.628 42.5534C267.029 42.7391 267.47 42.82 267.91 42.7885C268.351 42.757 268.776 42.6141 269.146 42.3733C269.516 42.1325 269.818 41.8016 270.025 41.4117C270.232 41.0219 270.337 40.5858 270.329 40.1444C270.322 39.703 270.202 39.2708 269.982 38.8884C270.771 38.2995 271.336 37.4598 271.585 36.507C271.8 36.5826 272.03 36.6042 272.255 36.5701C272.48 36.536 272.693 36.4472 272.876 36.3115C273.059 36.1758 273.205 35.9973 273.303 35.7917C273.4 35.586 273.446 35.3596 273.436 35.1323C273.425 34.9049 273.359 34.6836 273.243 34.4877C273.127 34.2918 272.965 34.1273 272.771 34.0088C272.577 33.8902 272.356 33.8211 272.129 33.8076C271.902 33.7941 271.675 33.8365 271.468 33.9312C271.249 33.3237 270.897 32.773 270.437 32.3196L270.44 32.3165C270.563 32.1817 270.659 32.024 270.721 31.8522C270.784 31.6804 270.811 31.4981 270.803 31.3155C270.795 31.133 270.751 30.9538 270.674 30.7883C270.596 30.6229 270.487 30.4743 270.352 30.3511C270.217 30.2279 270.059 30.1325 269.887 30.0703C269.715 30.0082 269.533 29.9806 269.35 29.989C269.168 29.9975 268.989 30.0418 268.823 30.1195C268.658 30.1972 268.509 30.3068 268.386 30.4419V30.4419Z" fill="#6E0B9C"/>
<path d="M288.294 14.2881H272.848V16.6051H288.294V14.2881Z" fill="#E6E6E6"/>
<path d="M9.72225 197.038C15.2906 204.495 26.8494 205.28 26.8494 205.28C26.8494 205.28 29.3802 193.974 23.8118 186.517C18.2435 179.06 6.68463 178.275 6.68463 178.275C6.68463 178.275 4.15388 189.581 9.72225 197.038Z" fill="#E6E6E6"/>
<path d="M38.0886 199.841C34.4142 204.762 26.7868 205.28 26.7868 205.28C26.7868 205.28 25.1169 197.82 28.7913 192.899C32.4657 187.978 40.093 187.46 40.093 187.46C40.093 187.46 41.763 194.921 38.0886 199.841Z" fill="#E6E6E6"/>
<path d="M200.635 222.298H0V223.164H200.635V222.298Z" fill="#3F3D56"/>
</g>
<defs>
<clipPath id="clip0">
<rect width="330" height="223.164" fill="white"/>
</clipPath>
</defs>
</svg>
