<svg width="330" height="243" viewBox="0 0 330 243" fill="none" xmlns="http://www.w3.org/2000/svg">
<g clip-path="url(#clip0)">
<path opacity="0.1" d="M191.733 36.4141C170.578 35.6811 150.427 28.8475 131.188 21.3772C111.949 13.907 92.8875 5.62776 72.2406 1.66776C58.9588 -0.878787 43.7701 -1.23215 33.0699 5.88183C22.7698 12.733 19.4435 24.5721 17.6562 35.538C16.31 43.7968 15.5185 52.4761 19.204 60.2179C21.7652 65.5826 26.3122 70.0946 29.4574 75.2344C40.3941 93.1245 32.6698 115.182 20.8073 132.646C15.2586 140.84 8.79589 148.655 4.50589 157.378C0.215886 166.101 -1.76995 176.092 1.9827 184.987C5.70615 193.807 14.5723 200.43 24.1774 205.088C43.6883 214.55 66.6802 217.26 89.0998 218.793C138.731 222.175 188.625 220.715 238.385 219.255C256.801 218.708 275.296 218.157 293.414 215.309C303.471 213.729 313.856 211.221 321.157 205.161C330.429 197.469 332.727 184.444 326.513 174.789C316.093 158.613 287.278 154.595 279.995 137.234C275.985 127.678 280.103 117.033 285.929 108.17C298.428 89.1557 319.379 72.4776 320.482 50.7443C321.242 35.8184 311.169 20.8691 295.598 13.8077C279.273 6.40458 256.641 7.33617 244.597 19.59C232.203 32.2088 210.411 37.0625 191.733 36.4141Z" fill="#8900F2"/>
<path d="M193.963 220.746L137.017 220.016L137.183 218.556L139.937 194.463H189.948L193.628 218.556L193.908 220.381L193.963 220.746Z" fill="#D0D2D5"/>
<path opacity="0.1" d="M193.908 220.381H165.49L137.017 220.016L137.183 218.556H193.628L193.908 220.381Z" fill="black"/>
<path d="M203.09 218.921H127.525V220.746H203.09V218.921Z" fill="#D0D2D5"/>
<path d="M275.185 49.7538C275.188 49.1298 275.068 48.5114 274.832 47.9337C274.596 47.3561 274.248 46.8305 273.809 46.3872C273.37 45.9438 272.848 45.5912 272.273 45.3496C271.698 45.108 271.08 44.9821 270.457 44.979H59.4288C58.8046 44.9817 58.187 45.1073 57.6114 45.3488C57.0357 45.5902 56.5133 45.9427 56.074 46.3861C55.6346 46.8296 55.2869 47.3552 55.0508 47.933C54.8147 48.5109 54.6947 49.1296 54.6978 49.7538V177.665H275.185V49.7538Z" fill="#444053"/>
<path d="M54.6978 176.395V191.377C54.6978 192.631 55.1962 193.835 56.0834 194.722C56.9707 195.609 58.174 196.108 59.4287 196.108H270.456C271.711 196.107 272.913 195.608 273.8 194.721C274.686 193.834 275.185 192.631 275.185 191.377V176.395H54.6978Z" fill="#D0D2D5"/>
<path opacity="0.1" d="M267.153 53.01H63.8237V167.999H267.153V53.01Z" fill="#812CC2"/>
<path d="M166.036 190.421C166.783 190.422 167.52 190.253 168.192 189.927C168.864 189.601 169.453 189.127 169.915 188.541V188.541C170.055 188.362 170.183 188.173 170.297 187.977L167.593 187.533L170.513 187.556C170.795 186.946 170.948 186.284 170.965 185.612C170.981 184.94 170.859 184.272 170.607 183.649L166.685 185.693L170.303 183.036C169.963 182.453 169.507 181.946 168.963 181.546C168.419 181.146 167.798 180.863 167.14 180.713C166.482 180.563 165.8 180.55 165.137 180.675C164.473 180.8 163.842 181.06 163.284 181.438C162.725 181.817 162.25 182.306 161.888 182.876C161.526 183.446 161.285 184.084 161.18 184.751C161.075 185.417 161.108 186.099 161.277 186.752C161.447 187.406 161.748 188.017 162.164 188.549V188.549C162.626 189.134 163.214 189.606 163.885 189.93C164.556 190.254 165.291 190.422 166.036 190.421Z" fill="#812CC2"/>
<path opacity="0.1" d="M170.966 196.108L193.684 218.921L190.2 196.108H170.966Z" fill="black"/>
<path d="M202.497 73.7563H70.5552C70.1358 73.7563 69.7959 74.0963 69.7959 74.5156V153.015C69.7959 153.434 70.1358 153.774 70.5552 153.774H202.497C202.916 153.774 203.256 153.434 203.256 153.015V74.5156C203.256 74.0963 202.916 73.7563 202.497 73.7563Z" fill="white"/>
<path d="M267.212 53.0217H63.9556V59.7385H267.212V53.0217Z" fill="white"/>
<path d="M70.445 54.1899H65.0598C64.934 54.1899 64.832 54.2919 64.832 54.4177V58.0506C64.832 58.1765 64.934 58.2784 65.0598 58.2784H70.445C70.5708 58.2784 70.6727 58.1765 70.6727 58.0506V54.4177C70.6727 54.2919 70.5708 54.1899 70.445 54.1899Z" fill="#812CC2"/>
<path opacity="0.3" d="M195.494 54.1899H134.505C134.412 54.1899 134.336 54.2658 134.336 54.3593V58.1091C134.336 58.2026 134.412 58.2784 134.505 58.2784H195.494C195.588 58.2784 195.663 58.2026 195.663 58.1091V54.3593C195.663 54.2658 195.588 54.1899 195.494 54.1899Z" fill="#812CC2"/>
<path d="M193.844 56.6546H193.695L193.64 56.6079C193.827 56.3855 193.93 56.1044 193.932 55.8135C193.93 55.5747 193.858 55.3417 193.724 55.1439C193.589 54.9462 193.4 54.7926 193.179 54.7025C192.957 54.6125 192.714 54.5899 192.48 54.6378C192.246 54.6857 192.032 54.8018 191.864 54.9715C191.696 55.1412 191.582 55.357 191.536 55.5914C191.49 55.8259 191.515 56.0686 191.607 56.289C191.7 56.5094 191.855 56.6975 192.054 56.8296C192.253 56.9617 192.487 57.0319 192.726 57.0313C193.016 57.0296 193.297 56.9263 193.52 56.7393L193.575 56.786V56.9379L194.51 57.8724L194.802 57.5804L193.844 56.6546ZM192.723 56.6546C192.556 56.6552 192.392 56.6061 192.253 56.5136C192.113 56.4211 192.005 56.2893 191.941 56.135C191.876 55.9806 191.859 55.8107 191.892 55.6467C191.924 55.4827 192.005 55.3321 192.123 55.2138C192.241 55.0956 192.392 55.0152 192.556 54.9827C192.72 54.9502 192.89 54.9672 193.044 55.0315C193.198 55.0957 193.33 55.2043 193.423 55.3436C193.515 55.4828 193.564 55.6464 193.564 55.8135C193.565 55.9242 193.543 56.0339 193.501 56.1363C193.459 56.2387 193.397 56.3317 193.319 56.41C193.241 56.4883 193.148 56.5502 193.045 56.5922C192.943 56.6342 192.833 56.6554 192.723 56.6546V56.6546Z" fill="#444053"/>
<path d="M264.292 58.2784C265.421 58.2784 266.336 57.3632 266.336 56.2342C266.336 55.1052 265.421 54.1899 264.292 54.1899C263.163 54.1899 262.248 55.1052 262.248 56.2342C262.248 57.3632 263.163 58.2784 264.292 58.2784Z" fill="#812CC2"/>
<path d="M231.166 67.0396H213.603C213.211 67.0396 212.894 67.3573 212.894 67.7492V79.1795C212.894 79.5714 213.211 79.8891 213.603 79.8891H231.166C231.558 79.8891 231.876 79.5714 231.876 79.1795V67.7492C231.876 67.3573 231.558 67.0396 231.166 67.0396Z" fill="white"/>
<path d="M261.194 67.0396H237.019C236.921 67.0396 236.841 67.1193 236.841 67.2177V68.9057C236.841 69.0041 236.921 69.0838 237.019 69.0838H261.194C261.292 69.0838 261.372 69.0041 261.372 68.9057V67.2177C261.372 67.1193 261.292 67.0396 261.194 67.0396Z" fill="white"/>
<path d="M261.194 71.4202H237.019C236.921 71.4202 236.841 71.4999 236.841 71.5983V73.2863C236.841 73.3846 236.921 73.4644 237.019 73.4644H261.194C261.292 73.4644 261.372 73.3846 261.372 73.2863V71.5983C261.372 71.4999 261.292 71.4202 261.194 71.4202Z" fill="white"/>
<path d="M261.194 75.8005H237.019C236.921 75.8005 236.841 75.8803 236.841 75.9787V77.6666C236.841 77.765 236.921 77.8448 237.019 77.8448H261.194C261.292 77.8448 261.372 77.765 261.372 77.6666V75.9787C261.372 75.8803 261.292 75.8005 261.194 75.8005Z" fill="white"/>
<path d="M231.166 87.1897H213.603C213.211 87.1897 212.894 87.5074 212.894 87.8993V99.3296C212.894 99.7215 213.211 100.039 213.603 100.039H231.166C231.558 100.039 231.876 99.7215 231.876 99.3296V87.8993C231.876 87.5074 231.558 87.1897 231.166 87.1897Z" fill="white"/>
<path d="M261.194 87.1897H237.019C236.921 87.1897 236.841 87.2695 236.841 87.3678V89.0558C236.841 89.1542 236.921 89.234 237.019 89.234H261.194C261.292 89.234 261.372 89.1542 261.372 89.0558V87.3678C261.372 87.2695 261.292 87.1897 261.194 87.1897Z" fill="white"/>
<path d="M261.194 91.5703H237.019C236.921 91.5703 236.841 91.6501 236.841 91.7485V93.4364C236.841 93.5348 236.921 93.6146 237.019 93.6146H261.194C261.292 93.6146 261.372 93.5348 261.372 93.4364V91.7485C261.372 91.6501 261.292 91.5703 261.194 91.5703Z" fill="white"/>
<path d="M261.179 95.9509H237.034C236.927 95.9509 236.841 96.0372 236.841 96.1437V97.8024C236.841 97.9089 236.927 97.9952 237.034 97.9952H261.179C261.285 97.9952 261.372 97.9089 261.372 97.8024V96.1437C261.372 96.0372 261.285 95.9509 261.179 95.9509Z" fill="white"/>
<path d="M231.166 107.34H213.603C213.211 107.34 212.894 107.658 212.894 108.05V119.48C212.894 119.872 213.211 120.19 213.603 120.19H231.166C231.558 120.19 231.876 119.872 231.876 119.48V108.05C231.876 107.658 231.558 107.34 231.166 107.34Z" fill="white"/>
<path d="M261.179 107.34H237.034C236.927 107.34 236.841 107.427 236.841 107.533V109.192C236.841 109.298 236.927 109.385 237.034 109.385H261.179C261.285 109.385 261.372 109.298 261.372 109.192V107.533C261.372 107.427 261.285 107.34 261.179 107.34Z" fill="white"/>
<path d="M261.179 111.721H237.034C236.927 111.721 236.841 111.807 236.841 111.914V113.572C236.841 113.679 236.927 113.765 237.034 113.765H261.179C261.285 113.765 261.372 113.679 261.372 113.572V111.914C261.372 111.807 261.285 111.721 261.179 111.721Z" fill="white"/>
<path d="M261.179 116.102H237.034C236.927 116.102 236.841 116.188 236.841 116.294V117.953C236.841 118.06 236.927 118.146 237.034 118.146H261.179C261.285 118.146 261.372 118.06 261.372 117.953V116.294C261.372 116.188 261.285 116.102 261.179 116.102Z" fill="white"/>
<path d="M231.166 127.491H213.603C213.211 127.491 212.894 127.809 212.894 128.201V139.631C212.894 140.023 213.211 140.341 213.603 140.341H231.166C231.558 140.341 231.876 140.023 231.876 139.631V128.201C231.876 127.809 231.558 127.491 231.166 127.491Z" fill="white"/>
<path d="M261.179 127.491H237.034C236.927 127.491 236.841 127.577 236.841 127.684V129.342C236.841 129.449 236.927 129.535 237.034 129.535H261.179C261.285 129.535 261.372 129.449 261.372 129.342V127.684C261.372 127.577 261.285 127.491 261.179 127.491Z" fill="white"/>
<path d="M261.179 131.872H237.034C236.927 131.872 236.841 131.958 236.841 132.064V133.723C236.841 133.83 236.927 133.916 237.034 133.916H261.179C261.285 133.916 261.372 133.83 261.372 133.723V132.064C261.372 131.958 261.285 131.872 261.179 131.872Z" fill="white"/>
<path d="M261.179 136.252H237.034C236.927 136.252 236.841 136.338 236.841 136.445V138.103C236.841 138.21 236.927 138.296 237.034 138.296H261.179C261.285 138.296 261.372 138.21 261.372 138.103V136.445C261.372 136.338 261.285 136.252 261.179 136.252Z" fill="white"/>
<path d="M231.166 147.641H213.603C213.211 147.641 212.894 147.959 212.894 148.351V159.781C212.894 160.173 213.211 160.491 213.603 160.491H231.166C231.558 160.491 231.876 160.173 231.876 159.781V148.351C231.876 147.959 231.558 147.641 231.166 147.641Z" fill="white"/>
<path d="M261.179 147.641H237.034C236.927 147.641 236.841 147.727 236.841 147.834V149.493C236.841 149.599 236.927 149.685 237.034 149.685H261.179C261.285 149.685 261.372 149.599 261.372 149.493V147.834C261.372 147.727 261.285 147.641 261.179 147.641Z" fill="white"/>
<path d="M261.179 152.022H237.034C236.927 152.022 236.841 152.108 236.841 152.214V153.873C236.841 153.98 236.927 154.066 237.034 154.066H261.179C261.285 154.066 261.372 153.98 261.372 153.873V152.214C261.372 152.108 261.285 152.022 261.179 152.022Z" fill="white"/>
<path d="M261.179 156.402H237.034C236.927 156.402 236.841 156.488 236.841 156.595V158.254C236.841 158.36 236.927 158.446 237.034 158.446H261.179C261.285 158.446 261.372 158.36 261.372 158.254V156.595C261.372 156.488 261.285 156.402 261.179 156.402Z" fill="white"/>
<path opacity="0.1" d="M119.077 94.9609H89.0474V96.5175H119.077V94.9609Z" fill="#812CC2"/>
<path opacity="0.1" d="M94.608 86.7314H91.7168V94.961H94.608V86.7314Z" fill="#812CC2"/>
<path opacity="0.1" d="M98.833 86.7314H95.9419V94.961H98.833V86.7314Z" fill="#812CC2"/>
<path opacity="0.1" d="M103.059 86.7314H100.168V94.961H103.059V86.7314Z" fill="#812CC2"/>
<path opacity="0.1" d="M107.285 86.7314H104.394V94.961H107.285V86.7314Z" fill="#812CC2"/>
<path opacity="0.1" d="M111.511 86.7314H108.62V94.961H111.511V86.7314Z" fill="#812CC2"/>
<path opacity="0.1" d="M115.74 86.7314H112.849V94.961H115.74V86.7314Z" fill="#812CC2"/>
<path opacity="0.1" d="M94.608 88.2878H91.7168V89.1786H94.608V88.2878Z" fill="#812CC2"/>
<path opacity="0.1" d="M98.833 88.2878H95.9419V89.1786H98.833V88.2878Z" fill="#812CC2"/>
<path opacity="0.1" d="M103.059 88.2878H100.168V89.1786H103.059V88.2878Z" fill="#812CC2"/>
<path opacity="0.1" d="M107.285 88.2878H104.394V89.1786H107.285V88.2878Z" fill="#812CC2"/>
<path opacity="0.1" d="M111.511 88.2878H108.62V89.1786H111.511V88.2878Z" fill="#812CC2"/>
<path opacity="0.1" d="M115.74 88.2878H112.849V89.1786H115.74V88.2878Z" fill="#812CC2"/>
<path opacity="0.1" d="M94.608 92.2917H91.7168V93.1825H94.608V92.2917Z" fill="#812CC2"/>
<path opacity="0.1" d="M98.833 92.2917H95.9419V93.1825H98.833V92.2917Z" fill="#812CC2"/>
<path opacity="0.1" d="M103.059 92.2917H100.168V93.1825H103.059V92.2917Z" fill="#812CC2"/>
<path opacity="0.1" d="M107.285 92.2917H104.394V93.1825H107.285V92.2917Z" fill="#812CC2"/>
<path opacity="0.1" d="M111.511 92.2917H108.62V93.1825H111.511V92.2917Z" fill="#812CC2"/>
<path opacity="0.1" d="M115.74 92.2917H112.849V93.1825H115.74V92.2917Z" fill="#812CC2"/>
<path opacity="0.1" d="M184.917 98.9648H154.887V100.521H184.917V98.9648Z" fill="#812CC2"/>
<path opacity="0.1" d="M160.447 90.7354H157.556V98.9649H160.447V90.7354Z" fill="#812CC2"/>
<path opacity="0.1" d="M164.673 90.7354H161.782V98.9649H164.673V90.7354Z" fill="#812CC2"/>
<path opacity="0.1" d="M168.898 90.7354H166.007V98.9649H168.898V90.7354Z" fill="#812CC2"/>
<path opacity="0.1" d="M173.127 90.7354H170.236V98.9649H173.127V90.7354Z" fill="#812CC2"/>
<path opacity="0.1" d="M177.353 90.7354H174.462V98.9649H177.353V90.7354Z" fill="#812CC2"/>
<path opacity="0.1" d="M181.579 90.7354H178.688V98.9649H181.579V90.7354Z" fill="#812CC2"/>
<path opacity="0.1" d="M160.447 92.2917H157.556V93.1825H160.447V92.2917Z" fill="#812CC2"/>
<path opacity="0.1" d="M164.673 92.2917H161.782V93.1825H164.673V92.2917Z" fill="#812CC2"/>
<path opacity="0.1" d="M168.898 92.2917H166.007V93.1825H168.898V92.2917Z" fill="#812CC2"/>
<path opacity="0.1" d="M173.127 92.2917H170.236V93.1825H173.127V92.2917Z" fill="#812CC2"/>
<path opacity="0.1" d="M177.353 92.2917H174.462V93.1825H177.353V92.2917Z" fill="#812CC2"/>
<path opacity="0.1" d="M181.579 92.2917H178.688V93.1825H181.579V92.2917Z" fill="#812CC2"/>
<path opacity="0.1" d="M160.447 96.2957H157.556V97.1864H160.447V96.2957Z" fill="#812CC2"/>
<path opacity="0.1" d="M164.673 96.2957H161.782V97.1864H164.673V96.2957Z" fill="#812CC2"/>
<path opacity="0.1" d="M168.898 96.2957H166.007V97.1864H168.898V96.2957Z" fill="#812CC2"/>
<path opacity="0.1" d="M173.127 96.2957H170.236V97.1864H173.127V96.2957Z" fill="#812CC2"/>
<path opacity="0.1" d="M177.353 96.2957H174.462V97.1864H177.353V96.2957Z" fill="#812CC2"/>
<path opacity="0.1" d="M181.579 96.2957H178.688V97.1864H181.579V96.2957Z" fill="#812CC2"/>
<path opacity="0.1" d="M184.917 110.307H154.887V111.864H184.917V110.307Z" fill="#812CC2"/>
<path opacity="0.1" d="M160.447 102.078H157.556V110.307H160.447V102.078Z" fill="#812CC2"/>
<path opacity="0.1" d="M164.673 102.078H161.782V110.307H164.673V102.078Z" fill="#812CC2"/>
<path opacity="0.1" d="M168.898 102.078H166.007V110.307H168.898V102.078Z" fill="#812CC2"/>
<path opacity="0.1" d="M173.127 102.078H170.236V110.307H173.127V102.078Z" fill="#812CC2"/>
<path opacity="0.1" d="M177.353 102.078H174.462V110.307H177.353V102.078Z" fill="#812CC2"/>
<path opacity="0.1" d="M181.579 102.078H178.688V110.307H181.579V102.078Z" fill="#812CC2"/>
<path opacity="0.1" d="M160.447 103.634H157.556V104.525H160.447V103.634Z" fill="#812CC2"/>
<path opacity="0.1" d="M164.673 103.634H161.782V104.525H164.673V103.634Z" fill="#812CC2"/>
<path opacity="0.1" d="M168.898 103.634H166.007V104.525H168.898V103.634Z" fill="#812CC2"/>
<path opacity="0.1" d="M173.127 103.634H170.236V104.525H173.127V103.634Z" fill="#812CC2"/>
<path opacity="0.1" d="M177.353 103.634H174.462V104.525H177.353V103.634Z" fill="#812CC2"/>
<path opacity="0.1" d="M181.579 103.634H178.688V104.525H181.579V103.634Z" fill="#812CC2"/>
<path opacity="0.1" d="M160.447 107.638H157.556V108.529H160.447V107.638Z" fill="#812CC2"/>
<path opacity="0.1" d="M164.673 107.638H161.782V108.529H164.673V107.638Z" fill="#812CC2"/>
<path opacity="0.1" d="M168.898 107.638H166.007V108.529H168.898V107.638Z" fill="#812CC2"/>
<path opacity="0.1" d="M173.127 107.638H170.236V108.529H173.127V107.638Z" fill="#812CC2"/>
<path opacity="0.1" d="M177.353 107.638H174.462V108.529H177.353V107.638Z" fill="#812CC2"/>
<path opacity="0.1" d="M181.579 107.638H178.688V108.529H181.579V107.638Z" fill="#812CC2"/>
<path opacity="0.1" d="M107.469 112.562C107.245 112.275 107.04 111.974 106.855 111.66L111.18 110.95L106.508 110.985C106.06 110.009 105.815 108.952 105.789 107.879C105.763 106.806 105.956 105.738 106.356 104.741L112.62 107.989L106.835 103.737C107.373 102.793 108.101 101.97 108.972 101.32C109.844 100.67 110.84 100.208 111.898 99.9615C112.957 99.7152 114.055 99.6904 115.124 99.8887C116.192 100.087 117.209 100.504 118.108 101.114C119.008 101.723 119.772 102.513 120.353 103.432C120.933 104.351 121.317 105.38 121.48 106.454C121.644 107.529 121.584 108.625 121.303 109.676C121.023 110.726 120.529 111.706 119.851 112.556C120.203 113.001 120.505 113.482 120.75 113.993L115.138 116.914L121.121 114.907C121.54 116.148 121.643 117.473 121.421 118.764C121.199 120.054 120.66 121.269 119.851 122.299C120.768 123.461 121.339 124.858 121.499 126.33C121.659 127.802 121.401 129.29 120.755 130.622C120.109 131.954 119.101 133.078 117.846 133.864C116.591 134.65 115.14 135.066 113.66 135.066C112.179 135.066 110.729 134.65 109.474 133.864C108.219 133.078 107.211 131.954 106.565 130.622C105.919 129.29 105.661 127.802 105.821 126.33C105.981 124.858 106.552 123.461 107.469 122.299C106.377 120.909 105.783 119.193 105.783 117.426C105.783 115.659 106.377 113.943 107.469 112.553V112.562Z" fill="#812CC2"/>
<path opacity="0.1" d="M121.539 117.433C121.539 119.199 120.945 120.913 119.851 122.299C120.768 123.461 121.339 124.858 121.499 126.33C121.659 127.802 121.401 129.29 120.755 130.622C120.109 131.954 119.101 133.078 117.846 133.864C116.591 134.65 115.14 135.066 113.66 135.066C112.179 135.066 110.729 134.65 109.474 133.864C108.219 133.078 107.211 131.954 106.565 130.622C105.919 129.29 105.661 127.802 105.821 126.33C105.981 124.858 106.552 123.461 107.469 122.299C106.409 120.964 121.539 116.548 121.539 117.433Z" fill="#812CC2"/>
<path opacity="0.2" d="M114.921 137.157C114.935 137.178 114.948 137.2 114.959 137.222H112.284C112.299 137.201 112.308 137.178 112.322 137.157C112.092 136.757 111.973 136.302 111.978 135.84C111.976 135.524 112.031 135.209 112.138 134.912V134.912C112.287 134.935 112.471 134.961 112.684 134.985C113.305 135.047 113.93 135.047 114.551 134.985C114.73 134.967 114.914 134.944 115.102 134.915C115.101 134.919 115.101 134.924 115.102 134.929C115.209 135.222 115.262 135.532 115.26 135.843C115.266 136.304 115.149 136.757 114.921 137.157Z" fill="#3F3D56"/>
<path opacity="0.1" d="M105.308 137.221H90.414C90.3818 137.137 90.3526 137.046 90.3263 136.959C89.8016 135.271 89.8623 133.456 90.4986 131.807C89.0447 130.802 87.9706 129.337 87.449 127.648C86.9273 125.959 86.9883 124.144 87.6221 122.494C87.3228 122.288 87.0388 122.061 86.7723 121.814L90.6914 119.86L86.2349 121.273C85.5184 120.474 84.9726 119.536 84.6311 118.518C84.2896 117.501 84.1596 116.424 84.2491 115.354L91.2024 116.61L84.4214 114.253C84.6553 113.19 85.1066 112.187 85.747 111.308C86.3873 110.428 87.2028 109.69 88.1421 109.141C89.0814 108.592 90.1243 108.243 91.205 108.116C92.2857 107.99 93.3809 108.088 94.4217 108.406C95.4624 108.723 96.4263 109.252 97.2525 109.96C98.0788 110.668 98.7495 111.54 99.2226 112.52C99.6957 113.5 99.9609 114.567 100.001 115.654C100.042 116.741 99.8571 117.825 99.4583 118.838C99.9286 119.165 100.362 119.542 100.752 119.962L96.2488 124.404L101.374 120.718C102.142 121.781 102.633 123.019 102.802 124.319C102.972 125.619 102.814 126.941 102.344 128.165C103.758 129.145 104.813 130.56 105.348 132.195C105.884 133.83 105.869 135.595 105.308 137.221V137.221Z" fill="#812CC2"/>
<path opacity="0.1" d="M105.308 137.222H90.4139C90.3818 137.137 90.3526 137.046 90.3263 136.959C89.8015 135.271 89.8623 133.456 90.4986 131.807C89.0968 130.838 102.247 122.15 102.507 122.997C103.032 124.685 102.971 126.501 102.335 128.151C103.754 129.13 104.813 130.547 105.35 132.185C105.887 133.823 105.872 135.592 105.308 137.222V137.222Z" fill="#812CC2"/>
<path opacity="0.1" d="M172.695 126.551C171.79 128.069 170.4 129.238 168.749 129.868C168.82 130.43 168.831 130.998 168.782 131.562L162.471 131.182L168.636 132.52C168.454 133.36 168.136 134.165 167.695 134.903C167.158 135.806 166.442 136.591 165.593 137.21H157.001V137.435H148.24C148.257 137.359 148.275 137.286 148.295 137.21C148.615 136.002 149.217 134.887 150.052 133.957C150.888 133.027 151.932 132.31 153.099 131.863C152.875 130.11 153.246 128.332 154.154 126.815C155.061 125.299 156.451 124.131 158.102 123.499C158.056 123.138 158.034 122.774 158.038 122.41L162.111 124.019L158.081 121.65C158.2 120.583 158.536 119.551 159.068 118.618C159.599 117.685 160.316 116.87 161.174 116.224L164.886 122.234L162.103 115.617C163.619 114.778 165.369 114.462 167.082 114.717C168.796 114.973 170.378 115.785 171.584 117.03C172.789 118.274 173.551 119.881 173.752 121.602C173.953 123.323 173.581 125.062 172.695 126.551V126.551Z" fill="#812CC2"/>
<path opacity="0.1" d="M167.695 134.914C167.158 135.818 166.442 136.603 165.593 137.221H157.001V137.446H148.24C148.257 137.37 148.275 137.297 148.295 137.221C148.615 136.013 149.217 134.898 150.052 133.969C150.888 133.039 151.932 132.321 153.099 131.874C153.026 131.29 154.723 131.378 156.986 131.757C161.422 132.502 167.996 134.412 167.695 134.914Z" fill="#812CC2"/>
<path d="M130.455 113.885C130.455 113.885 131.535 119.726 129.123 121.633C126.711 123.539 131.167 134.97 138.521 133.635C145.874 132.301 148.87 122.713 148.87 122.713C148.87 122.713 141.505 121.189 144.236 113.441L130.455 113.885Z" fill="#EE8E9E"/>
<path opacity="0.1" d="M130.455 113.885C130.455 113.885 131.535 119.726 129.123 121.633C126.711 123.539 131.167 134.97 138.521 133.635C145.874 132.301 148.87 122.713 148.87 122.713C148.87 122.713 141.505 121.189 144.236 113.441L130.455 113.885Z" fill="black"/>
<path d="M136.964 118.172C143.698 118.172 149.157 112.713 149.157 105.98C149.157 99.2459 143.698 93.7871 136.964 93.7871C130.231 93.7871 124.772 99.2459 124.772 105.98C124.772 112.713 130.231 118.172 136.964 118.172Z" fill="#EE8E9E"/>
<path d="M157.001 129.158V137.446H116.741V129.535C116.741 128.532 117.036 127.551 117.59 126.715C118.145 125.879 118.933 125.224 119.857 124.833L121.01 124.343C123.931 123.099 127.479 121.554 128.638 120.911C128.765 120.848 128.885 120.77 128.995 120.681C129.628 120.047 129.503 120.87 129.503 120.87C129.503 120.87 129.485 121.028 129.473 121.3C129.403 123.166 129.672 130.499 138.267 129.888C146.651 129.304 147.028 123.633 146.943 121.966C146.938 121.811 146.926 121.657 146.905 121.504C147.485 121.642 148.052 121.828 148.602 122.059C150.354 122.707 152.941 123.747 153.634 124.238C153.85 124.389 154.112 124.547 154.399 124.708C154.723 124.889 155.027 125.105 155.304 125.353C155.838 125.833 156.265 126.42 156.557 127.075C156.85 127.731 157.001 128.441 157.001 129.158Z" fill="#812CC2"/>
<path opacity="0.1" d="M148.602 122.059C147.893 125.347 145.664 131.506 137.633 131.667C129.077 131.836 128.58 123.326 128.636 120.911C128.765 120.85 128.885 120.772 128.995 120.681C129.632 120.047 129.503 120.87 129.503 120.87C129.503 120.87 128.426 130.586 138.264 129.888C148.103 129.19 146.894 121.507 146.894 121.507C146.894 121.46 147.627 121.714 148.602 122.059Z" fill="black"/>
<path d="M122.532 106.59C122.937 106.489 123.363 106.511 123.755 106.654C124.147 106.797 124.487 107.055 124.731 107.393C125.175 108.015 125.242 108.765 125.298 109.484C125.826 109.595 126.124 108.996 126.174 108.543C126.369 106.701 126.384 104.823 127.003 103.041C127.622 101.26 128.974 99.5371 131.051 98.8566C131.76 98.6108 132.518 98.5387 133.261 98.6464C133.702 98.7194 134.117 98.8742 134.555 98.9384C136.074 99.1896 137.724 98.4711 139.146 98.9705C140.039 99.2859 140.606 100.013 141.024 100.74C141.205 101.132 141.452 101.491 141.754 101.8C142.358 102.344 143.304 102.484 144.172 102.653C145.039 102.822 145.985 103.117 146.356 103.786C146.689 104.391 146.444 105.089 146.333 105.743C146.161 106.779 146.335 107.843 146.826 108.771C146.987 109.063 147.314 109.417 147.703 109.32C147.876 109.261 148.024 109.142 148.117 108.984C149.113 107.588 149.087 105.772 150.337 104.513C150.754 104.093 151.295 103.766 151.7 103.345C152.008 103.034 152.233 102.651 152.356 102.231C152.48 101.811 152.497 101.367 152.407 100.939C152.182 99.9751 151.411 99.1866 150.789 98.3397C149.981 97.2668 149.393 96.0452 149.058 94.7448C148.999 94.5935 148.999 94.4259 149.058 94.2746C149.176 94.1212 149.327 93.9973 149.501 93.9125C149.84 93.6855 150.084 93.343 150.188 92.949C150.293 92.555 150.25 92.1366 150.068 91.7719C149.715 91.0505 148.938 90.5015 148.062 90.1744C147.173 89.8825 146.256 89.6867 145.325 89.5904C144.712 89.678 143.994 89.3304 143.804 88.8398C143.719 88.6208 143.719 88.3842 143.634 88.1652C143.52 87.9453 143.353 87.7561 143.15 87.6138C142.947 87.4715 142.712 87.3802 142.466 87.3475C141.944 87.263 141.409 87.301 140.904 87.4585C140.32 87.622 139.657 87.8673 139.152 87.5811C138.886 87.4322 138.74 87.1606 138.454 87.038C137.87 86.7927 137.268 87.2891 136.85 87.698C136.448 88.1269 135.954 88.4594 135.405 88.6704C135.115 88.7809 134.805 88.8273 134.495 88.8067C134.186 88.786 133.884 88.6987 133.612 88.5507C133.212 88.2966 133.01 87.8878 132.692 87.5636C132.091 87.0275 131.321 86.7176 130.516 86.6875C129.688 86.6436 128.859 86.7343 128.06 86.9562C126.536 87.3277 125.08 87.9389 123.747 88.7668C123.076 89.1353 122.507 89.664 122.091 90.3058C121.845 90.798 121.717 91.3412 121.72 91.8916C121.656 93.6175 122.228 95.434 123.721 96.643C122.809 97.0226 122.503 97.9542 122.29 98.7807C121.948 100.101 121.606 101.441 121.735 102.785C121.799 103.48 121.989 104.175 121.887 104.867C121.805 105.193 121.76 105.527 121.752 105.863C121.795 106.048 121.892 106.216 122.031 106.345C122.17 106.475 122.344 106.56 122.532 106.59V106.59Z" fill="#454B69"/>
<g opacity="0.1">
<path opacity="0.1" d="M152.218 100.396C152.087 100.682 151.91 100.945 151.693 101.173C151.287 101.599 150.747 101.929 150.329 102.341C149.079 103.591 149.105 105.419 148.11 106.815C148.017 106.973 147.869 107.091 147.695 107.148C147.315 107.247 146.988 106.903 146.819 106.599C146.626 106.229 146.48 105.837 146.384 105.431C146.363 105.533 146.343 105.635 146.325 105.723C146.154 106.759 146.327 107.823 146.819 108.751C146.979 109.043 147.306 109.397 147.695 109.3C147.869 109.241 148.016 109.122 148.11 108.964C149.105 107.568 149.079 105.752 150.329 104.493C150.747 104.073 151.287 103.746 151.693 103.325C152 103.013 152.225 102.631 152.349 102.211C152.472 101.791 152.489 101.347 152.4 100.919C152.355 100.74 152.294 100.565 152.218 100.396V100.396Z" fill="black"/>
<path opacity="0.1" d="M149.496 91.7517C149.322 91.8355 149.17 91.9597 149.053 92.1138C148.994 92.2641 148.994 92.4308 149.053 92.581C149.168 93.0348 149.315 93.4798 149.494 93.9127V93.9127C149.832 93.6858 150.076 93.3433 150.181 92.9493C150.285 92.5553 150.242 92.1368 150.06 91.7721C150.003 91.6518 149.935 91.5374 149.856 91.4304C149.752 91.5542 149.631 91.6624 149.496 91.7517Z" fill="black"/>
<path opacity="0.1" d="M123.738 94.4589C122.703 93.6064 122.022 92.4004 121.825 91.0742C121.773 91.3359 121.743 91.6017 121.737 91.8686C121.67 93.1437 122.007 94.4077 122.698 95.481C122.907 95.0241 123.277 94.6603 123.738 94.4589V94.4589Z" fill="black"/>
<path opacity="0.1" d="M146.334 103.591C146.445 102.934 146.69 102.236 146.357 101.634C145.986 100.963 145.04 100.671 144.173 100.501C143.305 100.332 142.359 100.189 141.755 99.6484C141.453 99.3389 141.206 98.9804 141.024 98.5883C140.613 97.8611 140.04 97.1281 139.147 96.8186C137.724 96.3192 136.074 97.0347 134.556 96.7865C134.118 96.7134 133.703 96.5616 133.262 96.4944C132.519 96.3858 131.761 96.4579 131.051 96.7047C128.975 97.388 127.623 99.111 127.004 100.89C126.385 102.668 126.37 104.546 126.174 106.391C126.125 106.841 125.827 107.443 125.298 107.332C125.243 106.611 125.176 105.872 124.732 105.238C124.487 104.9 124.147 104.643 123.755 104.501C123.363 104.358 122.937 104.336 122.533 104.438C122.287 104.383 122.069 104.243 121.917 104.044C121.949 104.311 121.949 104.582 121.917 104.85C121.835 105.175 121.79 105.509 121.782 105.845C121.82 106.032 121.913 106.204 122.048 106.337C122.184 106.471 122.357 106.561 122.544 106.596C122.949 106.495 123.375 106.517 123.767 106.66C124.159 106.803 124.499 107.061 124.743 107.399C125.187 108.021 125.255 108.772 125.31 109.49C125.839 109.601 126.136 109.002 126.186 108.55C126.382 106.707 126.396 104.829 127.015 103.048C127.635 101.266 128.987 99.5433 131.063 98.8628C131.773 98.617 132.531 98.5449 133.274 98.6525C133.715 98.7256 134.129 98.8803 134.568 98.9446C136.086 99.1957 137.736 98.4773 139.158 98.9767C140.052 99.2921 140.619 100.019 141.036 100.746C141.218 101.139 141.465 101.497 141.766 101.807C142.371 102.35 143.317 102.49 144.184 102.659C145.052 102.829 145.936 103.103 146.325 103.722C146.31 103.678 146.325 103.635 146.334 103.591Z" fill="black"/>
<path opacity="0.1" d="M121.905 102.683C121.953 102.139 121.92 101.59 121.809 101.056C121.723 101.62 121.704 102.193 121.753 102.761C121.753 102.907 121.785 103.053 121.806 103.197C121.838 103.024 121.882 102.855 121.905 102.683Z" fill="black"/>
</g>
<path d="M107.612 149.23V143.959C107.612 143.919 107.628 143.881 107.655 143.854C107.683 143.826 107.721 143.81 107.761 143.81H108.359C108.399 143.81 108.437 143.826 108.465 143.854C108.493 143.881 108.508 143.919 108.508 143.959V146.152L110.938 143.9C110.995 143.853 111.065 143.822 111.138 143.812C111.212 143.802 111.287 143.813 111.355 143.843C111.423 143.874 111.481 143.922 111.522 143.984C111.564 144.046 111.587 144.118 111.589 144.192V148.967C111.587 149.042 111.564 149.114 111.522 149.176C111.481 149.237 111.423 149.286 111.355 149.317C111.287 149.347 111.212 149.358 111.138 149.348C111.065 149.338 110.995 149.307 110.938 149.259L108.508 147.022V149.204C108.508 149.243 108.493 149.281 108.465 149.309C108.437 149.337 108.399 149.353 108.359 149.353H107.761C107.725 149.353 107.691 149.341 107.664 149.319C107.636 149.296 107.618 149.265 107.612 149.23Z" fill="#444053"/>
<path d="M166.319 143.959V149.23C166.319 149.25 166.315 149.269 166.308 149.288C166.3 149.306 166.289 149.323 166.275 149.336C166.261 149.35 166.244 149.361 166.225 149.368C166.207 149.376 166.187 149.379 166.167 149.379H165.583C165.544 149.379 165.506 149.363 165.478 149.335C165.45 149.307 165.434 149.27 165.434 149.23V147.037L163.005 149.286C162.947 149.333 162.878 149.363 162.804 149.373C162.73 149.383 162.655 149.372 162.587 149.342C162.519 149.312 162.461 149.263 162.419 149.201C162.377 149.14 162.354 149.068 162.351 148.993V144.201C162.354 144.127 162.377 144.055 162.419 143.993C162.461 143.932 162.519 143.883 162.587 143.853C162.655 143.822 162.73 143.811 162.804 143.821C162.878 143.831 162.947 143.862 163.005 143.909L165.434 146.146V143.968C165.434 143.928 165.45 143.89 165.478 143.862C165.506 143.834 165.544 143.819 165.583 143.819H166.167C166.206 143.818 166.243 143.832 166.272 143.858C166.3 143.884 166.317 143.92 166.319 143.959V143.959Z" fill="#444053"/>
<path d="M135.974 149.458H134.786C134.631 149.458 134.482 149.396 134.373 149.287C134.263 149.177 134.202 149.029 134.202 148.874V144.511C134.202 144.356 134.263 144.207 134.373 144.098C134.482 143.988 134.631 143.927 134.786 143.927H135.974C136.129 143.927 136.278 143.988 136.387 144.098C136.497 144.207 136.558 144.356 136.558 144.511V148.874C136.558 149.029 136.497 149.177 136.387 149.287C136.278 149.396 136.129 149.458 135.974 149.458ZM139.742 148.874V144.511C139.742 144.356 139.68 144.207 139.57 144.098C139.461 143.988 139.312 143.927 139.157 143.927H137.957C137.802 143.927 137.654 143.988 137.544 144.098C137.435 144.207 137.373 144.356 137.373 144.511V148.874C137.373 149.029 137.435 149.177 137.544 149.287C137.654 149.396 137.802 149.458 137.957 149.458H139.146C139.223 149.459 139.301 149.445 139.373 149.417C139.445 149.388 139.511 149.345 139.566 149.291C139.622 149.236 139.666 149.171 139.696 149.1C139.726 149.028 139.742 148.951 139.742 148.874V148.874Z" fill="#444053"/>
<path opacity="0.6" d="M172.009 136.854H101.92V137.633H172.009V136.854Z" fill="#444053"/>
<path d="M123.562 139.09C124.583 139.09 125.411 138.263 125.411 137.242C125.411 136.221 124.583 135.393 123.562 135.393C122.542 135.393 121.714 136.221 121.714 137.242C121.714 138.263 122.542 139.09 123.562 139.09Z" fill="#444053"/>
<path d="M123.563 136.854H101.92V137.633H123.563V136.854Z" fill="#444053"/>
<path d="M279.502 224.861C289.093 224.861 296.869 223.365 296.869 221.52C296.869 219.675 289.093 218.179 279.502 218.179C269.91 218.179 262.134 219.675 262.134 221.52C262.134 223.365 269.91 224.861 279.502 224.861Z" fill="#812CC2"/>
<path d="M279.212 222.747C280.328 222.747 281.233 221.562 281.233 220.101C281.233 218.64 280.328 217.455 279.212 217.455C278.096 217.455 277.191 218.64 277.191 220.101C277.191 221.562 278.096 222.747 279.212 222.747Z" fill="#3F3D56"/>
<path d="M279.212 219.511C280.328 219.511 281.233 218.327 281.233 216.865C281.233 215.404 280.328 214.219 279.212 214.219C278.096 214.219 277.191 215.404 277.191 216.865C277.191 218.327 278.096 219.511 279.212 219.511Z" fill="#3F3D56"/>
<path d="M279.212 216.279C280.328 216.279 281.233 215.094 281.233 213.633C281.233 212.171 280.328 210.987 279.212 210.987C278.096 210.987 277.191 212.171 277.191 213.633C277.191 215.094 278.096 216.279 279.212 216.279Z" fill="#3F3D56"/>
<path d="M279.212 213.043C280.328 213.043 281.233 211.858 281.233 210.397C281.233 208.936 280.328 207.751 279.212 207.751C278.096 207.751 277.191 208.936 277.191 210.397C277.191 211.858 278.096 213.043 279.212 213.043Z" fill="#3F3D56"/>
<path d="M279.212 209.807C280.328 209.807 281.233 208.622 281.233 207.161C281.233 205.7 280.328 204.515 279.212 204.515C278.096 204.515 277.191 205.7 277.191 207.161C277.191 208.622 278.096 209.807 279.212 209.807Z" fill="#3F3D56"/>
<path d="M279.212 206.571C280.328 206.571 281.233 205.386 281.233 203.925C281.233 202.464 280.328 201.279 279.212 201.279C278.096 201.279 277.191 202.464 277.191 203.925C277.191 205.386 278.096 206.571 279.212 206.571Z" fill="#3F3D56"/>
<path d="M279.212 203.336C280.328 203.336 281.233 202.151 281.233 200.69C281.233 199.229 280.328 198.044 279.212 198.044C278.096 198.044 277.191 199.229 277.191 200.69C277.191 202.151 278.096 203.336 279.212 203.336Z" fill="#3F3D56"/>
<path d="M286.779 178.553C287.054 178.201 287.306 177.83 287.532 177.443L282.217 176.567L287.964 176.611C288.515 175.411 288.815 174.112 288.846 172.793C288.878 171.473 288.641 170.161 288.148 168.936L280.444 172.937L287.553 167.713C286.887 166.561 285.991 165.56 284.921 164.77C283.85 163.98 282.629 163.418 281.333 163.121C280.036 162.824 278.692 162.797 277.385 163.041C276.077 163.286 274.834 163.797 273.733 164.544C272.632 165.29 271.697 166.255 270.985 167.378C270.273 168.502 269.8 169.76 269.596 171.074C269.391 172.389 269.46 173.731 269.797 175.018C270.134 176.304 270.732 177.508 271.555 178.553C271.127 179.097 270.757 179.684 270.451 180.305L277.349 183.889L269.995 181.421C269.479 182.947 269.351 184.578 269.624 186.165C269.896 187.753 270.56 189.248 271.555 190.515C270.432 191.944 269.734 193.659 269.54 195.466C269.346 197.273 269.664 199.097 270.458 200.732C271.252 202.366 272.49 203.744 274.03 204.708C275.571 205.672 277.351 206.183 279.168 206.183C280.985 206.183 282.766 205.672 284.306 204.708C285.846 203.744 287.084 202.366 287.878 200.732C288.672 199.097 288.991 197.273 288.797 195.466C288.603 193.659 287.905 191.944 286.782 190.515C288.123 188.808 288.852 186.699 288.852 184.528C288.852 182.357 288.123 180.249 286.782 178.542L286.779 178.553Z" fill="#812CC2"/>
<path opacity="0.1" d="M269.484 184.54C269.48 186.712 270.21 188.821 271.555 190.526C270.432 191.955 269.734 193.671 269.54 195.477C269.346 197.284 269.664 199.109 270.458 200.743C271.252 202.378 272.49 203.756 274.031 204.72C275.571 205.684 277.351 206.195 279.168 206.195C280.985 206.195 282.766 205.684 284.306 204.72C285.846 203.756 287.084 202.378 287.878 200.743C288.672 199.109 288.991 197.284 288.797 195.477C288.603 193.671 287.905 191.955 286.782 190.526C288.078 188.882 269.484 183.453 269.484 184.54Z" fill="black"/>
<path opacity="0.1" d="M84.6903 242.845C100.658 242.845 113.602 240.099 113.602 236.712C113.602 233.325 100.658 230.579 84.6903 230.579C68.7229 230.579 55.7788 233.325 55.7788 236.712C55.7788 240.099 68.7229 242.845 84.6903 242.845Z" fill="#812CC2"/>
<path d="M94.3709 236C93.7868 235.786 93.1618 235.821 92.5515 235.754C91.2842 235.608 90.1042 235.035 89.2048 234.131C88.6263 233.546 88.1715 232.851 87.8672 232.086C88.06 232.156 88.2527 232.229 88.4513 232.308C87.8672 230.944 88.4805 229.414 89.0179 228.036C89.929 225.7 90.7905 223.351 91.6024 220.989C93.6466 215.005 95.3988 208.782 95.3609 202.416C95.3609 200.114 94.9374 197.939 94.8556 195.64C94.7943 193.935 95.0571 192.232 95.0455 190.524C95.0455 190.284 95.0455 190.048 95.0279 189.808C95.5504 189.351 95.9608 188.78 96.2276 188.139C96.4945 187.498 96.6106 186.804 96.567 186.111C96.5373 185.75 96.4856 185.391 96.4122 185.037C96.3088 184.42 96.1723 183.81 96.0033 183.208C95.8106 182.575 95.5478 181.967 95.3229 181.348C94.8878 180.148 94.5928 178.898 94.2219 177.677C94.3593 177.691 94.4935 177.728 94.6191 177.785C94.5255 177.676 94.4613 177.544 94.4322 177.403C94.2141 176.626 94.0963 175.824 94.0817 175.017L94.33 174.906C94.4418 174.118 94.4011 173.316 94.2102 172.543C94.3504 171.29 94.5694 170.029 94.7038 168.782C94.7534 168.315 94.733 167.728 94.3037 167.614C94.2161 166.945 94.181 166.267 94.146 165.593C94.0233 163.239 93.9017 160.886 93.7809 158.534C93.6583 156.172 93.5356 153.812 93.4889 151.447C93.4568 149.946 93.4393 148.392 93.083 146.955C93.1445 146.267 93.0742 145.573 92.8756 144.911C92.3325 143.191 90.6445 141.827 88.9332 141.923C88.4228 141.193 87.7917 140.555 87.0671 140.037C87.4087 139.272 87.8176 138.483 88.1534 137.864C90.8927 136.973 92.8961 134.272 92.8961 131.06C92.9001 129.884 92.6249 128.724 92.093 127.675C92.1432 127.546 92.1861 127.414 92.2215 127.281C92.3681 126.65 92.3224 125.99 92.0901 125.385C92.0079 125.153 91.9103 124.927 91.798 124.708C91.7221 124.562 91.6403 124.416 91.5556 124.276L91.4067 124.051C91.3162 123.913 91.2227 123.782 91.1147 123.654C90.9073 123.375 90.685 123.108 90.4488 122.853C90.158 122.539 89.8372 122.253 89.491 122.001C89.0213 121.652 88.4843 121.404 87.914 121.273C87.5842 121.208 87.2484 121.178 86.9123 121.183C86.7108 121.183 86.5063 121.183 86.3048 121.2C85.896 121.224 85.4901 121.253 85.0841 121.25C84.9498 121.25 84.8125 121.25 84.6782 121.23C83.9636 121.134 83.257 120.987 82.5639 120.789L82.2134 120.716C82.0937 120.692 81.9769 120.672 81.8571 120.657C81.5368 120.614 81.2137 120.595 80.8905 120.599H80.5664C80.2426 120.614 79.9199 120.648 79.5997 120.698L79.2785 120.748C78.4673 120.875 77.6767 121.11 76.9276 121.446C76.8312 121.49 76.7319 121.539 76.6356 121.592L76.5771 121.624C76.4983 121.665 76.4195 121.709 76.3435 121.755L76.2997 121.782L76.0515 121.939L76.031 121.954C73.7123 123.513 72.3426 126.469 71.9951 129.401C71.6067 132.692 72.2871 136.01 72.9676 139.248L73.5809 142.169C73.6071 142.3 73.6363 142.429 73.6626 142.56C72.8003 143.268 72.137 144.187 71.7381 145.229C71.154 146.689 71.1395 148.269 71.1862 149.852C71.1862 150.173 71.2037 150.495 71.2358 150.816C71.1628 151.423 71.0986 152.034 71.0577 152.647C70.8737 155.48 71.2183 158.327 71.1278 161.166C71.0577 163.353 70.7277 165.546 70.8883 167.719C71.0285 169.646 71.5454 171.515 72.0564 173.376L72.7924 176.027C72.8162 176.164 72.8803 176.291 72.9764 176.392C73.0972 176.473 73.2451 176.504 73.3881 176.477C72.9094 177.564 72.5093 178.685 72.1908 179.83C71.9707 180.531 71.8259 181.253 71.7586 181.985C71.6622 183.322 71.9718 184.651 72.2813 185.951C72.7486 187.897 73.2139 189.852 73.6772 191.815C74.0043 193.187 74.3304 194.559 74.6556 195.929C75.298 198.634 75.9434 201.355 76.0632 204.139C76.1299 205.536 76.0319 206.937 75.7711 208.312C74.9286 212.429 74.8061 216.661 75.409 220.82C75.8964 224.328 76.6869 227.788 77.7716 231.161C78.0081 231.035 78.2476 230.918 78.4929 230.81L78.3907 231C78.0539 231.584 77.7424 232.183 77.4562 232.796C77.2633 233.195 77.0964 233.605 76.9568 234.025C76.583 235.194 76.5246 236.438 76.472 237.667C76.4453 237.903 76.4661 238.143 76.5333 238.371C76.694 238.812 77.1554 239.037 77.5847 239.159C78.8463 239.519 80.1575 239.39 81.4687 239.221C81.4748 239.25 81.4836 239.278 81.495 239.305C81.6556 239.746 82.1141 239.971 82.5464 240.094C84.3511 240.608 86.2552 240.123 88.1155 239.948C89.9757 239.773 91.8039 239.901 93.594 239.472C93.8609 239.415 94.1171 239.316 94.3533 239.18C94.8136 238.858 95.1513 238.39 95.3112 237.851C95.3673 237.712 95.4046 237.565 95.4222 237.416C95.4952 236.776 94.9491 236.213 94.3709 236ZM88.1943 208.954C88.0936 209.638 87.897 210.305 87.6102 210.934C86.2054 213.921 85.1981 217.08 84.614 220.329C84.2307 222.475 84.0091 224.647 83.951 226.827C83.9218 228.433 83.9832 230.115 83.3144 231.558L83.5568 231.52C83.4809 231.66 83.4079 231.812 83.3378 231.923L83.3027 231.987C82.8983 231.298 82.6277 230.539 82.5055 229.75C82.5055 229.724 82.3741 229.703 82.1725 229.692C81.347 225.079 81.0608 220.385 81.3198 215.706C81.3237 215.139 81.4023 214.574 81.5534 214.027C81.7024 213.557 81.9535 213.127 82.1375 212.672C82.4292 211.906 82.6254 211.108 82.7216 210.295C83.0396 208.216 83.1628 206.112 83.0895 204.01C83.0194 202.027 83.4779 200.056 83.8693 198.082C84.0562 197.144 84.2285 196.204 84.3219 195.264L84.3394 195.074C86.077 197.94 87.2912 201.093 87.9256 204.384C88.2784 205.88 88.3693 207.427 88.1943 208.954V208.954ZM75.6952 166.749L75.7886 166.831C76.0709 167.079 76.3309 167.352 76.5655 167.646C76.6822 167.774 76.7663 167.928 76.8108 168.096C76.8984 168.522 76.545 168.884 76.2559 169.197C76.1303 169.332 76.0123 169.474 75.9025 169.623C75.8402 168.665 75.7741 167.707 75.704 166.749H75.6952Z" fill="url(#paint0_linear)"/>
<path d="M71.6532 148.444L71.332 150.924C71.2239 151.765 71.1159 152.603 71.0575 153.447C70.8618 156.256 71.2239 159.077 71.1305 161.893C71.0546 164.059 70.71 166.223 70.8764 168.387C71.0254 170.297 71.5685 172.155 72.1117 173.994L72.8827 176.623C72.9091 176.76 72.9762 176.886 73.0755 176.985C73.224 177.073 73.4004 177.101 73.569 177.064L76.9917 176.754C76.7726 175.75 76.5302 174.71 76.4076 173.679C76.3141 172.873 76.2586 172.061 76.2002 171.249C76.0192 168.72 75.8118 166.191 75.6162 163.656L75.2511 159.217C75.0963 157.29 74.9357 155.354 74.4509 153.482C73.9645 151.591 73.0012 149.857 71.6532 148.444Z" fill="#812CC2"/>
<path opacity="0.1" d="M71.6532 148.444L71.332 150.924C71.2239 151.765 71.1159 152.603 71.0575 153.447C70.8618 156.256 71.2239 159.077 71.1305 161.893C71.0546 164.059 70.71 166.223 70.8764 168.387C71.0254 170.297 71.5685 172.155 72.1117 173.994L72.8827 176.623C72.9091 176.76 72.9762 176.886 73.0755 176.985C73.224 177.073 73.4004 177.101 73.569 177.064L76.9917 176.754C76.7726 175.75 76.5302 174.71 76.4076 173.679C76.3141 172.873 76.2586 172.061 76.2002 171.249C76.0192 168.72 75.8118 166.191 75.6162 163.656L75.2511 159.217C75.0963 157.29 74.9357 155.354 74.4509 153.482C73.9645 151.591 73.0012 149.857 71.6532 148.444Z" fill="black"/>
<path d="M77.7513 232.849C77.5504 233.244 77.3748 233.652 77.2257 234.069C76.8344 235.223 76.7759 236.461 76.7175 237.679C76.6917 237.914 76.7136 238.151 76.7818 238.377C76.9512 238.815 77.4359 239.037 77.8886 239.157C79.7839 239.668 81.7814 239.189 83.7293 239.014C85.6772 238.838 87.6017 238.967 89.4824 238.543C89.7601 238.49 90.0286 238.396 90.2796 238.266C90.7558 237.956 91.1114 237.492 91.2872 236.952C91.3438 236.813 91.3821 236.668 91.4011 236.52C91.4624 235.877 90.9046 235.322 90.2972 235.112C89.6897 234.902 89.0268 234.934 88.3873 234.87C87.07 234.735 85.8341 234.169 84.871 233.261C83.9079 232.352 83.2716 231.151 83.0605 229.844C83.0372 229.704 79.8949 229.788 79.5561 229.969C79.1706 230.183 78.937 230.711 78.718 231.07C78.3734 231.649 78.0512 232.241 77.7513 232.849Z" fill="#A26565"/>
<path opacity="0.1" d="M77.7513 232.849C77.5504 233.244 77.3748 233.652 77.2257 234.069C76.8344 235.223 76.7759 236.461 76.7175 237.679C76.6917 237.914 76.7136 238.151 76.7818 238.377C76.9512 238.815 77.4359 239.037 77.8886 239.157C79.7839 239.668 81.7814 239.189 83.7293 239.014C85.6772 238.838 87.6017 238.967 89.4824 238.543C89.7601 238.49 90.0286 238.396 90.2796 238.266C90.7558 237.956 91.1114 237.492 91.2872 236.952C91.3438 236.813 91.3821 236.668 91.4011 236.52C91.4624 235.877 90.9046 235.322 90.2972 235.112C89.6897 234.902 89.0268 234.934 88.3873 234.87C87.07 234.735 85.8341 234.169 84.871 233.261C83.9079 232.352 83.2716 231.151 83.0605 229.844C83.0372 229.704 79.8949 229.788 79.5561 229.969C79.1706 230.183 78.937 230.711 78.718 231.07C78.3734 231.649 78.0512 232.241 77.7513 232.849Z" fill="black"/>
<path d="M96.5526 202.754C96.5935 209.065 94.7595 215.233 92.6072 221.152C91.7545 223.5 90.8502 225.828 89.8942 228.135C89.3277 229.502 88.6881 231.02 89.2956 232.369C87.5434 231.704 85.7619 231.312 83.9192 231.619C84.6201 230.188 84.5529 228.523 84.585 226.946C84.6445 224.785 84.875 222.632 85.2742 220.507C85.8928 217.273 86.9531 214.139 88.4253 211.194C88.7229 210.573 88.9285 209.912 89.0357 209.231C89.2751 207.73 89.0882 206.188 88.7757 204.702C88.1035 201.419 86.826 198.289 85.0085 195.474L84.991 195.661C84.8819 196.6 84.724 197.533 84.5179 198.455C84.1061 200.409 83.6242 202.366 83.6972 204.331C83.7734 206.415 83.6443 208.501 83.3118 210.56C83.2047 211.369 82.9936 212.16 82.6839 212.914C82.4824 213.367 82.2195 213.79 82.0618 214.26C81.904 214.801 81.8214 215.361 81.8165 215.925C81.5829 220.676 81.8165 225.501 82.7861 230.159C81.1595 230.03 79.5328 230.5 78.0785 231.23C76.9414 227.896 76.1105 224.465 75.5962 220.98C74.9625 216.858 75.0912 212.655 75.9758 208.58C76.2515 207.221 76.3545 205.833 76.2825 204.448C76.1569 201.688 75.4794 198.99 74.8048 196.309L73.7768 192.22C73.2901 190.273 72.8033 188.335 72.3166 186.406C71.9925 185.118 71.6654 183.801 71.7676 182.475C71.8389 181.748 71.9917 181.031 72.2232 180.337C72.9523 177.98 74.0429 175.749 75.456 173.726C81.0835 174.041 86.7782 173.515 92.3941 173.083C92.6664 173.03 92.9489 173.077 93.1884 173.218C93.3798 173.412 93.494 173.669 93.5096 173.942L95.6211 185.915C95.9629 187.579 96.1632 189.27 96.2197 190.968C96.2197 192.661 95.9569 194.349 96.0211 196.04C96.1088 198.318 96.541 200.473 96.5526 202.754Z" fill="#454B69"/>
<path opacity="0.1" d="M84.9964 195.661C84.8873 196.6 84.7294 197.533 84.5233 198.456C83.2996 196.338 81.9796 194.274 80.8524 192.104C80.5603 191.546 80.2858 190.979 80.0084 190.413L79.1761 188.719C79.0213 188.401 78.8665 188.083 78.7264 187.758C78.4981 187.293 78.3228 186.803 78.2036 186.298C78.6125 186.222 79.6229 187.326 79.9266 187.615C80.5461 188.229 81.1311 188.876 81.6788 189.554C82.3441 190.308 82.955 191.109 83.507 191.949C84.2138 193.091 84.7176 194.347 84.9964 195.661V195.661Z" fill="black"/>
<path d="M89.684 137.572C89.684 137.572 86.5593 142.551 87.1375 143.594C87.7157 144.636 77.2959 142.668 77.2959 142.668C77.2959 142.668 82.9701 137.689 82.389 135.604C81.8078 133.518 89.684 137.572 89.684 137.572Z" fill="#EFB7B9"/>
<path d="M86.9066 139.079C90.8082 139.079 93.971 135.916 93.971 132.015C93.971 128.113 90.8082 124.95 86.9066 124.95C83.0051 124.95 79.8423 128.113 79.8423 132.015C79.8423 135.916 83.0051 139.079 86.9066 139.079Z" fill="#EFB7B9"/>
<path d="M89.7892 142.793C89.0328 141.744 88.0065 140.918 86.8192 140.404C86.135 140.159 85.4275 139.985 84.7078 139.885L81.8896 139.388C81.2004 139.266 80.4616 139.152 79.8191 139.435C79.4942 139.602 79.1984 139.819 78.943 140.08C77.9647 140.989 77.0155 141.984 75.7861 142.51C75.4502 142.653 75.0998 142.758 74.7639 142.901C73.3885 143.485 72.3605 144.73 71.7793 146.114C71.1661 147.556 71.1485 149.125 71.1953 150.693C71.1945 151.234 71.2483 151.774 71.3559 152.305C71.4965 152.81 71.6751 153.304 71.8903 153.783C72.2786 154.806 72.6043 155.853 72.8657 156.916C73.5958 159.71 74.2032 162.533 74.688 165.385C74.7291 165.794 74.8491 166.19 75.0414 166.553C75.3136 166.917 75.6431 167.233 76.0168 167.491C76.3132 167.734 76.586 168.005 76.8316 168.3C76.9539 168.42 77.0451 168.568 77.0973 168.732C77.1878 169.152 76.8053 169.515 76.5132 169.821C75.8848 170.462 75.4304 171.254 75.1932 172.119C75.0468 172.297 74.9718 172.523 74.983 172.753C75.0438 172.913 75.0668 173.085 75.0501 173.256C74.9927 173.411 74.9019 173.551 74.7844 173.667C74.6496 173.843 74.5539 174.045 74.5035 174.261C74.4532 174.476 74.4494 174.7 74.4923 174.917C76.6813 175.868 79.024 176.416 81.4078 176.535C81.9918 176.564 82.5759 176.564 83.16 176.634C83.5747 176.687 83.9835 176.772 84.3982 176.821C85 176.878 85.6049 176.893 86.2088 176.868C89.3541 176.804 92.5898 176.725 95.478 175.478C95.7496 173.997 95.1626 172.487 94.7947 171.027C94.2106 168.691 94.0646 166.299 93.6265 163.943C93.3345 162.333 92.8964 160.748 92.6482 159.127C92.4 157.506 92.3562 155.827 92.7884 154.25C93.1826 152.854 93.3024 151.429 93.7112 150.036C94.1201 148.643 94.4063 147.133 93.9449 145.755C93.3608 144.049 91.5881 142.697 89.7892 142.793Z" fill="#812CC2"/>
<path d="M93.2586 128.268C93.6032 127.015 92.9257 125.71 92.1197 124.69C91.2436 123.595 90.128 122.608 88.7584 122.334C87.6457 122.109 86.4922 122.38 85.3591 122.29C84.3574 122.211 83.3937 121.849 82.3978 121.706C81.4943 121.608 80.5814 121.643 79.6878 121.808C78.8397 121.934 78.0107 122.166 77.2201 122.497C74.2121 123.832 72.4511 127.12 72.0423 130.382C71.6334 133.644 72.3489 136.933 73.0615 140.142L73.7069 143.045C74.3786 146.067 75.0502 149.102 75.2284 152.191C75.4065 155.281 75.0736 158.453 73.8032 161.274C77.9115 159.067 81.0947 155.463 82.7775 151.114C83.2331 149.919 83.5718 148.678 84.08 147.504C84.5151 146.494 85.0729 145.536 85.4584 144.505C85.8941 143.342 86.1033 142.105 86.0746 140.863C86.0512 139.929 85.8964 139 85.9227 138.066C85.949 137.131 86.1885 136.159 86.8339 135.481C87.4179 134.883 88.221 134.605 88.9599 134.217C90.123 133.619 91.1393 132.771 91.9357 131.734C92.4001 131.127 92.4263 130.858 92.5432 130.169C92.66 129.48 93.0776 128.931 93.2586 128.268Z" fill="#A26565"/>
<path d="M93.2674 181.333C93.3404 182.06 93.209 182.793 93.3667 183.515C93.4864 184.052 93.7639 184.537 93.9274 185.063C94.0892 185.67 94.1726 186.295 94.1756 186.923C94.199 187.448 94.1581 188.091 93.6908 188.336C93.4864 188.444 93.2411 188.444 93.0279 188.538C92.8147 188.631 92.6337 188.885 92.7563 189.084C92.879 189.282 93.0893 189.25 93.282 189.288C93.4747 189.326 93.6821 189.525 93.574 189.685C93.53 189.738 93.4709 189.776 93.4046 189.794C93.2097 189.854 93.0247 189.942 92.8556 190.056C92.773 190.117 92.7084 190.198 92.6687 190.292C92.6291 190.386 92.616 190.49 92.6308 190.591C92.6425 190.639 92.6651 190.684 92.6967 190.723C92.7284 190.761 92.7683 190.792 92.8136 190.813C92.8588 190.833 92.9081 190.844 92.9579 190.843C93.0077 190.842 93.0566 190.829 93.1009 190.807C93.0152 190.99 92.9685 191.189 92.9637 191.391C93.7113 191.712 94.5494 191.292 95.2503 190.886C95.5534 190.717 95.8459 190.529 96.1264 190.325C96.6934 189.89 97.1452 189.322 97.4425 188.672C97.7398 188.022 97.8735 187.309 97.8319 186.596C97.7985 186.237 97.7429 185.881 97.6654 185.53C97.5576 184.918 97.4143 184.312 97.2361 183.716C97.0346 183.088 96.7601 182.49 96.5236 181.874C96.0213 180.562 95.6971 179.19 95.2416 177.861C95.2111 177.723 95.1337 177.6 95.0225 177.513C94.9221 177.464 94.81 177.443 94.6984 177.452C94.1871 177.425 93.6746 177.473 93.1769 177.592C92.8848 177.68 92.3854 177.884 92.2482 178.176C92.1109 178.468 92.3299 178.714 92.4614 178.956C92.8811 179.689 93.1548 180.496 93.2674 181.333Z" fill="#EFB7B9"/>
<path opacity="0.1" d="M92.7907 145.848C92.9407 146.002 93.0667 146.177 93.1645 146.368C94.1691 148.193 94.1808 150.375 94.2276 152.457C94.2801 154.793 94.4086 157.13 94.5371 159.481L94.9197 166.489C94.9576 167.158 94.9927 167.827 95.0891 168.49C95.5388 168.604 95.5563 169.188 95.5067 169.658C95.1825 172.514 94.3794 175.455 95.2146 178.203C95.2468 178.344 95.3141 178.475 95.4103 178.583C94.9862 178.45 94.5324 178.444 94.1049 178.565C93.6873 178.653 93.2843 178.808 92.8637 178.904C92.3322 179.024 91.7306 179.076 91.3685 179.488C90.9581 178.254 90.6313 176.993 90.3902 175.715C90.1916 174.547 90.1361 173.344 89.663 172.263C89.4732 171.828 89.2162 171.425 88.9826 171.007C87.759 168.823 87.1574 166.355 86.5704 163.92C86.307 162.765 86.2438 161.574 86.3835 160.398C86.4684 159.861 86.5172 159.32 86.5295 158.777C86.4939 158.204 86.4188 157.634 86.3046 157.071C86.0565 155.42 86.1732 153.734 86.6463 152.133C87.0844 150.647 87.4699 149.081 88.3985 147.831C89.3272 146.581 91.24 145.869 92.7907 145.848Z" fill="black"/>
<path d="M93.1389 145.615C93.2889 145.769 93.4149 145.946 93.5127 146.137C94.5173 147.96 94.529 150.144 94.5757 152.226C94.6283 154.563 94.7568 156.899 94.8853 159.235L95.2679 166.244C95.3058 166.913 95.3409 167.582 95.4372 168.245C95.887 168.358 95.9045 168.943 95.8519 169.413C95.5307 172.269 94.7276 175.207 95.5599 177.958C95.5921 178.099 95.6594 178.229 95.7556 178.337C95.3314 178.204 94.8777 178.198 94.4502 178.32C94.0326 178.407 93.6296 178.562 93.209 178.656C92.6775 178.778 92.0759 178.828 91.7138 179.24C91.3047 178 90.9808 176.733 90.7442 175.449C90.5457 174.281 90.4902 173.081 90.0171 172C89.8116 171.57 89.5845 171.151 89.3366 170.744C88.1101 168.56 87.5114 166.089 86.9244 163.654C86.661 162.499 86.5977 161.308 86.7375 160.132C86.9575 159.031 86.9305 157.895 86.6587 156.806C86.4105 155.155 86.5272 153.471 87.0003 151.87C87.4384 150.384 87.8239 148.818 88.7526 147.568C89.6812 146.319 91.5882 145.638 93.1389 145.615Z" fill="#812CC2"/>
<g opacity="0.1">
<path opacity="0.1" d="M92.1199 124.69C91.2438 123.595 90.1282 122.608 88.7585 122.334C87.6459 122.109 86.4924 122.38 85.3593 122.29C84.3576 122.211 83.3939 121.849 82.398 121.706C81.4945 121.608 80.5816 121.643 79.6879 121.808C78.8399 121.934 78.0109 122.165 77.2202 122.497C76.7931 122.688 76.3853 122.92 76.0024 123.189C76.7062 122.916 77.4377 122.72 78.1839 122.605C79.0766 122.44 79.9885 122.405 80.8911 122.503C81.8899 122.631 82.8507 122.991 83.8553 123.069C84.9855 123.16 86.139 122.891 87.2546 123.113C88.6242 123.388 89.7456 124.378 90.613 125.473C91.4219 126.489 92.0965 127.795 91.7548 129.05C91.5738 129.71 91.1532 130.289 91.0393 130.969C90.9254 131.649 90.8962 131.927 90.429 132.534C89.8299 133.313 89.1055 133.987 88.2855 134.529C88.5103 134.424 88.741 134.319 88.9601 134.205C90.1232 133.607 91.1395 132.76 91.9359 131.722C92.4002 131.115 92.4265 130.846 92.5433 130.157C92.6601 129.468 93.0778 128.901 93.2588 128.238C93.6034 127.015 92.9259 125.709 92.1199 124.69Z" fill="black"/>
<path opacity="0.1" d="M86.8338 135.499C86.9548 135.373 87.0867 135.259 87.2281 135.157C86.5535 135.484 85.8438 135.77 85.3269 136.325C84.6815 137 84.4508 137.975 84.4158 138.91C84.3807 139.844 84.5472 140.773 84.5676 141.704C84.5963 142.947 84.3872 144.185 83.9515 145.349C83.566 146.38 83.0082 147.335 82.573 148.348C82.0678 149.516 81.7291 150.76 81.2735 151.955C79.8135 155.726 77.2212 158.952 73.8529 161.189C73.8354 161.227 73.8207 161.268 73.8032 161.306C77.9115 159.099 81.0947 155.495 82.7775 151.146C83.233 149.952 83.5718 148.71 84.08 147.536C84.5151 146.526 85.0729 145.568 85.4584 144.537C85.8941 143.374 86.1032 142.138 86.0745 140.895C86.0512 139.961 85.8964 139.032 85.9227 138.098C85.949 137.163 86.1884 136.176 86.8338 135.499Z" fill="black"/>
</g>
</g>
<defs>
<linearGradient id="paint0_linear" x1="83.7203" y1="240.313" x2="83.7203" y2="120.608" gradientUnits="userSpaceOnUse">
<stop stop-color="#808080" stop-opacity="0.25"/>
<stop offset="0.54" stop-color="#808080" stop-opacity="0.12"/>
<stop offset="1" stop-color="#808080" stop-opacity="0.1"/>
</linearGradient>
<clipPath id="clip0">
<rect width="330" height="242.845" fill="white"/>
</clipPath>
</defs>
</svg>
