<svg width="25" height="25" viewBox="0 0 25 25" fill="none" xmlns="http://www.w3.org/2000/svg">
<path d="M22.0703 3.32031H2.92969C1.31426 3.32031 0 4.63457 0 6.25V18.75C0 20.3654 1.31426 21.6797 2.92969 21.6797H22.0703C23.6857 21.6797 25 20.3654 25 18.75V6.25C25 4.63457 23.6857 3.32031 22.0703 3.32031ZM23.0469 18.75C23.0469 19.2885 22.6088 19.7266 22.0703 19.7266H2.92969C2.39121 19.7266 1.95312 19.2885 1.95312 18.75V6.25C1.95312 5.71152 2.39121 5.27344 2.92969 5.27344H22.0703C22.6088 5.27344 23.0469 5.71152 23.0469 6.25V18.75Z" fill="#31313A"/>
<path d="M22.881 4.53784L12.4999 12.2594L2.11885 4.53784L0.953125 6.10498L12.4999 14.6935L24.0467 6.10498L22.881 4.53784Z" fill="#31313A"/>
</svg>
