<svg width="212" height="150" viewBox="0 0 212 150" fill="none" xmlns="http://www.w3.org/2000/svg">
<g clip-path="url(#clip0)">
<path opacity="0.1" d="M70.4028 149.916C80.7156 149.916 89.0757 148.573 89.0757 146.917C89.0757 145.26 80.7156 143.918 70.4028 143.918C60.0901 143.918 51.73 145.26 51.73 146.917C51.73 148.573 60.0901 149.916 70.4028 149.916Z" fill="#0E7A8B"/>
<path opacity="0.1" d="M171.906 150C184.775 150 195.207 148.657 195.207 147.001C195.207 145.345 184.775 144.002 171.906 144.002C159.037 144.002 148.605 145.345 148.605 147.001C148.605 148.657 159.037 150 171.906 150Z" fill="#0E7A8B"/>
<path opacity="0.1" d="M2.65251 64.8108H22.1015V91.3196H4.07635C4.02844 91.5917 3.98245 91.8658 3.93263 92.1398H22.1015V113.519C22.0689 113.509 22.0402 113.497 22.0095 113.486C21.4959 113.283 20.9862 113.068 20.4764 112.838L20.1507 112.691C19.6396 112.449 19.1286 112.194 18.6176 111.924C18.4394 111.83 18.2611 111.733 18.0848 111.633C15.2478 110.044 12.6706 108.03 10.4425 105.662C10.3773 105.598 10.316 105.531 10.2508 105.47C9.94037 105.133 9.63567 104.792 9.34055 104.443L9.01477 104.059C8.666 103.632 8.32872 103.193 8.00103 102.749C7.95312 102.684 7.90712 102.618 7.8573 102.557C6.52457 100.709 5.41799 98.7083 4.56119 96.5972C4.53436 96.534 4.51136 96.465 4.48645 96.4056C4.22327 95.7285 3.99012 95.045 3.78698 94.3551C3.69883 94.0657 3.61451 93.7802 3.54169 93.4793C3.51486 93.3912 3.49187 93.3049 3.47079 93.2187C2.3823 88.9702 2.25391 84.5568 2.25391 80.1741C2.25391 79.6625 2.25391 79.1489 2.25391 78.6411C2.25391 76.8684 2.27499 75.0843 2.30565 73.3021C2.30565 72.8403 2.32481 72.3804 2.33439 71.9166C2.36122 70.74 2.39955 69.5633 2.44937 68.3867C2.46087 68.059 2.4762 67.7332 2.49345 67.4074C2.49345 67.2196 2.50303 67.0318 2.52219 66.844C2.56819 66.1618 2.60651 65.4853 2.65251 64.8108Z" fill="#0E7A8B"/>
<path opacity="0.1" d="M22.1009 35.2953H11.4326C13.1668 32.5809 15.0616 29.9726 17.1069 27.4842C18.6917 25.5372 20.3647 23.6401 22.1009 21.8119V35.2953Z" fill="#0E7A8B"/>
<path opacity="0.1" d="M22.101 36.1154V63.9906H2.71338C2.71338 63.9101 2.72679 63.8277 2.73254 63.7472C2.74979 63.5268 2.76704 63.3065 2.7862 63.088C2.80728 62.8312 2.83028 62.5725 2.85519 62.3215C2.8801 62.0704 2.90693 61.7638 2.93567 61.4859C2.96442 61.2081 2.99125 60.9264 3.02383 60.6485C3.0564 60.3706 3.08515 60.0928 3.11964 59.8168C3.15414 59.5408 3.1848 59.2611 3.22121 58.9851C3.24996 58.7551 3.28062 58.5271 3.31128 58.2971C3.35535 57.9733 3.40135 57.6475 3.45117 57.3256C3.45117 57.2776 3.46459 57.2278 3.47225 57.1818C3.82202 54.825 4.2986 52.4888 4.89993 50.1833C5.52937 47.7649 6.33314 45.3952 7.30494 43.0929C8.33778 40.6844 9.54709 38.3554 10.923 36.125L22.101 36.1154Z" fill="#0E7A8B"/>
<path opacity="0.1" d="M26.7446 64.8089V91.3196H68.2853V64.8089H26.7446ZM26.7446 92.1379V114.904C26.9823 114.954 27.218 115.002 27.4518 115.042C27.7699 115.103 28.0861 115.159 28.4099 115.207C28.4713 115.216 28.5345 115.226 28.6016 115.232C28.728 115.253 28.8584 115.27 28.9848 115.287C29.3049 115.331 29.623 115.368 29.943 115.397C30.0944 115.412 30.2477 115.425 30.401 115.437L30.7709 115.466C30.9721 115.481 31.1714 115.492 31.3688 115.498C31.4914 115.498 31.6141 115.51 31.7405 115.513C31.8364 115.513 31.9322 115.513 32.0318 115.513C32.1315 115.513 32.2733 115.513 32.394 115.513C32.5588 115.513 32.7236 115.513 32.8865 115.513H33.1069C33.2717 115.513 33.4365 115.513 33.5994 115.498H33.6109C33.724 115.498 33.8389 115.498 33.9539 115.483C33.9858 115.485 34.0178 115.485 34.0497 115.483C34.1456 115.483 34.2414 115.483 34.3334 115.469H34.4004L35.0424 115.42C35.2532 115.4 35.4659 115.375 35.6805 115.352L36.1175 115.301C37.895 115.052 39.6528 114.678 41.3778 114.182C45.2527 113.101 49.0432 111.589 52.9162 110.481C57.9236 109.053 63.4561 108.352 68.2948 110.098V92.1379H26.7446ZM68.2853 35.2952V0.00191326C63.7373 -0.0473605 59.2016 0.484579 54.7884 1.58481C44.2696 4.22745 34.8316 9.95924 26.7446 17.2797V35.2933H28.8296V36.1116H26.7446V63.9906H68.2853V36.1135H37.3899V35.2952H68.2853ZM121.642 23.3737C119.04 23.2817 116.453 22.4576 114.113 21.1852C109.638 18.7514 106.064 14.9935 102.07 11.8219C93.7727 5.21629 83.4819 1.23029 72.9247 0.241456V35.2952H132.226L132.374 35.14L121.642 23.3737ZM127.044 22.4155L132.772 28.7011V20.7674C130.854 21.0051 129.173 21.5704 127.052 22.4078L127.044 22.4155ZM132.772 120.557V92.1379H120.567C120.534 92.0171 120.502 91.8945 120.464 91.7719C120.5 91.8945 120.531 92.0171 120.565 92.1379H72.9324V112.691C73.3847 113.026 73.8312 113.379 74.2738 113.737C74.751 114.12 75.2224 114.525 75.6958 114.921L76.1729 115.316C76.401 115.508 76.6309 115.699 76.8628 115.879C77.3227 116.253 77.7871 116.62 78.256 116.983C78.4879 117.175 78.7255 117.347 78.9612 117.528C82.7033 120.389 86.6508 122.97 90.7717 125.252C91.6953 125.763 92.6273 126.262 93.5676 126.749C94.1943 127.069 94.8247 127.387 95.4571 127.696C96.4076 128.159 97.3658 128.607 98.3316 129.037C107.236 133.034 116.652 135.777 126.31 137.187C128.455 137.504 130.609 137.753 132.77 137.935V120.555H132.962L132.772 120.557ZM72.9324 36.1135V63.9906H132.78V36.1135H72.9324ZM72.9324 64.8089V91.3196H132.78V64.8089H72.9324ZM137.425 20.7329V29.5826L144.736 21.5608C142.314 21.1699 139.877 20.8907 137.425 20.7234V20.7329ZM137.425 64.8185V91.3196H195.634V64.8089L137.425 64.8185ZM195.421 122.661L195.626 92.1379H137.425V138.239C141.174 138.397 144.93 138.352 148.674 138.105H148.739C150.528 137.993 152.308 137.829 154.08 137.615H154.12C163.574 136.514 172.817 134.048 181.562 130.292L195.421 122.661ZM206.858 69.1743C206.64 68.6588 206.412 68.1471 206.18 67.6412C205.747 66.6831 205.289 65.7517 204.817 64.8204H200.275V91.3196H211.758C211.752 83.8152 209.853 76.1498 206.864 69.1647L206.858 69.1743ZM200.275 92.1474V118.401C203.51 115.301 206.243 111.754 208.211 107.699C210.578 102.816 211.66 97.5285 211.749 92.1436L200.275 92.1474ZM200.275 57.0937V63.9925H204.392C203.147 61.6176 201.774 59.3115 200.281 57.0841L200.275 57.0937ZM160.799 25.9339C160.496 25.8189 160.193 25.702 159.889 25.589C156.675 24.4022 153.391 23.4153 150.056 22.634L138.868 34.912L138.653 35.14L138.797 35.2972H178.615C173.07 31.4799 167.091 28.3336 160.805 25.9243L160.799 25.9339ZM179.782 36.1231H138.241L137.425 36.8705V63.9906H144.581H144.592H195.642V50.854C191.024 45.269 185.694 40.3133 179.788 36.1135L179.782 36.1231Z" fill="#0E7A8B"/>
<path opacity="0.1" d="M22.101 50.1757V63.9906H2.71338C2.71338 63.9101 2.72679 63.8277 2.73254 63.7472C2.74979 63.5268 2.76704 63.3065 2.7862 63.088C2.80728 62.8312 2.83028 62.5725 2.85519 62.3215C2.8801 62.0704 2.90693 61.7638 2.93567 61.4859C2.96442 61.2081 2.99125 60.9264 3.02383 60.6485C3.0564 60.3706 3.08515 60.0927 3.11964 59.8168C3.15414 59.5408 3.1848 59.2611 3.22121 58.9851C3.24996 58.7551 3.28062 58.5271 3.31128 58.2971C3.35535 57.9733 3.40135 57.6475 3.45117 57.3255C3.45117 57.2776 3.46459 57.2278 3.47225 57.1818C3.82202 54.825 4.2986 52.4888 4.89993 50.1833L22.101 50.1757Z" fill="#0E7A8B"/>
<path opacity="0.1" d="M2.65251 64.8108H22.1015V91.3196H4.07635C4.02844 91.5917 3.98245 91.8658 3.93263 92.1398H22.1015V113.519C22.0689 113.509 22.0402 113.497 22.0095 113.486C21.4959 113.283 20.9862 113.068 20.4764 112.838L20.1507 112.691C19.6396 112.449 19.1286 112.194 18.6176 111.924C18.4394 111.83 18.2611 111.733 18.0848 111.633C15.2478 110.044 12.6706 108.03 10.4425 105.662C10.3773 105.598 10.316 105.531 10.2508 105.47C9.94037 105.133 9.63567 104.792 9.34055 104.443L9.01477 104.059C8.666 103.632 8.32872 103.193 8.00103 102.749C7.95312 102.684 7.90712 102.618 7.8573 102.557C6.52457 100.709 5.41799 98.7083 4.56119 96.5972C4.53436 96.534 4.51136 96.465 4.48645 96.4056C4.22327 95.7285 3.99012 95.045 3.78698 94.3551C3.69883 94.0657 3.61451 93.7802 3.54169 93.4793C3.51486 93.3912 3.49187 93.3049 3.47079 93.2187C2.3823 88.9702 2.25391 84.5568 2.25391 80.1741C2.25391 79.6625 2.25391 79.1489 2.25391 78.6411C2.25391 76.8684 2.27499 75.0843 2.30565 73.3021C2.30565 72.8403 2.32481 72.3804 2.33439 71.9166C2.36122 70.74 2.39955 69.5633 2.44937 68.3867C2.46087 68.059 2.4762 67.7332 2.49345 67.4074C2.49345 67.2196 2.50303 67.0318 2.52219 66.844C2.56819 66.1618 2.60651 65.4853 2.65251 64.8108Z" fill="#0E7A8B"/>
<path opacity="0.1" d="M41.3683 40.1053V63.9906H26.7446V40.1053H28.8296V32.0183H37.388V40.1053H41.3683Z" fill="#0E7A8B"/>
<path opacity="0.1" d="M41.3683 64.8089H26.7466V91.3177H41.3683V64.8089Z" fill="#0E7A8B"/>
<path opacity="0.1" d="M26.7446 92.1398H41.3683V114.178C39.6433 114.673 37.8854 115.047 36.1079 115.295L35.671 115.349C35.4563 115.374 35.2436 115.395 35.0328 115.416C34.822 115.437 34.6036 115.452 34.3908 115.466H34.3238C34.2318 115.466 34.1321 115.477 34.0421 115.479H33.9443C33.8294 115.479 33.7144 115.49 33.5994 115.494C33.4365 115.504 33.2736 115.506 33.1069 115.508C33.036 115.508 32.9689 115.508 32.898 115.508C32.7332 115.508 32.5703 115.508 32.4055 115.508H32.0433C31.9456 115.508 31.8517 115.508 31.7501 115.508L31.3803 115.494C31.1886 115.494 30.9817 115.473 30.7824 115.46L30.4144 115.433L29.9564 115.391C29.6345 115.362 29.3144 115.326 28.9983 115.282L28.615 115.228L28.4233 115.201C28.1033 115.151 27.7871 115.098 27.4652 115.036C27.2295 114.996 26.9957 114.946 26.758 114.898L26.7446 92.1398Z" fill="#0E7A8B"/>
<path opacity="0.1" d="M132.78 37.2844H120.722V63.9887H132.78V37.2844Z" fill="#0E7A8B"/>
<path opacity="0.1" d="M132.781 64.8089V91.3196H72.9321V79.8848H104.811V86.6303H120.722V64.8089H132.781Z" fill="#0E7A8B"/>
<path opacity="0.1" d="M132.971 120.563H132.78V137.954C130.621 137.771 128.468 137.523 126.322 137.208C116.659 135.794 107.239 133.045 98.3314 129.041C95.7596 127.883 93.2403 126.62 90.7733 125.25C86.6525 122.967 82.7044 120.386 78.961 117.526C78.0207 116.805 77.0925 116.068 76.1765 115.314C75.5422 114.791 74.9117 114.254 74.2736 113.733C73.8309 113.375 73.3844 113.022 72.9321 112.685V92.1398H120.563C120.53 92.0171 120.498 91.8945 120.463 91.7738C120.5 91.8945 120.534 92.0171 120.567 92.1398H132.78V120.552C132.845 120.553 132.908 120.559 132.971 120.563Z" fill="#0E7A8B"/>
<path opacity="0.1" d="M164.227 35.2952H156.37V32.8538H159.892V25.5813C160.198 25.6924 160.502 25.8068 160.805 25.9243V32.8538H164.227V35.2952Z" fill="#0E7A8B"/>
<path opacity="0.1" d="M183.156 63.9906H144.584C144.584 63.9906 144.584 63.9906 144.598 64.0002L144.58 63.9906H137.425V37.2863H139.452V57.0247H148.718V45.335H156.372V36.1154H164.229V45.3426H171.883V57.0324H183.156V63.9906Z" fill="#0E7A8B"/>
<path opacity="0.1" d="M137.425 64.8089V91.3196H183.156V64.8089H137.425ZM195.571 122.525L195.634 101.541H183.156V92.1513H137.425V138.239C141.174 138.397 144.929 138.352 148.674 138.105H148.739C150.527 137.993 152.308 137.829 154.08 137.615H154.12C163.573 136.514 172.817 134.048 181.562 130.292" fill="#0E7A8B"/>
<path opacity="0.1" d="M201.088 92.1398H211.756C211.662 97.5228 210.582 102.81 208.217 107.693C206.249 111.75 203.514 115.297 200.283 118.396V101.532H201.088V92.1398Z" fill="#0E7A8B"/>
<path opacity="0.1" d="M211.762 91.3196H201.088V69.1647H206.864C209.853 76.1498 211.752 83.8152 211.762 91.3196Z" fill="#0E7A8B"/>
<path opacity="0.1" d="M132.781 44.7083H126.321V53.0809H132.781V44.7083Z" fill="#0E7A8B"/>
<path opacity="0.1" d="M132.781 62.0627H126.321V63.9906H132.781V62.0627Z" fill="#0E7A8B"/>
<path opacity="0.1" d="M132.781 64.8089H126.321V70.4333H132.781V64.8089Z" fill="#0E7A8B"/>
<path opacity="0.1" d="M132.781 79.4172H126.321V87.7897H132.781V79.4172Z" fill="#0E7A8B"/>
<path opacity="0.1" d="M132.781 96.7716H126.321V105.144H132.781V96.7716Z" fill="#0E7A8B"/>
<path opacity="0.1" d="M132.779 120.552C132.845 120.552 132.908 120.552 132.971 120.563H132.779V122.508H126.321V114.126H132.779V120.552Z" fill="#0E7A8B"/>
<path opacity="0.1" d="M132.779 131.477V137.944C130.62 137.762 128.468 137.513 126.321 137.199V131.477H132.779Z" fill="#0E7A8B"/>
<path opacity="0.1" d="M100.618 90.7045H72.9321V91.3196H100.618V90.7045Z" fill="#0E7A8B"/>
<path opacity="0.1" d="M100.618 92.1379H72.9321V94.495H100.618V92.1379Z" fill="#0E7A8B"/>
<path opacity="0.1" d="M100.618 102.222H72.9321V106.012H100.618V102.222Z" fill="#0E7A8B"/>
<path opacity="0.1" d="M100.616 113.739V117.529H78.9613C78.021 116.811 77.0922 116.074 76.1749 115.318C75.5406 114.795 74.912 114.258 74.272 113.739H100.616Z" fill="#0E7A8B"/>
<path opacity="0.1" d="M100.616 125.254V129.041H98.3296C95.7604 127.882 93.2417 126.618 90.7734 125.249L100.616 125.254Z" fill="#0E7A8B"/>
<path opacity="0.1" d="M154.126 67.3787H148.676V72.8288H154.126V67.3787Z" fill="#0E7A8B"/>
<path opacity="0.1" d="M36.1215 41.9852H30.6714V47.4353H36.1215V41.9852Z" fill="#0E7A8B"/>
<path opacity="0.1" d="M36.1215 54.6446H30.6714V60.0947H36.1215V54.6446Z" fill="#0E7A8B"/>
<path opacity="0.1" d="M36.1215 67.304H30.6714V72.754H36.1215V67.304Z" fill="#0E7A8B"/>
<path opacity="0.1" d="M36.1215 79.9614H30.6714V85.4115H36.1215V79.9614Z" fill="#0E7A8B"/>
<path opacity="0.1" d="M36.1215 92.6208H30.6714V98.0708H36.1215V92.6208Z" fill="#0E7A8B"/>
<path opacity="0.1" d="M36.1215 105.28H30.6714V110.73H36.1215V105.28Z" fill="#0E7A8B"/>
<path opacity="0.1" d="M174.932 67.3787H169.481V72.8288H174.932V67.3787Z" fill="#0E7A8B"/>
<path opacity="0.1" d="M154.126 80.8219H148.676V86.2719H154.126V80.8219Z" fill="#0E7A8B"/>
<path opacity="0.1" d="M174.932 80.8219H169.481V86.2719H174.932V80.8219Z" fill="#0E7A8B"/>
<path opacity="0.1" d="M154.126 94.2631H148.676V99.7132H154.126V94.2631Z" fill="#0E7A8B"/>
<path opacity="0.1" d="M174.932 94.2631H169.481V99.7132H174.932V94.2631Z" fill="#0E7A8B"/>
<path opacity="0.1" d="M154.126 107.706H148.676V113.156H154.126V107.706Z" fill="#0E7A8B"/>
<path opacity="0.1" d="M174.932 107.706H169.481V113.156H174.932V107.706Z" fill="#0E7A8B"/>
<path opacity="0.1" d="M154.126 121.149H148.676V126.6H154.126V121.149Z" fill="#0E7A8B"/>
<path opacity="0.1" d="M174.932 121.149H169.481V126.6H174.932V121.149Z" fill="#0E7A8B"/>
<path opacity="0.1" d="M148.676 138.105V134.591H154.124V137.605L148.676 138.105Z" fill="#0E7A8B"/>
<path opacity="0.1" d="M3.44922 57.178V60.2959H22.101V57.178H3.44922ZM5.30807 60.1004H3.7865V57.3696H5.31957L5.30807 60.1004ZM7.16501 60.1004H5.63194V57.3696H7.16501V60.1004ZM9.01812 60.1004H7.48504V57.3696H9.01812V60.1004ZM10.8751 60.1004H9.3439V57.3696H10.877L10.8751 60.1004ZM12.7301 60.1004H11.197V57.3696H12.7301V60.1004ZM14.587 60.1004H13.0539V57.3696H14.587V60.1004ZM16.444 60.1004H14.9109V57.3696H16.444V60.1004ZM18.299 60.1004H16.7659V57.3696H18.299V60.1004ZM20.154 60.1004H18.6209V57.3696H20.154V60.1004ZM22.009 60.1004H20.4759V57.3696H22.009V60.1004Z" fill="#0E7A8B"/>
<path opacity="0.1" d="M3.44922 66.25V69.3679H22.101V66.25H3.44922ZM5.30807 69.1705H3.7865V66.4474H5.31957L5.30807 69.1705ZM7.16501 69.1705H5.63194V66.4474H7.16501V69.1705ZM9.01812 69.1705H7.48504V66.4474H9.01812V69.1705ZM10.8751 69.1705H9.3439V66.4474H10.877L10.8751 69.1705ZM12.7301 69.1705H11.197V66.4474H12.7301V69.1705ZM14.587 69.1705H13.0539V66.4474H14.587V69.1705ZM16.444 69.1705H14.9109V66.4474H16.444V69.1705ZM18.299 69.1705H16.7659V66.4474H18.299V69.1705ZM20.154 69.1705H18.6209V66.4474H20.154V69.1705ZM22.009 69.1705H20.4759V66.4474H22.009V69.1705Z" fill="#0E7A8B"/>
<path opacity="0.1" d="M3.44922 75.3258V78.4494H22.101V75.3258H3.44922ZM5.30807 78.2463H3.7865V75.5213H5.31957L5.30807 78.2463ZM7.16501 78.2463H5.63194V75.5213H7.16501V78.2463ZM9.01812 78.2463H7.48504V75.5213H9.01812V78.2463ZM10.8751 78.2463H9.3439V75.5213H10.877L10.8751 78.2463ZM12.7301 78.2463H11.197V75.5213H12.7301V78.2463ZM14.587 78.2463H13.0539V75.5213H14.587V78.2463ZM16.444 78.2463H14.9109V75.5213H16.444V78.2463ZM18.299 78.2463H16.7659V75.5213H18.299V78.2463ZM20.154 78.2463H18.6209V75.5213H20.154V78.2463ZM22.009 78.2463H20.4759V75.5213H22.009V78.2463Z" fill="#0E7A8B"/>
<path opacity="0.1" d="M3.44922 84.4016V87.5156H22.101V84.4016H3.44922ZM5.30807 87.3221H3.7865V84.5951H5.31957L5.30807 87.3221ZM7.16501 87.3221H5.63194V84.5951H7.16501V87.3221ZM9.01812 87.3221H7.48504V84.5951H9.01812V87.3221ZM10.8751 87.3221H9.3439V84.5951H10.877L10.8751 87.3221ZM12.7301 87.3221H11.197V84.5951H12.7301V87.3221ZM14.587 87.3221H13.0539V84.5951H14.587V87.3221ZM16.444 87.3221H14.9109V84.5951H16.444V87.3221ZM18.299 87.3221H16.7659V84.5951H18.299V87.3221ZM20.154 87.3221H18.6209V84.5951H20.154V87.3221ZM22.009 87.3221H20.4759V84.5951H22.009V87.3221Z" fill="#0E7A8B"/>
<path opacity="0.1" d="M3.52979 93.4755C3.60452 93.7687 3.68884 94.0619 3.77699 94.3512V93.6709H5.31007V96.396H4.48987C4.51479 96.4592 4.5397 96.5282 4.56461 96.5876H22.1011V93.4755H3.52979ZM7.17084 96.396H5.63776V93.6709H7.17084V96.396ZM9.02395 96.396H7.49087V93.6709H9.02395V96.396ZM10.8809 96.396H9.34398V93.6709H10.8771L10.8809 96.396ZM12.7359 96.396H11.2028V93.6709H12.7359V96.396ZM14.5928 96.396H13.0598V93.6709H14.5928V96.396ZM16.4498 96.396H14.9167V93.6709H16.4498V96.396ZM18.3048 96.396H16.7717V93.6709H18.3048V96.396ZM20.1598 96.396H18.6268V93.6709H20.1598V96.396ZM22.0148 96.396H20.4818V93.6709H22.0148V96.396Z" fill="#0E7A8B"/>
<path opacity="0.1" d="M7.86084 102.551C7.90875 102.613 7.95474 102.682 8.00457 102.743H9.01831V104.052C9.12754 104.182 9.23486 104.312 9.34601 104.435V102.735H10.8791V105.47H10.2582C10.3195 105.533 10.3789 105.6 10.4498 105.662H22.107V102.551H7.86084ZM12.7303 105.47H11.1972V102.747H12.7303V105.47ZM14.5872 105.47H13.0541V102.747H14.5872V105.47ZM16.4442 105.47H14.9111V102.747H16.4442V105.47ZM18.2992 105.47H16.7661V102.747H18.2992V105.47ZM20.1542 105.47H18.6211V102.747H20.1542V105.47ZM22.0092 105.47H20.4761V102.747H22.0092V105.47Z" fill="#0E7A8B"/>
<path opacity="0.1" d="M18.0923 111.625C18.2667 111.725 18.4449 111.817 18.625 111.916V111.821H20.1581V112.683L20.4839 112.834V111.821H22.017V113.478C22.0464 113.493 22.0772 113.504 22.1089 113.513V111.625H18.0923Z" fill="#0E7A8B"/>
<path opacity="0.1" d="M144.585 63.9906H144.596H144.585ZM132.78 120.55H132.972H132.78ZM120.464 91.7719C120.5 91.8945 120.531 92.0171 120.565 92.1379C120.535 92.0171 120.502 91.8945 120.464 91.7719ZM144.585 63.9848H144.596H144.585ZM28.8374 35.2895V36.1078H37.3977V35.2895H28.8374ZM132.78 120.55H132.972H132.78ZM120.464 91.7719C120.5 91.8945 120.531 92.0171 120.565 92.1379C120.535 92.0171 120.502 91.8945 120.464 91.7719ZM144.585 63.9848H144.596H144.585ZM132.78 120.544H132.972H132.78ZM120.464 91.7719C120.5 91.8945 120.531 92.0171 120.565 92.1379C120.535 92.0171 120.502 91.8945 120.464 91.7719Z" fill="#0E7A8B"/>
<path d="M88.4585 72.7579C88.4585 72.7579 87.7034 72.6525 87.7034 71.5525C87.7034 70.4525 87.163 68.3982 87.163 68.3982C87.163 68.3886 86.6954 64.8204 86.0496 64.2532C85.4038 63.6859 84.574 60.3553 84.574 60.3553C84.574 60.3553 84.4322 58.5482 84.1428 58.1592C83.8535 57.7702 83.4625 56.8177 82.8857 55.459C82.3089 54.1004 79.9039 53.1594 79.9039 53.1594C79.9039 53.1594 75.5557 50.6375 74.3235 49.8154C74.2115 49.7479 74.1068 49.6689 74.0111 49.5797C73.7965 49.298 72.8613 49.2922 72.8613 49.2922C72.7636 48.6752 72.6697 47.9661 72.639 47.3242C72.639 47.2552 72.639 47.1862 72.6294 47.1172C74.0034 46.305 75.0384 45.0245 75.5442 43.5106C75.5672 43.4378 75.5864 43.3612 75.6074 43.2883C75.6898 43.2612 75.7655 43.2172 75.8299 43.1591C75.8942 43.1011 75.9457 43.0302 75.9811 42.9511C76.0923 42.7039 76.0942 42.4145 76.2322 42.1845C76.3931 41.9124 76.6998 41.7668 76.9412 41.5617C77.5506 41.0443 77.7078 40.1724 77.679 39.379C77.6598 38.737 77.5564 38.0893 77.5966 37.4511L77.6081 37.2902C77.6196 37.1944 77.633 37.0985 77.6503 37.0066C77.7442 36.5313 77.9492 36.0829 78.0642 35.6115C78.1792 35.14 78.1907 34.6092 77.9224 34.2029C77.5295 33.607 76.7113 33.4881 75.9926 33.4268C75.1782 33.3578 74.45 33.4479 73.9287 32.7714C73.6848 32.4179 73.4103 32.0864 73.1085 31.7807C73.0012 31.681 71.9587 31.0448 71.9587 31.0026C70.9412 30.5314 69.788 30.4429 68.7105 30.7535C68.1701 30.9107 67.6604 31.1675 67.1123 31.2958C65.9299 31.5756 64.5693 31.2729 63.5651 31.9493C63.0056 32.3326 62.6702 32.942 62.3559 33.5361C62.1004 34.0254 61.8411 34.514 61.5779 35.0021C61.1544 35.805 60.7232 36.6214 60.545 37.5106C60.5075 37.704 60.4844 37.9001 60.476 38.097V38.1065C60.476 38.1774 60.476 38.2483 60.476 38.3193V38.4093C60.476 38.4764 60.476 38.5416 60.4875 38.601C60.499 38.6604 60.4971 38.6795 60.5028 38.7198C60.5086 38.76 60.5181 38.8501 60.5296 38.9114C60.5411 38.9727 60.5641 39.08 60.5871 39.1644C60.5967 39.2008 60.6101 39.2353 60.6216 39.2698C60.6408 39.3349 60.6638 39.3982 60.6887 39.4614C60.7021 39.494 60.7155 39.5285 60.7309 39.561C60.7596 39.6281 60.7941 39.6933 60.8286 39.7527C60.8439 39.7795 60.8554 39.8044 60.8708 39.8293C60.9242 39.9185 60.9831 40.0042 61.0471 40.0861C61.4571 40.5978 62.0608 40.9236 62.5073 41.4027C62.5073 41.4218 62.5073 41.441 62.5073 41.4582C62.5073 41.5119 62.5073 41.5636 62.5073 41.6173C62.531 42.6857 62.8154 43.7322 63.3357 44.6657C63.8561 45.5992 64.5966 46.3914 65.493 46.9735C65.493 47.0463 65.5026 47.121 65.5064 47.1938C65.5438 47.7627 65.5367 48.3336 65.4853 48.9013C65.4073 48.8094 65.3096 48.7362 65.1995 48.6871C65.0893 48.638 64.9696 48.6143 64.8491 48.6177C64.7667 48.6137 64.6842 48.6208 64.6038 48.6388L64.5865 48.6254V48.6426C64.1649 48.7461 63.6456 49.1849 63.1493 50.4325C63.1493 50.4325 61.6392 52.1342 60.4894 52.0633C59.3396 51.9924 56.4287 53.834 56.4287 53.834C56.4287 53.834 53.5886 55.6775 52.9792 57.5555C52.6386 58.6205 52.2302 59.6625 51.7566 60.6753L48.2459 67.9095L47.5981 73.649C47.5981 73.649 47.9565 76.2016 47.8856 76.5906C47.8147 76.9796 49.3593 80.4884 49.3593 80.4884C49.3593 80.4884 54.4625 89.455 56.5475 89.9149L56.697 89.8095C56.7862 89.8561 56.8808 89.8915 56.9787 89.9149L57.4079 89.6122C57.4337 89.9496 57.4228 90.2889 57.3753 90.624C57.0879 91.5093 57.4827 97.2871 57.9847 98.4197C58.4868 99.5522 58.3086 114.402 58.3086 114.402L58.2377 115.713C58.2377 115.713 58.2377 115.755 58.2549 115.828L58.2377 116.138L58.2894 116.165C58.3432 116.581 58.3257 117.003 58.2377 117.413C58.0576 117.987 57.9847 119.613 57.9847 119.613C57.9847 119.613 56.5494 128.788 57.2297 130.632C57.91 132.475 58.4887 134.495 58.4887 134.495C58.4887 134.495 59.2074 136.795 58.5232 137.187C57.8391 137.58 55.894 138.239 56.2945 139.198C56.6586 140.083 58.0403 142.455 58.2454 142.802L58.2281 142.984L57.9464 146.037C57.992 146.44 58.1013 146.833 58.2703 147.202C58.5788 147.867 59.1786 148.557 60.3188 148.482C60.5105 148.469 60.7328 148.446 60.9474 148.417C63.0343 148.137 65.6041 147.206 65.6041 147.206C65.4707 147.121 65.3484 147.02 65.24 146.905C65.1374 146.806 65.0562 146.687 65.0011 146.555C64.9461 146.423 64.9185 146.281 64.92 146.139C64.9507 145.583 63.9101 142.934 63.6514 142.283C63.6111 142.189 63.59 142.135 63.59 142.135C63.59 142.135 65.9625 139.656 65.5677 137.458C65.5677 137.458 62.9423 135.924 63.8066 135.083C64.6709 134.242 66.2154 131.825 66.2154 131.825C66.2154 131.825 66.2863 122.79 66.2154 121.441C66.1415 120.504 66.1859 119.562 66.3477 118.637C66.3764 118.497 66.4109 118.361 66.4473 118.227C67.6426 118.405 68.8492 118.497 70.0577 118.501C70.4985 118.501 70.9469 118.501 71.3992 118.474C71.3992 118.602 71.4049 118.74 71.4164 118.888C71.516 121.126 71.7019 125.051 71.8533 126.509C72.068 128.6 73.2542 134.234 73.2542 134.234C73.2542 134.234 70.991 135.687 73.6489 139.267C73.6489 139.267 73.6489 140.564 73.4726 140.752C73.2844 141.366 73.1328 141.99 73.0185 142.622C72.9073 143.297 72.8613 143.979 73.0415 144.333C73.4726 145.18 76.0597 145.111 76.0597 145.111L76.1229 145.1C76.6113 145.049 77.1049 145.096 77.575 145.238C78.0451 145.38 78.4824 145.614 78.8614 145.926C79.8445 146.715 83.5756 146.369 85.5954 146.118C86.3869 146.018 86.9158 145.926 86.9158 145.926C86.9414 145.836 86.9505 145.743 86.9426 145.65C86.9215 145.154 86.5325 144.065 83.8956 143.094C83.8956 143.094 81.4159 141.426 81.4504 139.974H81.3986H81.1112C81.3201 139.962 81.4542 139.974 81.4542 139.974C81.4542 139.974 80.4826 136.428 80.8793 136.141C81.276 135.854 80.0879 131.925 80.0879 131.925C80.0879 131.925 79.4076 125.333 79.3711 124.871C79.3727 124.475 79.4327 124.081 79.5494 123.702L79.3711 120.088C79.3711 120.088 79.3367 118.886 79.3711 118.495C79.3653 118.156 79.3378 117.817 79.2887 117.482C79.2715 117.347 79.2542 117.208 79.2351 117.07C80.1645 116.834 80.7682 116.615 80.7682 116.615L80.6608 104.035C81.4504 102.501 81.596 99.1383 81.5922 96.7525C81.5922 95.2194 81.5232 94.0849 81.5232 94.0849L82.6021 92.3238C82.6021 92.3238 82.8512 90.2158 82.4565 89.754C82.2821 89.5451 82.3606 89.3285 82.5044 89.1503C82.579 89.0911 82.6578 89.0373 82.7401 88.9893C82.7401 88.9893 82.7286 88.9721 82.7152 88.9472C82.7905 88.8842 82.8706 88.8272 82.9547 88.7766C82.9547 88.7766 82.5714 88.1826 82.9145 87.9315C83.2364 88.15 83.5239 88.3148 83.7423 88.4489C83.727 88.5888 83.7117 88.6693 83.7117 88.6693L83.8036 88.4777C84.0144 88.5965 84.1428 88.6693 84.1428 88.6693C84.1428 88.6693 85.8331 85.3023 85.7966 84.806C85.7602 84.3096 86.9465 82.2189 86.9465 82.2189C86.9465 82.2189 87.0902 81.1208 87.7379 80.6609C88.3856 80.201 88.24 76.8685 88.24 76.8685C88.24 76.8685 88.4201 75.1322 88.8513 74.4232C89.2825 73.7142 88.4585 72.7579 88.4585 72.7579ZM56.1182 71.2804L56.1508 72.0833C55.9592 71.7748 55.8212 71.5525 55.8212 71.5525L56.1182 71.2804Z" fill="url(#paint0_linear)"/>
<path d="M84.2349 87.2148L83.821 88.9778C83.821 88.9778 80.5057 87.2857 79.9078 85.1356C79.3099 82.9854 80.9082 82.1691 80.9082 82.1691L83.9973 83.4779L84.2349 87.2148Z" fill="white"/>
<path opacity="0.1" d="M84.2349 87.2148L83.821 88.9778C83.821 88.9778 80.5057 87.2857 79.9078 85.1356C79.3099 82.9854 80.9082 82.1691 80.9082 82.1691L83.9973 83.4779L84.2349 87.2148Z" fill="black"/>
<path d="M65.629 147.217C65.629 147.217 62.5628 148.344 60.4549 148.486C59.3357 148.561 58.7474 147.875 58.4446 147.214C58.2792 146.846 58.1725 146.455 58.1284 146.054L58.4025 143.017L58.5481 141.399L63.0266 140.236L63.6609 142.176L63.7203 142.323C63.9752 142.971 64.9966 145.606 64.9659 146.156C64.9647 146.297 64.9919 146.436 65.0459 146.566C65.0999 146.696 65.1796 146.814 65.2802 146.913C65.3831 147.029 65.5003 147.131 65.629 147.217Z" fill="white"/>
<path d="M86.5727 145.673C86.5804 145.765 86.5713 145.858 86.5459 145.947C86.5459 145.947 79.9881 147.041 78.6467 145.947C78.2685 145.627 77.8276 145.39 77.3524 145.251C76.8772 145.112 76.3781 145.073 75.8872 145.138C75.8872 145.138 73.3499 145.207 72.9264 144.372C72.7501 144.021 72.7961 143.341 72.9053 142.67C73.0168 142.042 73.1652 141.42 73.3499 140.809L73.4515 140.729L74.0551 140.244L81.1226 140.035H81.1763C81.1418 141.48 83.5755 143.138 83.5755 143.138C86.1607 144.096 86.542 145.178 86.5727 145.673Z" fill="white"/>
<path opacity="0.1" d="M86.5727 145.673C86.5794 145.765 86.5697 145.858 86.5439 145.947C86.5439 145.947 79.9881 147.041 78.6467 145.947C78.2687 145.628 77.8281 145.391 77.3533 145.251C76.8784 145.112 76.3797 145.074 75.889 145.138C75.889 145.138 73.3499 145.207 72.9283 144.372C72.752 144.019 72.7961 143.341 72.9053 142.67C73.8826 142.768 75.4253 143.011 76.0309 143.592C76.9469 144.475 78.4991 145.357 79.4515 145.426C80.197 145.474 84.6563 145.615 86.5727 145.673Z" fill="black"/>
<path opacity="0.1" d="M65.6287 147.217C65.6287 147.217 62.5626 148.344 60.4546 148.486C59.3355 148.561 58.7472 147.875 58.4463 147.212C59.2262 147.474 60.309 147.75 60.8781 147.497C61.5527 147.198 63.9443 147.005 65.2857 146.922C65.3878 147.034 65.503 147.133 65.6287 147.217Z" fill="black"/>
<path d="M70.1786 56.4114C67.649 55.4284 64.3951 52.1802 65.2076 50.6624C65.388 50.2794 65.4953 49.8661 65.5238 49.4436C65.5761 48.8702 65.5837 48.2936 65.5468 47.7189C65.4898 46.7778 65.3765 45.841 65.2076 44.9134C65.2076 44.9134 73.1049 45.0916 72.6449 46.2548C72.5108 46.5959 72.4897 47.1881 72.5261 47.8511C72.5625 48.5142 72.6583 49.2635 72.758 49.8978C72.896 50.7678 73.034 51.4309 73.034 51.4309C73.034 51.4309 72.551 52.1073 72.2674 52.1438C71.9838 52.1802 73.8082 57.8123 70.1786 56.4114Z" fill="#CF6F80"/>
<path opacity="0.1" d="M63.7148 142.323L63.6554 142.388C61.2945 139.533 58.4391 143.092 58.4391 143.092L58.397 143.017L58.5426 141.399L63.0211 140.236L63.6554 142.176L63.7148 142.323Z" fill="black"/>
<path opacity="0.1" d="M81.1782 140.236C81.1782 140.236 79.4535 140.2 78.5337 141.012C77.6138 141.825 73.1679 141.189 73.3595 141.012C73.4163 140.925 73.4505 140.825 73.4592 140.721L74.0628 140.236L81.1303 140.027C81.1571 140.156 81.1782 140.236 81.1782 140.236Z" fill="black"/>
<path d="M66.6524 117.813C66.524 118.131 66.4264 118.46 66.3612 118.796C66.2013 119.717 66.1569 120.654 66.2289 121.586C66.2998 122.928 66.2289 131.917 66.2289 131.917C66.2289 131.917 64.7131 134.315 63.868 135.16C63.0229 136.005 65.5927 137.523 65.5927 137.523C65.976 139.707 63.6534 142.176 63.6534 142.176C61.2924 139.32 58.4371 142.881 58.4371 142.881C58.4371 142.881 56.8848 140.198 56.4977 139.24C56.1106 138.282 58.0136 137.618 58.6824 137.229C59.3512 136.84 58.6498 134.547 58.6498 134.547C58.6498 134.547 58.0845 132.536 57.4137 130.702C56.743 128.868 58.1535 119.739 58.1535 119.739C58.1535 119.739 58.2263 118.118 58.4007 117.552C58.4886 117.144 58.5062 116.724 58.4524 116.311C58.4409 116.171 58.4275 116.054 58.4179 115.975C58.4083 115.897 58.4007 115.86 58.4007 115.86L58.4275 115.814L59.3857 114.028C59.3857 114.028 67.1124 116.688 66.6524 117.813Z" fill="#0E7A8B"/>
<path d="M81.1782 140.025C81.1782 140.025 79.4535 139.989 78.5337 140.792C77.6138 141.595 73.1679 140.968 73.3595 140.792C73.5512 140.616 73.5359 139.311 73.5359 139.311C70.9277 135.75 73.1526 134.305 73.1526 134.305C73.1526 134.305 71.9874 128.7 71.7766 126.621C71.6291 125.168 71.447 121.264 71.3493 119.036C71.3071 118.078 71.2822 117.418 71.2822 117.418L73.4132 116.989L73.6872 116.933L78.8269 115.902C78.8269 115.902 78.9687 116.861 79.0645 117.644C79.1123 117.979 79.1392 118.316 79.145 118.654C79.1105 119.038 79.145 120.237 79.145 120.237L79.3194 123.834C79.2054 124.212 79.1467 124.603 79.145 124.997C79.1795 125.455 79.8483 132.013 79.8483 132.013C79.8483 132.013 81.0115 135.926 80.6148 136.208C80.2181 136.49 81.1782 140.025 81.1782 140.025Z" fill="#0E7A8B"/>
<path opacity="0.1" d="M72.6449 46.2548C72.5107 46.5959 72.4896 47.1881 72.526 47.8511C71.4682 48.4881 70.2522 48.8138 69.0176 48.7908C67.783 48.7677 66.58 48.3969 65.5467 47.7208C65.4898 46.7791 65.3766 45.8416 65.2075 44.9134C65.2075 44.9134 73.1048 45.0878 72.6449 46.2548Z" fill="black"/>
<path d="M75.6976 42.0197C75.6991 42.7102 75.5904 43.3966 75.3756 44.0529C74.8955 45.5235 73.911 46.7769 72.5961 47.5918C71.2811 48.4066 69.7205 48.7304 68.19 48.5059C66.6594 48.2814 65.2575 47.523 64.232 46.3649C63.2065 45.2067 62.6235 43.7233 62.5859 42.1768C62.5859 42.1232 62.5859 42.0733 62.5859 42.0197C62.571 41.1492 62.7296 40.2845 63.0525 39.4759C63.3753 38.6674 63.8559 37.9312 64.4662 37.3104C65.0765 36.6895 65.8044 36.1964 66.6073 35.8598C67.4102 35.5232 68.2721 35.3499 69.1427 35.3499C70.0133 35.3499 70.8752 35.5232 71.6781 35.8598C72.481 36.1964 73.2088 36.6895 73.8192 37.3104C74.4295 37.9312 74.9101 38.6674 75.2329 39.4759C75.5557 40.2845 75.7144 41.1492 75.6995 42.0197H75.6976Z" fill="#CF6F80"/>
<path opacity="0.1" d="M70.1786 56.4115C67.649 55.4284 64.3951 52.1802 65.2076 50.6624C65.388 50.2794 65.4953 49.8661 65.5238 49.4436L68.9866 52.2894L71.1291 54.0467L72.758 49.8997C72.896 50.7697 73.034 51.4328 73.034 51.4328C73.034 51.4328 72.551 52.1093 72.2674 52.1457C71.9838 52.1821 73.8082 57.8123 70.1786 56.4115Z" fill="black"/>
<path d="M79.1334 68.9884L76.2417 117.568L72.4703 117.815L62.7046 89.6466L64.3067 56.2045L64.6439 49.1389L68.9864 52.7052L71.1308 54.4625L72.8076 50.1948L75.9255 52.9122L79.1334 68.9884Z" fill="#0E7A8B"/>
<path opacity="0.1" d="M66.6527 117.813C66.5242 118.131 66.4267 118.46 66.3614 118.796C63.6172 118.372 60.952 117.54 58.4546 116.326L58.4028 116.299L58.4201 115.991L58.4297 115.83L59.3878 114.044C59.3878 114.044 67.1126 116.688 66.6527 117.813Z" fill="black"/>
<path opacity="0.1" d="M73.4571 118.804C72.7555 118.923 72.048 119.004 71.3376 119.045C71.2954 118.087 71.2705 117.428 71.2705 117.428L73.4015 116.999L73.4571 118.804Z" fill="black"/>
<path opacity="0.1" d="M79.053 117.654C77.6905 118.009 75.5864 118.407 73.7026 118.158L73.6758 116.943L78.8154 115.912C78.8154 115.912 78.9572 116.861 79.053 117.654Z" fill="black"/>
<path opacity="0.1" d="M73.6681 118.38C65.8111 119.722 58.6152 115.876 58.6152 115.876L58.6842 114.573C58.6842 114.573 58.8624 99.7994 58.368 98.6669C57.8736 97.5343 57.4884 91.791 57.7682 90.9095C58.048 90.028 56.7468 76.809 56.7468 76.809L56.536 71.4433L48.8208 68.3177L52.2702 61.1276C52.7361 60.1195 53.1368 59.0825 53.4699 58.0231C54.0697 56.1566 56.8541 54.3226 56.8541 54.3226C56.8541 54.3226 59.7095 52.4906 60.8382 52.5596C61.9669 52.6286 63.4463 50.9384 63.4463 50.9384C64.5387 48.1539 65.5275 49.4149 65.5275 49.4149C65.5275 49.5471 65.5275 49.4149 65.4738 49.8269C65.0906 52.8835 71.6713 62.5418 71.7652 62.7124L72.3918 77.978L73.0262 97.2967L73.6681 118.38Z" fill="black"/>
<path d="M73.4576 118.38C65.6006 119.722 58.4028 115.876 58.4028 115.876L58.4737 114.573C58.4737 114.573 58.6519 99.7994 58.1556 98.6668C57.6592 97.5343 57.276 91.791 57.5577 90.9095C57.8394 90.028 56.5362 76.809 56.5362 76.809L56.3235 71.4433L48.6045 68.3062L52.0539 61.1161C52.5188 60.1076 52.9195 59.0707 53.2535 58.0116C53.8514 56.1451 56.6378 54.3111 56.6378 54.3111C56.6378 54.3111 59.4932 52.4791 60.62 52.5481C61.7468 52.6171 63.2281 50.9269 63.2281 50.9269C64.3224 48.1424 65.5277 49.4034 65.5277 49.4034C65.5277 49.5356 65.4128 49.595 65.4741 49.8154C66.3173 52.78 71.4607 62.5303 71.5546 62.7009L72.189 77.9665L72.8233 97.2852L73.4576 118.38Z" fill="white"/>
<path opacity="0.1" d="M71.3396 63.1359C70.4945 62.7833 66.0179 57.6724 66.0179 57.6724V56.5092C65.855 56.1259 64.8873 56.3597 64.1016 56.628L64.4388 49.5624L64.8221 49.8806C65.6615 52.8432 71.2419 62.9654 71.3396 63.1359Z" fill="black"/>
<path d="M71.5525 62.7124C70.7054 62.3598 66.2288 57.2489 66.2288 57.2489V56.0857C66.066 55.7024 65.0982 55.9362 64.3125 56.2045L64.6517 49.1389L65.035 49.457C65.8762 52.4197 71.4586 62.5438 71.5525 62.7124Z" fill="white"/>
<path opacity="0.1" d="M58.6153 88.2017C58.7207 88.2017 64.0788 87.6383 64.0788 87.6383C64.0788 87.6383 67.3231 94.0178 67.1104 95.5701C66.8977 97.1223 66.5125 98.4963 65.2075 98.2529C63.9025 98.0096 58.1841 98.4446 58.1841 98.4446L58.6153 88.2017Z" fill="black"/>
<path d="M58.4029 87.7782C58.5083 87.7782 63.8663 87.2148 63.8663 87.2148C63.8663 87.2148 67.1088 93.5962 66.898 95.1466C66.6872 96.6969 66.2982 98.0728 64.9951 97.8294C63.692 97.5861 57.9717 98.0211 57.9717 98.0211L58.4029 87.7782Z" fill="white"/>
<path d="M62.4403 84.7829C62.4403 84.7829 67.3577 87.4256 67.4631 88.2323C67.5685 89.0391 64.9603 87.8797 64.3969 87.7398C64.0261 87.6505 63.6486 87.5915 63.2682 87.5635L59.5103 87.6651L62.4403 84.7829Z" fill="#CF6F80"/>
<path opacity="0.1" d="M69.9676 63.4655C70.2534 63.4655 70.485 63.2339 70.485 62.9481C70.485 62.6624 70.2534 62.4307 69.9676 62.4307C69.6818 62.4307 69.4502 62.6624 69.4502 62.9481C69.4502 63.2339 69.6818 63.4655 69.9676 63.4655Z" fill="black"/>
<path d="M69.9676 63.2547C70.2534 63.2547 70.485 63.0231 70.485 62.7373C70.485 62.4516 70.2534 62.2199 69.9676 62.2199C69.6818 62.2199 69.4502 62.4516 69.4502 62.7373C69.4502 63.0231 69.6818 63.2547 69.9676 63.2547Z" fill="#3F3D56"/>
<path opacity="0.1" d="M70.9202 85.8637C71.206 85.8637 71.4377 85.6321 71.4377 85.3463C71.4377 85.0606 71.206 84.8289 70.9202 84.8289C70.6345 84.8289 70.4028 85.0606 70.4028 85.3463C70.4028 85.6321 70.6345 85.8637 70.9202 85.8637Z" fill="black"/>
<path d="M70.9202 85.651C71.206 85.651 71.4377 85.4194 71.4377 85.1336C71.4377 84.8479 71.206 84.6162 70.9202 84.6162C70.6345 84.6162 70.4028 84.8479 70.4028 85.1336C70.4028 85.4194 70.6345 85.651 70.9202 85.651Z" fill="#3F3D56"/>
<path opacity="0.1" d="M70.4832 74.6646C70.769 74.6646 71.0007 74.433 71.0007 74.1472C71.0007 73.8615 70.769 73.6298 70.4832 73.6298C70.1975 73.6298 69.9658 73.8615 69.9658 74.1472C69.9658 74.433 70.1975 74.6646 70.4832 74.6646Z" fill="black"/>
<path d="M70.4832 74.4538C70.769 74.4538 71.0007 74.2222 71.0007 73.9364C71.0007 73.6507 70.769 73.419 70.4832 73.419C70.1975 73.419 69.9658 73.6507 69.9658 73.9364C69.9658 74.2222 70.1975 74.4538 70.4832 74.4538Z" fill="#3F3D56"/>
<path d="M82.4104 87.4562C82.4104 87.4562 82.763 87.9852 82.4104 88.2324C82.0578 88.4796 82.4449 89.0775 82.4449 89.0775C82.4449 89.0775 81.5653 89.593 81.9524 90.0567C82.3395 90.5205 82.0942 92.615 82.0942 92.615L81.0364 94.3666C81.0364 94.3666 81.0996 95.4953 81.1035 97.0207C81.1035 99.4008 80.9636 102.747 80.1894 104.272L80.2967 116.788C80.2967 116.788 76.5924 118.141 73.4917 117.729L73.0318 97.6455C73.0318 97.6455 73.7025 86.2566 73.9497 84.072C74.0944 82.9378 74.1533 81.7943 74.126 80.6513C74.126 80.6513 74.0206 77.2325 73.6661 75.6458C73.6661 75.6458 73.2829 68.7719 73.2445 66.869C73.2273 65.9587 73.2752 63.3026 73.3289 60.7769C73.3883 58.0154 73.4553 55.4111 73.4553 55.4111L72.7559 49.8767C72.7559 49.8767 73.4553 49.8058 73.6661 50.0875C73.7605 50.1757 73.8632 50.2547 73.9727 50.3232C75.18 51.1396 79.4458 53.65 79.4458 53.65C79.4458 53.65 81.8068 54.589 82.3721 55.9343C82.9374 57.2796 83.3303 58.2339 83.6043 58.6172C83.8783 59.0004 84.0278 60.8018 84.0278 60.8018C84.0278 60.8018 84.8403 64.1171 85.4746 64.6786C86.109 65.2401 86.5727 68.8121 86.5727 68.8121L80.9674 73.2197C80.9674 73.2197 80.4749 80.5517 80.3695 80.8353C80.2641 81.1189 82.4104 87.4562 82.4104 87.4562Z" fill="white"/>
<path d="M82.6234 87.4563C82.6234 87.4563 82.9741 87.9852 82.6234 88.2324C82.2727 88.4796 82.6559 89.0775 82.6559 89.0775C82.6559 89.0775 81.7821 89.5987 82.1653 90.0625C82.5486 90.5262 82.3072 92.6208 82.3072 92.6208L81.2493 94.3723C81.2493 94.3723 81.3126 95.5011 81.3183 97.0265C81.3183 99.4066 81.1784 102.753 80.4042 104.278L80.5096 116.794C80.5096 116.794 76.7996 118.147 73.7028 117.735L73.2448 97.6512C73.2448 97.6512 73.9155 86.2624 74.1627 84.0777C74.3075 82.9436 74.3658 81.8001 74.3371 80.6571C74.3371 80.6571 74.2317 77.2383 73.8791 75.6516C73.8791 75.6516 73.4958 68.7776 73.4556 66.8747C73.4383 65.9644 73.4881 63.3084 73.5399 60.7826C73.5993 58.0212 73.6664 55.4169 73.6664 55.4169L72.7427 49.8077C72.7427 49.8077 73.6664 49.8077 73.8791 50.0933C73.9726 50.1825 74.0754 50.2615 74.1857 50.329C75.393 51.1453 79.6607 53.6558 79.6607 53.6558C79.6607 53.6558 82.0197 54.5948 82.585 55.94C83.1504 57.2853 83.5432 58.2397 83.8192 58.6229C84.0951 59.0062 84.2407 60.8076 84.2407 60.8076C84.2407 60.8076 85.0533 64.1228 85.6876 64.6843C86.3219 65.2458 86.7799 68.8102 86.7799 68.8102L81.1746 73.2178C81.1746 73.2178 80.6821 80.5497 80.5748 80.8334C80.4675 81.117 82.6234 87.4563 82.6234 87.4563Z" fill="white"/>
<path opacity="0.1" d="M75.9101 57.0439L76.416 58.5194L73.7523 61.2023C73.8117 58.4428 73.8788 55.8366 73.8788 55.8366L72.9551 50.2274C72.9551 50.2274 73.8788 50.2274 74.0915 50.513C74.1847 50.602 74.2876 50.6804 74.3981 50.7467L76.6632 57.2815L75.9101 57.0439Z" fill="black"/>
<path d="M75.6977 56.6203L76.2055 58.0959L73.5418 60.7788C73.6012 58.0174 73.6683 55.413 73.6683 55.413L72.7427 49.8039C72.7427 49.8039 73.6683 49.8039 73.8791 50.0894C73.9731 50.1781 74.0758 50.2571 74.1857 50.3251L76.4527 56.858L75.6977 56.6203Z" fill="white"/>
<path opacity="0.1" d="M75.6976 42.0197C75.6991 42.7103 75.5904 43.3966 75.3756 44.0529C75.3394 44.0586 75.3024 44.0569 75.2669 44.048C75.2313 44.0391 75.1979 44.0232 75.1686 44.0012C75.1188 42.2765 74.2699 40.6572 73.2255 39.2793C72.9322 38.8633 72.5768 38.4949 72.1715 38.187C71.7617 37.8793 71.2521 37.7351 70.7419 37.7826C70.167 37.8612 69.6591 38.2522 69.0785 38.302C68.312 38.3652 67.6259 37.8344 66.8651 37.8076C66.5558 37.8105 66.2507 37.8794 65.9702 38.0096C65.6896 38.1398 65.4401 38.3283 65.2381 38.5626C64.8385 39.0354 64.5415 39.5862 64.3662 40.18C64.0649 41.0804 63.9008 42.021 63.8795 42.9702C63.8699 43.5068 63.8181 44.1794 63.3199 44.3749C63.3574 43.9803 63.3125 43.5822 63.1882 43.2058C63.0638 42.8294 62.8627 42.4829 62.5974 42.1883L62.5859 42.1768C62.5859 42.1232 62.5859 42.0733 62.5859 42.0197C62.571 41.1492 62.7296 40.2845 63.0525 39.4759C63.3753 38.6674 63.8559 37.9312 64.4662 37.3104C65.0765 36.6895 65.8044 36.1964 66.6073 35.8598C67.4102 35.5232 68.2721 35.3499 69.1427 35.3499C70.0133 35.3499 70.8752 35.5232 71.6781 35.8598C72.481 36.1964 73.2088 36.6895 73.8192 37.3104C74.4295 37.9312 74.9101 38.6674 75.2329 39.4759C75.5557 40.2845 75.7144 41.1492 75.6995 42.0197H75.6976Z" fill="black"/>
<path d="M71.8572 31.6082C70.8613 31.1398 69.7287 31.0512 68.6722 31.3591C68.1414 31.5162 67.6412 31.7711 67.1027 31.8995C65.9529 32.1774 64.6114 31.8765 63.6245 32.5491C63.0765 32.9324 62.7468 33.538 62.4402 34.1263L61.6737 35.5865C61.2559 36.3857 60.8343 37.1982 60.6599 38.0778C60.4856 38.9574 60.591 39.9424 61.1486 40.6495C61.5549 41.165 62.1547 41.4889 62.5955 41.9737C62.8595 42.2686 63.0598 42.6149 63.1838 42.9908C63.3078 43.3667 63.3528 43.7642 63.316 44.1583C63.8162 43.9667 63.8641 43.2922 63.8756 42.7556C63.8969 41.8064 64.061 40.8658 64.3623 39.9654C64.5372 39.3714 64.8342 38.8206 65.2343 38.348C65.4363 38.1139 65.6859 37.9255 65.9665 37.7953C66.247 37.6651 66.552 37.5961 66.8612 37.5929C67.6278 37.6198 68.3157 38.1487 69.0746 38.0854C69.6495 38.0375 70.1593 37.6447 70.738 37.568C71.2483 37.5198 71.7582 37.664 72.1676 37.9724C72.5727 38.2798 72.9277 38.6483 73.2197 39.0647C74.266 40.4426 75.1149 42.058 75.1648 43.7866C75.3813 43.9456 75.6937 43.7387 75.801 43.4934C75.9083 43.2481 75.9121 42.9606 76.0482 42.7268C76.2053 42.4566 76.5062 42.3129 76.7419 42.1098C77.3398 41.5943 77.4893 40.7262 77.4663 39.9386C77.4433 39.1509 77.29 38.3518 77.4395 37.5776C77.5295 37.1024 77.7327 36.6578 77.8438 36.1883C77.955 35.7188 77.9684 35.1918 77.7058 34.7874C77.3226 34.1934 76.5158 34.0765 75.8125 34.0209C75.0134 33.9519 74.2986 34.04 73.7888 33.3674C73.5496 33.0164 73.2803 32.6868 72.984 32.3824C72.8824 32.2828 71.8572 31.6504 71.8572 31.6082Z" fill="#512E4E"/>
<path opacity="0.1" d="M51.0285 72.0201L49.0259 68.3177L48.3916 74.0303C48.3916 74.0303 48.7442 76.5676 48.6733 76.9566C48.6024 77.3456 50.1182 80.8333 50.1182 80.8333C50.1182 80.8333 55.1256 89.752 57.1704 90.2119L64.0788 85.2754L62.2468 82.949C62.2468 82.949 61.6125 82.7018 61.4534 82.949C61.4534 82.949 58.0519 77.0965 57.6993 76.673C57.3467 76.2494 57.4157 75.4043 57.4157 75.4043C57.4157 75.4043 56.8868 74.8409 57.0631 74.312C57.2394 73.7831 56.0416 71.9492 56.0416 71.9492L57.134 70.9277L51.0285 72.0201Z" fill="black"/>
<path d="M49.131 67.8961L48.6021 68.3177L47.9678 74.0303C47.9678 74.0303 48.3204 76.5676 48.2495 76.9566C48.1786 77.3456 49.6963 80.8334 49.6963 80.8334C49.6963 80.8334 54.7018 89.752 56.7466 90.212L63.6569 85.2755L61.823 82.949C61.823 82.949 61.1886 82.7018 61.0296 82.949C61.0296 82.949 57.6281 77.0965 57.2755 76.673C56.9229 76.2495 56.9938 75.4044 56.9938 75.4044C56.9938 75.4044 56.4649 74.841 56.6412 74.312C56.8175 73.7831 55.6178 71.9492 55.6178 71.9492L56.7101 70.9278L49.131 67.8961Z" fill="white"/>
<path opacity="0.1" d="M81.9526 90.2752C82.3359 90.7409 82.0944 92.8316 82.0944 92.8316L81.0366 94.5831C81.0366 94.5831 81.0998 95.7138 81.1037 97.2373L79.3253 97.793C79.1646 97.8432 78.9942 97.8542 78.8283 97.8252C78.6625 97.7961 78.506 97.7278 78.3719 97.626C78.2378 97.5242 78.13 97.3918 78.0575 97.2398C77.985 97.0878 77.9499 96.9207 77.9551 96.7524L78.2617 86.8622L82.4106 88.4489C82.058 88.6942 82.4451 89.2959 82.4451 89.2959C82.4451 89.2959 81.5655 89.8095 81.9526 90.2752Z" fill="black"/>
<path d="M82.1649 90.0625C82.5482 90.5282 82.3067 92.6208 82.3067 92.6208L81.2489 94.3724C81.2489 94.3724 81.3121 95.5011 81.3179 97.0265L79.507 97.5918C79.3496 97.6407 79.1827 97.6513 79.0204 97.6228C78.8581 97.5942 78.7049 97.5272 78.5737 97.4275C78.4425 97.3278 78.337 97.1981 78.266 97.0494C78.195 96.9006 78.1605 96.7371 78.1655 96.5723L78.474 86.6514L82.6248 88.2381C82.2703 88.4834 82.6574 89.0832 82.6574 89.0832C82.6574 89.0832 81.7816 89.5987 82.1649 90.0625Z" fill="white"/>
<path d="M83.5394 85.3483C83.5394 85.3483 83.2576 87.1477 82.5524 87.2531C81.8472 87.3585 81.531 90.164 80.8277 90.0644C80.1244 89.9647 80.5901 87.4562 80.615 86.9695C80.6399 86.4827 79.8484 84.4667 80.4406 84.0087C81.0327 83.5507 82.9069 84.0087 82.9069 84.0087L83.5394 85.3483Z" fill="#CF6F80"/>
<path opacity="0.1" d="M85.0397 71.4912L86.3697 68.8083C86.3697 68.8083 86.8986 70.853 86.8986 71.9453C86.8986 73.0377 87.6383 73.145 87.6383 73.145C87.6383 73.145 88.4489 74.1031 88.0215 74.8007C87.5942 75.4982 87.4217 77.2345 87.4217 77.2345C87.4217 77.2345 87.5616 80.5478 86.9273 81.0058C86.293 81.4638 86.1608 82.5581 86.1608 82.5581C86.1608 82.5581 84.9956 84.6373 85.032 85.1317C85.0685 85.6261 83.4108 88.974 83.4108 88.974C83.4108 88.974 84.2214 84.8136 79.4976 83.0161C79.4976 83.0161 79.4612 81.6037 79.8138 81.2166C80.1665 80.8295 80.7164 80.6532 80.3715 78.6966C80.0266 76.74 80.2719 74.4021 80.2719 73.9326C80.2719 73.4631 81.3297 70.5349 81.3297 70.5349L85.0397 71.4912Z" fill="black"/>
<path d="M85.6143 68.425L86.7756 68.8083C86.7756 68.8083 87.3065 70.853 87.3065 71.9453C87.3065 73.0377 88.0462 73.145 88.0462 73.145C88.0462 73.145 88.8568 74.1031 88.4294 74.8007C88.0021 75.4982 87.8315 77.2345 87.8315 77.2345C87.8315 77.2345 87.9714 80.5478 87.3371 81.0058C86.7028 81.4638 86.561 82.5581 86.561 82.5581C86.561 82.5581 85.3978 84.6373 85.4342 85.1317C85.4706 85.6261 83.8111 88.974 83.8111 88.974C83.8111 88.974 84.6236 84.8136 79.8979 83.0161C79.8979 83.0161 79.8634 81.6037 80.216 81.2166C80.5686 80.8295 81.1186 80.6532 80.7737 78.6966C80.4287 76.74 80.674 74.4021 80.674 73.9326C80.674 73.4631 81.7318 70.5349 81.7318 70.5349L85.6143 68.425Z" fill="white"/>
<path opacity="0.1" d="M59.9644 137.963C59.9644 137.963 61.8155 136.8 63.0305 137.645C64.2455 138.49 59.9644 137.963 59.9644 137.963Z" fill="black"/>
<path opacity="0.1" d="M74.3481 134.366C74.3481 134.366 75.9866 134.156 77.3626 135.637C78.7385 137.118 74.3481 134.366 74.3481 134.366Z" fill="black"/>
<g opacity="0.1">
<path opacity="0.1" d="M76.7458 41.6901C76.5101 41.8932 76.2073 42.0389 76.0502 42.3091C75.9161 42.541 75.9122 42.8265 75.8049 43.0756C75.6976 43.3248 75.3852 43.5279 75.1687 43.3708C75.1189 41.646 74.268 40.0267 73.2236 38.647C72.9316 38.2306 72.5767 37.8621 72.1715 37.5546C71.7614 37.2463 71.2509 37.1021 70.74 37.1503C70.1651 37.2289 69.6592 37.6198 69.0785 37.6677C68.312 37.7329 67.624 37.202 66.8632 37.1752C66.5541 37.1783 66.2491 37.2474 65.9688 37.378C65.6886 37.5085 65.4394 37.6975 65.2382 37.9322C64.8381 38.404 64.5411 38.9543 64.3662 39.5476C64.0651 40.4481 63.901 41.3886 63.8795 42.3378C63.868 42.8725 63.8181 43.5394 63.3237 43.7387C63.3352 43.8803 63.3352 44.0225 63.3237 44.1641C63.822 43.9725 63.8718 43.2979 63.8833 42.7614C63.9047 41.8121 64.0688 40.8715 64.3701 39.9712C64.545 39.3772 64.8419 38.8263 65.242 38.3538C65.4437 38.1197 65.693 37.9313 65.9732 37.8011C66.2534 37.6709 66.5581 37.6019 66.8671 37.5987C67.6336 37.6255 68.3235 38.1545 69.0824 38.0912C69.6573 38.0433 70.167 37.6505 70.7438 37.5738C71.2547 37.5256 71.7652 37.6698 72.1753 37.9782C72.5805 38.2856 72.9354 38.6541 73.2274 39.0705C74.2718 40.4483 75.1227 42.0638 75.1725 43.7924C75.3891 43.9514 75.7014 43.7444 75.8087 43.4992C75.916 43.2539 75.9199 42.9664 76.054 42.7326C76.2112 42.4624 76.514 42.3187 76.7497 42.1155C77.3476 41.6 77.497 40.7319 77.474 39.9443C77.474 39.9194 77.474 39.8945 77.474 39.8715C77.4376 40.5537 77.2556 41.2494 76.7458 41.6901Z" fill="black"/>
<path opacity="0.1" d="M62.5996 41.5541C62.1588 41.0692 61.5571 40.7454 61.1527 40.2318C60.8123 39.7771 60.6178 39.2298 60.5951 38.6623C60.5348 39.3715 60.7328 40.0786 61.1527 40.6534C61.5571 41.1689 62.1588 41.4927 62.5996 41.9776C63.0228 42.4518 63.2769 43.053 63.3221 43.687C63.3514 43.3011 63.3025 42.9133 63.1784 42.5468C63.0542 42.1803 62.8574 41.8426 62.5996 41.5541Z" fill="black"/>
<path opacity="0.1" d="M77.8479 35.7686C77.7349 36.2381 77.5337 36.6846 77.4417 37.1579C77.3872 37.4742 77.3673 37.7955 77.3823 38.1161C77.3887 37.9335 77.4085 37.7516 77.4417 37.5719C77.5337 37.0966 77.7349 36.652 77.8479 36.1825C77.9138 35.9236 77.9352 35.6553 77.9112 35.3892C77.8993 35.517 77.8781 35.6438 77.8479 35.7686Z" fill="black"/>
</g>
<path opacity="0.1" d="M25.4356 145.755C35.7483 145.755 44.1084 144.413 44.1084 142.756C44.1084 141.1 35.7483 139.757 25.4356 139.757C15.1228 139.757 6.7627 141.1 6.7627 142.756C6.7627 144.413 15.1228 145.755 25.4356 145.755Z" fill="#0E7A8B"/>
<path d="M26.0375 85.3042H24.8359V112.357H26.0375V85.3042Z" fill="#535461"/>
<path d="M33.5879 112.275L33.5132 113.494L33.4059 115.218L33.3618 115.935L33.2564 117.66L33.2104 118.376L33.1031 120.101L31.8919 139.661C31.8393 140.503 31.4679 141.293 30.8535 141.87C30.239 142.448 29.4276 142.769 28.5843 142.77H22.2872C21.4442 142.769 20.633 142.448 20.0188 141.87C19.4046 141.293 19.0337 140.503 18.9815 139.661L17.7761 120.088L17.6688 118.363L17.6248 117.646L17.5174 115.922L17.4734 115.205L17.366 113.48L17.2894 112.261C17.2761 112.027 17.3108 111.792 17.3915 111.571C17.4722 111.351 17.5971 111.149 17.7586 110.978C17.9201 110.808 18.1148 110.672 18.3307 110.579C18.5466 110.486 18.7791 110.439 19.0141 110.439H31.8939C32.1279 110.441 32.3591 110.491 32.5731 110.586C32.7871 110.681 32.9794 110.818 33.1382 110.99C33.2969 111.162 33.4187 111.365 33.4961 111.586C33.5734 111.807 33.6047 112.041 33.5879 112.275Z" fill="#3F3D56"/>
<path d="M33.5132 113.494L33.4059 115.213H17.4657L17.3584 113.494H33.5132Z" fill="#9D9CB5"/>
<path d="M33.3618 115.929L33.2564 117.65H17.6171L17.5098 115.929H33.3618Z" fill="#9D9CB5"/>
<path d="M33.2104 118.369L33.105 120.088H17.7684L17.6611 118.369H33.2104Z" fill="#9D9CB5"/>
<path d="M15.5242 95.4436C22.5208 100.507 25.4413 108.425 25.4413 108.425C25.4413 108.425 17.0094 108.136 10.0109 103.073C3.01242 98.0096 0.0976562 90.0931 0.0976562 90.0931C0.0976562 90.0931 8.52574 90.3806 15.5242 95.4436Z" fill="#0E7A8B"/>
<path d="M0.0917969 90.0931C0.0917969 90.0931 8.84566 94.9511 11.6531 98.9735C14.4606 102.996 25.4412 108.425 25.4412 108.425" stroke="#535461" stroke-width="2" stroke-miterlimit="10"/>
<path d="M20.0415 85.2448C23.8492 87.9986 25.4417 92.3084 25.4417 92.3084C25.4417 92.3084 20.8521 92.1513 17.0424 89.3975C13.2327 86.6437 11.644 82.332 11.644 82.332C11.644 82.332 16.2318 82.4891 20.0415 85.2448Z" fill="#0E7A8B"/>
<path d="M11.644 82.332C11.644 82.332 16.4081 84.9765 17.9354 87.165C19.4627 89.3534 25.4417 92.3084 25.4417 92.3084" stroke="#535461" stroke-width="2" stroke-miterlimit="10"/>
<path d="M30.97 92.0899C26.595 96.8981 25.6694 103.182 25.6694 103.182C25.6694 103.182 31.8381 101.668 36.2093 96.8578C40.5805 92.0478 41.5099 85.766 41.5099 85.766C41.5099 85.766 35.3451 87.2818 30.97 92.0899Z" fill="#0E7A8B"/>
<path d="M41.5138 85.7679C41.5138 85.7679 35.8146 90.6968 34.3658 94.0925C32.9171 97.4883 25.6694 103.182 25.6694 103.182" stroke="#535461" stroke-width="2" stroke-miterlimit="10"/>
<path d="M191.571 90.3978C191.571 90.3978 188.407 74.657 189.618 72.6985C189.618 72.6985 189.662 70.878 189.589 68.5573C189.589 68.4691 189.589 68.381 189.589 68.2909C189.803 68.433 190.025 68.561 190.254 68.6742C191.37 69.2475 192.651 69.4128 193.876 69.1417L192.918 68.0743C192.688 67.8195 192.449 67.5435 192.399 67.2062C192.349 66.869 192.487 66.5681 192.606 66.2672C193.516 63.9676 193.564 61.0758 191.811 59.3205C190.329 57.8449 189.969 55.94 188.361 54.5929C187.186 53.6059 186.541 52.1591 185.931 50.7602C185.416 49.5778 184.896 48.3858 184.601 47.1325C184.371 46.1533 184.279 45.1395 183.963 44.1833C183.647 43.227 183.055 42.2976 182.129 41.8702C181.8 41.7188 181.434 41.6326 181.133 41.4314C180.738 41.165 180.5 40.7319 180.215 40.3525C178.764 38.4361 173.906 39.5649 171.607 40.3429C170.981 40.5388 170.402 40.8596 169.905 41.2858L169.926 41.2513C169.943 41.2225 169.964 41.1938 169.983 41.165C169.732 41.3686 169.514 41.6112 169.339 41.8837C169.004 42.4145 168.864 43.0335 168.584 43.6084C168.247 44.2887 166.371 46.1878 167.178 46.9524C167.234 47.0037 167.299 47.0452 167.369 47.075C167.672 47.2011 168.006 47.2344 168.328 47.1708L168.293 47.2532C168.018 47.9279 167.876 48.6498 167.877 49.3785C167.877 52.527 170.474 55.0796 173.68 55.0796C174.283 55.0802 174.882 54.9878 175.456 54.8056C175.47 54.8784 175.481 54.9512 175.495 55.024C175.495 55.0528 175.504 55.0815 175.508 55.1103L175.407 55.2521C175.402 55.2433 175.396 55.235 175.389 55.2272L172.381 59.4316C171.921 59.7555 169.272 61.6718 169.123 63.1091C168.966 64.6824 168.809 66.524 168.809 66.524L168.788 66.9188C168.656 67.0287 168.502 67.1087 168.337 67.1534C168.171 67.198 167.998 67.2063 167.829 67.1775C166.89 67.0242 166.89 70.6269 166.89 70.6269C166.89 70.6269 166.266 71.2018 165.836 70.7036C165.407 70.2053 164.273 71.8936 164.273 71.8936L157.163 72.2002L157 72.2098L156.617 71.0236C156.576 70.8985 156.487 70.7947 156.369 70.7348C156.252 70.6748 156.116 70.6636 155.99 70.7036C155.961 70.7133 155.932 70.7255 155.904 70.74L155.877 70.7553L155.827 70.7898L155.802 70.8128C155.789 70.8253 155.776 70.8387 155.764 70.853L155.741 70.8799L155.73 70.8914C155.685 70.9525 155.656 71.0232 155.644 71.0978C155.632 71.1723 155.638 71.2487 155.661 71.3206L155.99 72.3382C154.618 72.6142 153.215 73.3922 154.359 75.5347L148.561 74.4634L150.437 76.0387L160.122 78.0374C159.993 78.2674 160.078 78.6008 160.478 79.0703C162.203 81.0959 165.346 81.6459 166.611 81.7877C166.945 82.5349 167.362 83.242 167.854 83.8957L167.745 85.9136C167.745 85.9136 164.543 101.294 163.956 102.074C164.252 101.739 164.523 101.382 164.767 101.007C163.838 104.167 162.538 108.492 162.197 109.14C161.649 110.175 161.141 114.362 161.766 114.63C161.958 114.712 162.506 114.672 163.288 114.613V114.96L163.253 128.104C163.253 128.104 163.41 136.166 162.979 136.934C162.548 137.703 162.433 139.314 162.433 139.314C162.433 139.314 160.708 142.494 159.342 143.772C159.333 143.782 159.322 143.791 159.311 143.799L159.269 143.5C159.269 143.5 157.627 145.573 153.993 145.456C153.993 145.456 151.807 146.878 155.049 146.955C158.292 147.032 162.433 146.84 162.433 146.84C162.433 146.84 165.325 142.432 167.747 143.007V146.347H168.489V142.954C168.833 142.727 169.127 142.433 169.354 142.09C169.581 141.746 169.736 141.36 169.809 140.955C169.872 140.537 169.826 140.11 169.674 139.716C169.522 139.322 169.27 138.974 168.943 138.707C168.796 138.574 168.678 138.412 168.596 138.231C168.515 138.051 168.472 137.855 168.469 137.657L168.443 137.68C168.443 137.613 168.425 137.544 168.418 137.473C168.205 135.748 167.939 132.19 168.88 129.556C170.169 125.946 170.56 120.918 169.621 117.924C169.318 116.967 169.069 115.994 168.876 115.009C168.853 114.885 168.832 114.766 168.812 114.655C169.454 114.742 170.09 114.87 170.715 115.038C172.89 115.638 177.649 115.749 181.711 115.717C181.721 115.828 181.732 115.945 181.746 116.062C181.818 116.874 181.97 117.678 182.198 118.461C182.708 119.994 182.942 126.753 182.942 126.753C182.942 126.753 183.599 132.31 183.241 134.572C183.049 135.829 182.857 137.092 182.748 138.36V138.385C182.748 138.385 181.671 141.451 180.884 143.117C180.864 143.159 180.843 143.201 180.824 143.241C180.614 143.26 180.407 143.306 180.209 143.377C180.209 143.377 179.153 145.485 178.101 145.834C177.049 146.183 177.398 147.331 179.78 146.909C182.162 146.487 185.759 146.142 185.759 146.142L185.914 143.992L186.646 143.076L186.454 145.221L187.234 145.067L187.131 142.459L188.329 140.961C188.329 140.961 189.775 139.673 187.625 137.139V137.195C187.602 137.159 187.581 137.12 187.556 137.084V137.072C187.2 136.52 186.916 135.491 187.436 133.665C188.375 130.365 188.921 127.37 188.921 127.37C188.921 127.37 191.017 119.346 188.497 115.55H188.608C188.35 115.016 188.168 114.448 188.066 113.863C188.053 113.795 188.042 113.724 188.032 113.651C189.896 113.543 191.726 113.206 193.219 112.478C193.213 112.47 192.315 93.4295 191.571 90.3978ZM167.898 77.1176V77.1559L167.515 77.1751L167.898 77.1176ZM166.584 77.2996C166.521 77.3136 166.462 77.3418 166.411 77.382C166.247 77.6152 166.143 77.886 166.11 78.1696L165.513 78.0355C165.513 78.0355 165.093 77.9454 164.489 77.8439L164.204 77.5564C164.989 77.4913 165.806 77.3954 166.584 77.2996Z" fill="url(#paint1_linear)"/>
<path d="M186.367 142.486L186.139 145.201L186.903 145.048L186.788 142.103L186.367 142.486Z" fill="#1D2366"/>
<path d="M168.922 129.593C168.001 132.218 168.261 135.762 168.468 137.482C168.545 138.119 168.616 138.506 168.616 138.506C168.616 138.506 167.238 141.645 167.123 141.764C167.008 141.882 163.068 144.287 163.068 144.287L160.314 145.895C160.314 145.895 157.52 144.671 158.86 144.249C159.133 144.139 159.38 143.971 159.582 143.757C160.923 142.482 162.608 139.314 162.608 139.314C162.608 139.314 162.723 137.707 163.145 136.942C163.566 136.177 163.413 128.142 163.413 128.142L163.445 115.044V113.336L168.687 113.375C168.72 113.954 168.795 114.531 168.913 115.1C169.101 116.081 169.345 117.051 169.643 118.005C170.566 120.992 170.183 125.996 168.922 129.593Z" fill="#FFB0B1"/>
<path opacity="0.1" d="M168.616 138.506C168.616 138.506 167.238 141.645 167.123 141.764C167.008 141.882 163.068 144.287 163.068 144.287L160.314 145.895C160.314 145.895 157.52 144.671 158.86 144.249C159.133 144.139 159.38 143.971 159.582 143.757L159.701 144.594L160.619 144.556L168.476 137.486C168.545 138.119 168.616 138.506 168.616 138.506Z" fill="black"/>
<path d="M168.52 137.664L160.618 144.782L159.7 144.82L159.509 143.479C159.509 143.479 157.903 145.545 154.335 145.43C154.335 145.43 152.192 146.846 155.368 146.922C158.543 146.999 162.598 146.807 162.598 146.807C162.598 146.807 165.43 142.4 167.801 142.975V146.303H168.529V142.944C168.868 142.716 169.157 142.422 169.379 142.08C169.601 141.737 169.751 141.353 169.821 140.951C169.884 140.537 169.839 140.113 169.691 139.721C169.543 139.329 169.297 138.982 168.976 138.713C168.832 138.578 168.718 138.416 168.639 138.236C168.561 138.055 168.52 137.861 168.52 137.664Z" fill="#1D2366"/>
<path d="M187.095 133.686C186.585 135.507 186.863 136.532 187.212 137.082V137.093C187.659 137.772 187.97 138.532 188.128 139.33L188.158 139.502L184.563 144.743L182.612 145.51C182.612 145.51 179.475 144.439 180.048 144.132C180.192 144.057 180.416 143.659 180.673 143.109C181.44 141.451 182.498 138.393 182.498 138.393V138.368C182.609 137.105 182.785 135.846 182.98 134.593C183.331 132.337 182.687 126.801 182.687 126.801C182.687 126.801 182.457 120.069 181.959 118.537C181.734 117.759 181.585 116.961 181.513 116.154C181.409 115.195 181.386 114.406 181.386 114.406C181.386 114.406 183.452 111.531 187.239 114.636C187.541 114.883 187.808 115.172 188.03 115.494C190.646 119.216 188.54 127.414 188.54 127.414C188.54 127.414 188.013 130.396 187.095 133.686Z" fill="#FFB0B1"/>
<path opacity="0.1" d="M188.164 139.502L184.569 144.743L182.618 145.51C182.618 145.51 179.481 144.439 180.054 144.132C180.198 144.057 180.422 143.659 180.679 143.109C182.007 143.097 182.695 144.362 182.695 144.362L184.378 144.094C184.378 144.094 186.597 139.732 187.095 139.466C187.593 139.199 187.172 137.475 187.172 137.475V137.036C187.185 137.051 187.197 137.068 187.212 137.084V137.095C187.659 137.774 187.97 138.534 188.128 139.332L188.164 139.502Z" fill="black"/>
<path d="M182.81 144.475C182.81 144.475 181.852 142.716 180.016 143.366C180.016 143.366 178.983 145.474 177.95 145.815C176.917 146.156 177.262 147.306 179.596 146.886C181.93 146.466 185.449 146.119 185.449 146.119L185.602 143.975L187.974 140.953C187.974 140.953 189.389 139.671 187.285 137.147V137.586C187.285 137.586 187.706 139.311 187.208 139.577C186.71 139.843 184.498 144.207 184.498 144.207L182.81 144.475Z" fill="#1D2366"/>
<path opacity="0.1" d="M168.692 113.371C168.725 113.951 168.801 114.527 168.918 115.096C166.761 114.779 164.758 114.937 163.445 115.04V113.333L168.692 113.371Z" fill="black"/>
<path opacity="0.1" d="M188.243 115.971C188.243 115.971 185.176 116.121 181.52 116.152C181.417 115.193 181.394 114.404 181.394 114.404C181.394 114.404 183.459 111.529 187.246 114.634C187.549 114.881 187.815 115.17 188.037 115.492C188.097 115.656 188.165 115.816 188.243 115.971Z" fill="black"/>
<path d="M188.243 115.626C188.243 115.626 174.813 116.276 170.719 115.128C166.626 113.98 162.569 114.975 161.958 114.709C161.347 114.442 161.843 110.27 162.38 109.237C162.916 108.204 165.86 97.7585 165.86 97.7585L168.692 82.9911L171.676 82.169L171.887 82.1096L177.086 80.6762L180.895 79.6241C180.895 79.6241 188.471 109.199 187.821 111.38C187.585 112.215 187.547 113.094 187.71 113.946C187.809 114.528 187.988 115.094 188.243 115.626Z" fill="#1D2366"/>
<path d="M158.819 72.892C158.819 72.892 156.136 75.7665 158.167 77.3686C160.199 78.9706 161.534 77.5219 161.534 77.5219L158.819 72.892Z" fill="#C7DAF5"/>
<path opacity="0.1" d="M158.819 72.892C158.819 72.892 156.136 75.7665 158.167 77.3686C160.199 78.9706 161.534 77.5219 161.534 77.5219L158.819 72.892Z" fill="black"/>
<path d="M180.495 53.993C180.495 53.993 180.181 54.292 179.707 54.7327C179.033 55.3632 178.034 56.285 177.149 57.0573C175.922 58.1247 174.911 58.9085 175.273 58.2397C175.635 57.5709 175.566 56.4057 175.386 55.3153C175.372 55.2425 175.361 55.1697 175.348 55.0988C175.198 54.2979 175.001 53.507 174.755 52.7302C174.755 52.7302 176.737 50.1699 177.833 49.16C178.241 48.7767 178.527 48.6196 178.544 48.886C178.563 49.2443 178.831 50.0358 179.165 50.8751C179.174 50.902 179.184 50.9269 179.196 50.9537C179.418 51.5286 179.669 52.1188 179.889 52.6286C180.227 53.4105 180.495 53.993 180.495 53.993Z" fill="#FFB0B1"/>
<path opacity="0.1" d="M179.196 50.9537C179.009 51.9553 178.558 52.8884 177.887 53.6557C177.217 54.4229 176.353 54.9961 175.386 55.3153C175.233 54.4405 175.023 53.5769 174.755 52.7302C174.755 52.7302 178.486 47.9106 178.544 48.886C178.557 49.2558 178.849 50.076 179.196 50.9537Z" fill="black"/>
<path opacity="0.1" d="M175.014 56.6031L175.497 55.9228C175.497 55.9228 175.817 57.8736 176.994 57.0132C178.17 56.1528 178.228 63.4885 178.228 63.4885L176.965 82.3703L167.839 81.8241L168.098 72.7004L169.131 68.1012L171.685 61.415L173.205 59.2055L175.014 56.6031Z" fill="black"/>
<path d="M178.228 63.6054L177.078 80.6781L176.957 82.4872L171.87 82.1825L171.678 82.171L167.845 81.941L168.104 72.8154L169.137 68.2161L171.691 61.53L173.211 59.3205L175.02 56.7085L175.503 56.0301C175.503 56.0301 175.823 57.9809 177 57.1205L177.025 57.1032C178.174 56.375 178.228 63.6054 178.228 63.6054Z" fill="#1D2366"/>
<path d="M169.265 66.6179C169.265 66.6179 168.807 67.5761 167.887 67.4209C166.967 67.2656 166.969 70.8703 166.969 70.8703C166.969 70.8703 166.358 71.4452 165.936 70.9469C165.514 70.4487 164.403 72.1332 164.403 72.1332L157.439 72.4398C157.439 72.4398 160.538 73.856 159.93 78.1409C159.93 78.1409 170.451 77.4893 170.796 76.4948C171.141 75.5002 169.265 66.6179 169.265 66.6179Z" fill="white"/>
<path opacity="0.03" d="M169.265 66.6179C169.265 66.6179 168.807 67.5761 167.887 67.4209C166.967 67.2656 166.969 70.8703 166.969 70.8703C166.969 70.8703 166.358 71.4452 165.936 70.9469C165.514 70.4487 164.403 72.1332 164.403 72.1332L157.439 72.4398C157.439 72.4398 160.538 73.856 159.93 78.1409C159.93 78.1409 170.451 77.4893 170.796 76.4948C171.141 75.5002 169.265 66.6179 169.265 66.6179Z" fill="black"/>
<path d="M149.026 74.6915L150.862 76.259L165.975 79.4344L164.1 77.5219L149.026 74.6915Z" fill="white"/>
<path d="M175.043 57.2067C174.792 57.59 174.073 59.5523 173.473 61.2655C172.973 62.6932 172.555 63.9484 172.555 63.9484C172.555 63.9484 171.58 70.2992 171.082 71.4471C170.584 72.595 170.854 77.0716 170.854 77.0716L168.997 88.127C168.997 88.127 168.156 93.8281 166.856 97.2334C165.574 100.585 164.147 102.157 164.103 102.206C164.677 101.428 167.811 86.109 167.811 86.109L168.845 66.7885C168.845 66.7885 168.997 64.9526 169.15 63.3831C169.303 61.8136 172.408 59.6712 172.408 59.6712L175.401 55.4149C175.702 55.8174 175.501 56.5188 175.043 57.2067Z" fill="white"/>
<path d="M167.238 82.0368C167.238 82.0368 162.83 81.8452 160.695 79.2811C158.56 76.7171 165.63 78.2578 165.63 78.2578L167.467 78.6794L167.238 82.0368Z" fill="#FFB0B1"/>
<path opacity="0.1" d="M187.821 111.382C187.585 112.217 187.547 113.095 187.71 113.948C182.902 114.289 177.758 112.99 177.758 112.99C176.8 113.871 174.276 115.17 174.276 115.17L172.9 98.1149C172.021 95.8153 171.676 83.7673 171.676 83.7673C171.676 83.7673 171.754 83.1368 171.867 82.192C171.867 82.169 171.867 82.1441 171.877 82.1211C172.22 79.4823 172.9 74.5286 173.234 73.8598C173.694 72.9399 171.82 70.4927 171.82 70.4927L172.672 63.2202L172.776 62.3425C174.573 61.5396 175.951 58.9755 175.951 58.9755L177.009 57.1224C178.159 56.3846 178.218 63.615 178.218 63.615L177.068 80.6877L180.878 79.6356C180.878 79.6356 188.471 109.201 187.821 111.382Z" fill="black"/>
<path d="M192.756 112.56C187.514 115.163 177.988 112.752 177.988 112.752C177.03 113.634 174.506 114.933 174.506 114.933L173.128 97.8773C172.251 95.5777 171.906 83.5296 171.906 83.5296C171.906 83.5296 173.013 74.5401 173.473 73.6221C173.607 73.3539 173.542 72.9553 173.383 72.526C172.601 70.4828 172.314 68.2837 172.544 66.1082L172.912 62.9826L173.013 62.1068C174.813 61.302 176.191 58.7379 176.191 58.7379L177.149 57.0592L178.912 53.9662L179.747 52.5021L179.889 52.6305L180.972 53.6117C180.972 53.6117 181.432 53.9949 182.122 54.5698C183.622 55.8346 186.215 58.0614 187.553 59.4239C188.729 60.6236 189.101 65.2899 189.208 68.8025C189.279 71.1156 189.237 72.9284 189.237 72.9284C188.051 74.8812 191.154 90.5588 191.154 90.5588C191.876 93.5885 192.756 112.56 192.756 112.56Z" fill="white"/>
<path opacity="0.03" d="M182.695 58.6996C182.695 58.6996 179.098 65.5467 179.516 68.1491C179.933 70.7515 181.121 73.6969 180.549 74.3849C180.352 74.6455 180.097 74.8571 179.805 75.003C179.513 75.149 179.191 75.2253 178.864 75.2261C178.289 75.2645 176.756 76.3357 176.756 76.4507C176.756 76.5657 175.34 76.5657 174.073 77.1022C172.806 77.6388 170.936 77.9435 170.936 77.9435C170.936 77.9435 167.295 77.8285 166.956 78.1735C166.617 78.5184 166.268 80.5823 166.994 82.2285C167.72 83.8746 168.527 85.103 169.137 85.3272C169.746 85.5514 173.613 84.256 176.75 83.9493C179.887 83.6427 183.293 81.1572 183.293 81.1572C183.293 81.1572 187.043 79.8158 187.7 77.5602C188.358 75.3047 186.897 62.9079 186.897 62.9079C186.897 62.9079 185.794 57.1301 182.695 58.6996Z" fill="black"/>
<path opacity="0.03" d="M182.235 58.1247C182.235 58.1247 178.638 64.9737 179.059 67.5742C179.481 70.1747 180.665 73.122 180.09 73.8119C179.894 74.0728 179.64 74.2846 179.348 74.4306C179.056 74.5766 178.734 74.6528 178.408 74.6532C177.833 74.6915 176.3 75.7627 176.3 75.8777C176.3 75.9927 174.884 75.9927 173.617 76.5273C172.35 77.062 170.48 77.3686 170.48 77.3686C170.48 77.3686 166.839 77.2536 166.501 77.5986C166.164 77.9435 165.812 80.0093 166.54 81.6536C167.268 83.2978 168.073 84.5281 168.682 84.7523C169.292 84.9765 173.159 83.6811 176.296 83.3764C179.433 83.0717 182.838 80.5823 182.838 80.5823C182.838 80.5823 186.587 79.2409 187.236 76.9873C187.886 74.7336 186.433 62.333 186.433 62.333C186.433 62.333 185.333 56.5571 182.235 58.1247Z" fill="black"/>
<path d="M182.582 58.3546C182.582 58.3546 178.985 65.2037 179.406 67.8041C179.828 70.4046 181.012 73.352 180.439 74.0399C180.243 74.3015 179.989 74.5138 179.696 74.6601C179.404 74.8065 179.082 74.8828 178.755 74.8831C178.18 74.9214 176.647 75.9927 176.647 76.1057C176.647 76.2188 175.232 76.2207 173.964 76.7573C172.695 77.2939 170.827 77.5986 170.827 77.5986C170.827 77.5986 167.186 77.4836 166.847 77.8285C166.507 78.1735 166.159 80.2393 166.885 81.8835C167.611 83.5277 168.418 84.758 169.027 84.9823C169.637 85.2065 173.504 83.911 176.641 83.6044C179.778 83.2978 183.183 80.8123 183.183 80.8123C183.183 80.8123 186.934 79.4708 187.591 77.2153C188.248 74.9598 186.798 62.5629 186.798 62.5629C186.798 62.5629 185.678 56.7947 182.582 58.3546Z" fill="white"/>
<path opacity="0.1" d="M182.503 76.7247C182.503 76.7247 179.629 76.1498 180.629 77.108C181.629 78.0661 181.623 78.9055 182.848 78.8672C184.073 78.8288 182.503 76.7247 182.503 76.7247Z" fill="black"/>
<path opacity="0.1" d="M187.361 97.3408C187.361 97.3408 186.062 98.2204 188.547 100.248C191.033 102.275 187.361 97.3408 187.361 97.3408Z" fill="black"/>
<path opacity="0.1" d="M184.881 104.571C184.881 104.686 184.422 108.787 186.142 109.812C187.863 110.838 184.881 104.571 184.881 104.571Z" fill="black"/>
<path d="M157.558 72.4302C156.171 72.4781 153.174 72.9016 154.728 75.801C156.102 78.367 158.411 76.6519 159.71 75.3507C159.393 74.1375 158.623 73.0922 157.558 72.4302Z" fill="#FFB0B1"/>
<path d="M159.728 75.3277L159.785 75.2683L159.728 75.3277Z" fill="#FFB0B1"/>
<path opacity="0.1" d="M182.122 54.6867C180.65 55.6928 179.416 56.5418 179.175 56.7181C178.516 57.2067 177.258 60.0755 176.448 61.5396C175.802 62.7181 173.704 63.0209 172.912 63.0957L173.014 62.2199C174.813 61.415 176.191 58.851 176.191 58.851L179.748 52.6152L180.972 53.7286C180.972 53.7286 181.432 54.1118 182.122 54.6867Z" fill="black"/>
<path d="M182.122 54.5718C180.65 55.5778 179.416 56.4268 179.175 56.605C178.516 57.0918 177.258 59.9605 176.448 61.4246C175.802 62.6032 173.704 62.9059 172.912 62.9807L173.014 62.1049C174.813 61.3 176.191 58.736 176.191 58.736L179.748 52.5002L180.972 53.6097C180.972 53.6097 181.432 53.9892 182.122 54.5718Z" fill="#DCE7FF"/>
<path d="M179.29 49.6889C179.29 50.8393 178.942 51.9627 178.289 52.9103C177.519 54.0306 176.373 54.8377 175.058 55.1851C173.743 55.5325 172.348 55.3972 171.125 54.8037C169.901 54.2102 168.931 53.1978 168.391 51.9503C167.85 50.7028 167.774 49.3028 168.178 48.0043C168.581 46.7058 169.436 45.5949 170.588 44.8731C171.741 44.1513 173.113 43.8664 174.458 44.0702C175.802 44.274 177.029 44.953 177.915 45.9838C178.802 47.0147 179.289 48.3293 179.29 49.6889Z" fill="#FFB0B1"/>
<path opacity="0.1" d="M189.208 68.8045C188.43 68.3257 187.796 67.6449 187.374 66.8344C187.054 66.2021 186.842 65.4719 186.295 65.0235C185.803 64.6211 185.146 64.5233 184.532 64.3432C182.516 63.7472 180.826 61.9075 180.763 59.8072C180.732 58.8184 181.041 57.8315 180.901 56.8522C180.821 56.298 180.601 55.7734 180.261 55.3287C180.092 55.116 179.907 54.9167 179.707 54.7327C179.439 54.4798 179.157 54.2345 178.912 53.9662C178.757 53.8001 178.622 53.6168 178.509 53.42C178.418 53.259 178.344 53.0888 178.289 52.9122C177.906 51.7394 178.254 50.3481 177.833 49.1619L177.81 49.0968C177.651 48.6752 177.327 48.2536 176.877 48.221C176.426 48.1884 176.041 48.5621 175.612 48.7288C174.713 49.0776 173.743 48.4835 172.994 47.878C172.245 47.2724 171.4 46.5806 170.447 46.7147C169.817 46.8048 169.318 47.2341 168.738 47.4564C168.607 47.5071 168.471 47.5462 168.333 47.5733C168.825 46.3478 169.728 45.3317 170.887 44.6995C172.046 44.0674 173.389 43.8587 174.686 44.1092C175.982 44.3598 177.15 45.054 177.991 46.0726C178.831 47.0911 179.29 48.3705 179.289 49.6908C179.29 50.0895 179.248 50.4872 179.165 50.877C179.174 50.9039 179.184 50.9288 179.195 50.9556C179.418 51.5305 179.669 52.1207 179.889 52.6305L180.972 53.6117C180.972 53.6117 181.432 53.9949 182.122 54.5698C183.622 55.8346 186.215 58.0614 187.552 59.4239C188.729 60.6274 189.097 65.2918 189.208 68.8045Z" fill="black"/>
<path d="M168.671 43.9552C168.945 43.3975 169.081 42.7728 169.409 42.2439C169.89 41.4774 170.729 40.9868 171.592 40.6898C173.843 39.9136 178.602 38.7868 180.023 40.6898C180.303 41.073 180.535 41.4984 180.922 41.7629C181.217 41.9641 181.574 42.0504 181.898 42.2017C182.804 42.6272 183.383 43.5547 183.691 44.5014C184 45.448 184.092 46.4637 184.318 47.4391C184.607 48.6905 185.115 49.8767 185.621 51.0553C186.217 52.4465 186.849 53.8895 187.999 54.8726C189.569 56.2141 189.916 58.1132 191.372 59.5849C193.097 61.3326 193.041 64.2167 192.152 66.5068C192.035 66.8076 191.903 67.1219 191.949 67.4419C191.995 67.762 192.233 68.0532 192.457 68.3081L193.4 69.3717C191.169 69.9102 188.645 68.745 187.606 66.7003C187.286 66.0679 187.074 65.3397 186.526 64.8894C186.035 64.4869 185.376 64.3911 184.765 64.211C182.749 63.6131 181.058 61.7715 180.995 59.6712C180.964 58.6842 181.273 57.6973 181.133 56.72C181.055 56.162 180.834 55.6338 180.491 55.1869C179.964 54.4989 179.169 54.0371 178.74 53.2706C178.013 51.9885 178.565 50.3232 178.042 48.9473C177.881 48.5257 177.559 48.1041 177.109 48.0715C176.658 48.0389 176.273 48.4126 175.842 48.5793C174.945 48.9281 173.975 48.336 173.226 47.7285C172.477 47.121 171.632 46.4311 170.677 46.5672C170.047 46.6553 169.551 47.0846 168.97 47.3088C168.541 47.4736 167.671 47.6212 167.295 47.259C166.502 46.5289 168.34 44.6374 168.671 43.9552Z" fill="#591D4B"/>
<path opacity="0.1" d="M188.139 66.0679C187.817 65.4355 187.606 64.7073 187.058 64.2589C186.568 63.8564 185.908 63.7587 185.295 63.5786C183.281 62.9826 181.591 61.141 181.526 59.0407C181.495 58.0538 181.804 57.0649 181.666 56.0876C181.585 55.5332 181.364 55.0087 181.024 54.5641C180.495 53.8761 179.699 53.4143 179.272 52.6477C178.546 51.3676 179.098 49.7023 178.573 48.3245C178.414 47.9048 178.09 47.4832 177.641 47.4487C177.193 47.4142 176.804 47.7917 176.375 47.9584C175.478 48.3072 174.506 47.7132 173.759 47.1076C173.011 46.502 172.162 45.8102 171.21 45.9444C170.58 46.0344 170.081 46.4637 169.503 46.686C169.073 46.8508 168.201 47.0003 167.826 46.6381C167.036 45.8715 168.874 43.9839 169.204 43.3056C169.478 42.746 169.614 42.1232 169.943 41.5943C169.961 41.5655 169.98 41.5368 169.999 41.508C169.752 41.7123 169.54 41.9542 169.368 42.2247C169.041 42.7536 168.905 43.3745 168.631 43.936C168.299 44.6144 166.461 46.5078 167.253 47.2686C167.636 47.6327 168.498 47.4832 168.928 47.3184C169.503 47.0942 170.005 46.6649 170.635 46.5768C171.593 46.4407 172.436 47.1325 173.184 47.7381C173.931 48.3436 174.909 48.9377 175.802 48.5889C176.231 48.4222 176.606 48.0466 177.066 48.0811C177.526 48.1156 177.833 48.5353 178 48.9569C178.523 50.3328 177.971 51.9981 178.697 53.2801C179.126 54.0333 179.922 54.5047 180.449 55.1965C180.792 55.6434 181.013 56.1716 181.091 56.7296C181.231 57.7069 180.922 58.6938 180.953 59.6807C181.016 61.7887 182.706 63.6227 184.722 64.2206C185.33 64.4007 185.993 64.4965 186.483 64.8989C187.033 65.3493 187.25 66.0775 187.564 66.7099C188.603 68.7546 191.127 69.9198 193.357 69.3813L192.913 68.8792C190.979 68.9079 189.022 67.808 188.139 66.0679Z" fill="black"/>
<path opacity="0.1" d="M174.928 57.3217C174.677 57.705 173.958 59.6673 173.358 61.3805C172.797 61.1621 172.287 59.7689 172.287 59.7689L175.28 55.5108C175.587 55.9324 175.386 56.6318 174.928 57.3217Z" fill="black"/>
<path d="M175.043 57.2067C174.792 57.59 174.073 59.5523 173.473 61.2655C172.912 61.049 172.402 59.6539 172.402 59.6539L175.395 55.3977C175.702 55.8174 175.501 56.5188 175.043 57.2067Z" fill="#DCE7FF"/>
<path d="M157.638 76.7841L155.979 71.5506C155.959 71.4893 155.952 71.4248 155.957 71.3606C155.963 71.2965 155.981 71.2341 156.01 71.1769C156.04 71.1198 156.08 71.069 156.13 71.0276C156.179 70.9861 156.236 70.9548 156.297 70.9354C156.421 70.8969 156.554 70.9087 156.669 70.9683C156.784 71.0278 156.871 71.1304 156.91 71.2536L158.57 76.4814L158.405 77.5756L157.638 76.7841Z" fill="#BE8B87"/>
<path opacity="0.1" d="M156.136 71.0907C156.26 71.0515 156.394 71.063 156.51 71.1226C156.625 71.1823 156.712 71.2852 156.751 71.4088L158.411 76.6366L158.286 77.4568L158.407 77.5832L158.572 76.489L156.903 71.2612C156.863 71.138 156.776 71.0355 156.662 70.9759C156.547 70.9163 156.413 70.9045 156.29 70.9431C156.186 70.9768 156.096 71.0443 156.035 71.1347C156.067 71.1172 156.101 71.1025 156.136 71.0907Z" fill="white"/>
<path d="M157.639 76.7841L158.57 76.489L158.434 77.3859L158.405 77.5833L158.133 77.2996L157.639 76.7841Z" fill="#EFC8C4"/>
<path d="M158.133 77.2996C158.149 77.2791 158.169 77.2622 158.192 77.2498C158.206 77.2413 158.221 77.2368 158.237 77.2368C158.253 77.2368 158.269 77.2413 158.282 77.2498C158.295 77.2656 158.306 77.283 158.315 77.3015C158.328 77.3227 158.345 77.3407 158.365 77.3543C158.386 77.3679 158.409 77.3767 158.434 77.3801L158.405 77.5717L158.133 77.2996Z" fill="#727A9C"/>
<path d="M155.969 73.4094C155.969 73.4094 159.298 73.3903 158.514 74.8064C157.73 76.2226 156.506 76.3932 156.506 76.3932L155.969 73.4094Z" fill="#FFB0B1"/>
<path d="M135.267 9.85385H135.123C129.405 9.85385 124.348 12.8798 121.439 17.3448C118.53 12.8798 113.472 9.85385 107.754 9.85385H107.61C103.319 9.89475 99.2168 11.6276 96.1958 14.6759C93.1748 17.7242 91.4789 21.8415 91.4766 26.1332C91.4766 31.4626 93.8107 39.0245 98.362 45.2468C107.033 57.1033 121.439 67.4764 121.439 67.4764C121.439 67.4764 135.844 57.1052 144.513 45.2468C149.067 39.0245 151.399 31.4626 151.399 26.1332C151.396 21.8419 149.701 17.7248 146.68 14.6766C143.66 11.6283 139.558 9.89525 135.267 9.85385ZM133.211 46.159C132.559 46.1565 131.924 45.9572 131.388 45.5871C130.852 45.2171 130.441 44.6937 130.208 44.0855H126.789C126.564 44.0841 126.345 44.0125 126.162 43.8805C125.98 43.7486 125.843 43.563 125.771 43.3496L124.721 40.1858L121.398 51.7969C121.334 52.0204 121.198 52.2169 121.012 52.3569C120.826 52.4968 120.6 52.5727 120.367 52.573H120.3C120.058 52.5613 119.826 52.4666 119.645 52.3047C119.463 52.1429 119.343 51.9237 119.304 51.6838L115.879 31.087L113.377 43.2749C113.319 43.5064 113.186 43.7121 112.998 43.859C112.81 44.0059 112.578 44.0857 112.34 44.0855H107.524C107.38 44.0916 107.236 44.0685 107.1 44.0174C106.965 43.9664 106.842 43.8886 106.737 43.7886C106.633 43.6886 106.55 43.5685 106.493 43.4356C106.437 43.3027 106.407 43.1597 106.407 43.0152C106.407 42.8708 106.437 42.7278 106.493 42.5949C106.55 42.462 106.633 42.3419 106.737 42.2419C106.842 42.1419 106.965 42.0641 107.1 42.0131C107.236 41.962 107.38 41.9389 107.524 41.945H111.497L115.042 25.5583C115.1 25.316 115.241 25.1015 115.439 24.9514C115.638 24.8013 115.883 24.7249 116.132 24.7353C116.381 24.7457 116.619 24.8422 116.804 25.0084C116.99 25.1746 117.112 25.4002 117.15 25.6465L120.647 46.6573L123.625 36.2688C123.687 36.05 123.818 35.8571 123.999 35.7189C124.18 35.5808 124.4 35.5048 124.627 35.5022H124.648C124.874 35.5023 125.093 35.5735 125.276 35.7056C125.458 35.8377 125.594 36.0241 125.664 36.2381L127.563 41.9507H130.166C130.351 41.3886 130.687 40.8885 131.139 40.5057C131.59 40.1228 132.138 39.8721 132.723 39.7812C133.308 39.6903 133.906 39.7627 134.453 39.9905C134.999 40.2183 135.471 40.5925 135.818 41.072C136.165 41.5514 136.373 42.1174 136.419 42.7074C136.464 43.2975 136.346 43.8887 136.077 44.4157C135.808 44.9428 135.398 45.3852 134.893 45.6942C134.389 46.0032 133.808 46.1667 133.216 46.1667L133.211 46.159Z" fill="#0E7A8B"/>
</g>
<defs>
<linearGradient id="paint0_linear" x1="68.2851" y1="148.492" x2="68.2851" y2="30.5715" gradientUnits="userSpaceOnUse">
<stop stop-color="#808080" stop-opacity="0.25"/>
<stop offset="0.54" stop-color="#808080" stop-opacity="0.12"/>
<stop offset="1" stop-color="#808080" stop-opacity="0.1"/>
</linearGradient>
<linearGradient id="paint1_linear" x1="42775.8" y1="88972.5" x2="42775.8" y2="28442.9" gradientUnits="userSpaceOnUse">
<stop stop-color="#808080" stop-opacity="0.25"/>
<stop offset="0.54" stop-color="#808080" stop-opacity="0.12"/>
<stop offset="1" stop-color="#808080" stop-opacity="0.1"/>
</linearGradient>
<clipPath id="clip0">
<rect width="211.764" height="150" fill="white"/>
</clipPath>
</defs>
</svg>
