<svg width="25" height="25" viewBox="0 0 25 25" fill="none" xmlns="http://www.w3.org/2000/svg">
<g clip-path="url(#clip0)">
<path d="M24.9785 7.35007C24.9199 6.02172 24.7051 5.1085 24.3974 4.31717C24.0799 3.4772 23.5916 2.72518 22.9517 2.10002C22.3265 1.46513 21.5696 0.971793 20.7393 0.659308C19.9434 0.351593 19.035 0.136784 17.7066 0.0782166C16.3684 0.0146894 15.9435 0 12.5493 0C9.15509 0 8.73024 0.0146894 7.39693 0.0732565C6.06859 0.131824 5.15536 0.346824 4.36423 0.654348C3.52407 0.971793 2.77205 1.46017 2.14689 2.10002C1.512 2.72518 1.01886 3.48216 0.706182 4.3124C0.398468 5.1085 0.183658 6.01676 0.125091 7.34511C0.0615644 8.68338 0.046875 9.10822 0.046875 12.5024C0.046875 15.8967 0.0615644 16.3215 0.120131 17.6548C0.178698 18.9832 0.393698 19.8964 0.701413 20.6877C1.01886 21.5277 1.512 22.2797 2.14689 22.9049C2.77205 23.5398 3.52903 24.0331 4.35927 24.3456C5.15536 24.6533 6.06363 24.8681 7.39216 24.9267C8.72528 24.9854 9.15032 24.9999 12.5445 24.9999C15.9387 24.9999 16.3636 24.9854 17.6969 24.9267C19.0252 24.8681 19.9385 24.6533 20.7296 24.3456C22.4097 23.696 23.7381 22.3677 24.3876 20.6877C24.6952 19.8916 24.9102 18.9832 24.9687 17.6548C25.0273 16.3215 25.042 15.8967 25.042 12.5024C25.042 9.10822 25.037 8.68338 24.9785 7.35007ZM22.7272 17.5571C22.6734 18.7781 22.4683 19.4374 22.2974 19.8769C21.8773 20.966 21.0129 21.8304 19.9238 22.2505C19.4842 22.4214 18.8202 22.6265 17.604 22.6801C16.2854 22.7389 15.8899 22.7534 12.5543 22.7534C9.21861 22.7534 8.81818 22.7389 7.50434 22.6801C6.2834 22.6265 5.62409 22.4214 5.18455 22.2505C4.64257 22.0502 4.14923 21.7328 3.7488 21.3176C3.33368 20.9123 3.01624 20.4239 2.81593 19.8819C2.645 19.4424 2.43992 18.7781 2.38631 17.5621C2.32755 16.2435 2.31305 15.8478 2.31305 12.5122C2.31305 9.17652 2.32755 8.77609 2.38631 7.46243C2.43992 6.24149 2.645 5.58218 2.81593 5.14264C3.01624 4.60047 3.33368 4.10732 3.75376 3.7067C4.15896 3.29158 4.64734 2.97414 5.18951 2.77402C5.62905 2.60309 6.29332 2.39801 7.5093 2.34421C8.82791 2.28564 9.22357 2.27095 12.559 2.27095C15.8996 2.27095 16.2951 2.28564 17.6089 2.34421C18.8299 2.39801 19.4892 2.60309 19.9287 2.77402C20.4707 2.97414 20.9641 3.29158 21.3645 3.7067C21.7796 4.11209 22.097 4.60047 22.2974 5.14264C22.4683 5.58218 22.6734 6.24626 22.7272 7.46243C22.7857 8.78105 22.8004 9.17652 22.8004 12.5122C22.8004 15.8478 22.7857 16.2385 22.7272 17.5571Z" fill="#31313A"/>
<path d="M12.5452 6.08057C8.9997 6.08057 6.12305 8.95703 6.12305 12.5027C6.12305 16.0484 8.9997 18.9249 12.5452 18.9249C16.0909 18.9249 18.9674 16.0484 18.9674 12.5027C18.9674 8.95703 16.0909 6.08057 12.5452 6.08057ZM12.5452 16.6686C10.2451 16.6686 8.37931 14.8031 8.37931 12.5027C8.37931 10.2024 10.2451 8.33683 12.5452 8.33683C14.8455 8.33683 16.7111 10.2024 16.7111 12.5027C16.7111 14.8031 14.8455 16.6686 12.5452 16.6686Z" fill="#31313A"/>
<path d="M20.7219 5.82618C20.7219 6.65414 20.0506 7.32547 19.2224 7.32547C18.3945 7.32547 17.7231 6.65414 17.7231 5.82618C17.7231 4.99804 18.3945 4.3269 19.2224 4.3269C20.0506 4.3269 20.7219 4.99804 20.7219 5.82618Z" fill="#31313A"/>
</g>
<defs>
<clipPath id="clip0">
<rect width="25" height="25" fill="white"/>
</clipPath>
</defs>
</svg>
