<svg width="250" height="129" viewBox="0 0 250 129" fill="none" xmlns="http://www.w3.org/2000/svg">
<g clip-path="url(#clip0)">
<path d="M249.668 128.856H0.331988C0.244111 128.856 0.159921 128.821 0.0978718 128.759C0.0358226 128.696 0.000976562 128.612 0.000976562 128.524C0.000976562 128.436 0.0358226 128.352 0.0978718 128.29C0.159921 128.227 0.244111 128.192 0.331988 128.192H249.668C249.756 128.192 249.84 128.227 249.902 128.29C249.964 128.352 249.999 128.436 249.999 128.524C249.999 128.612 249.964 128.696 249.902 128.759C249.84 128.821 249.756 128.856 249.668 128.856Z" fill="#E4E4E4"/>
<path d="M78.1648 16.0167C79.1606 16.0167 79.9679 15.2094 79.9679 14.2137C79.9679 13.2179 79.1606 12.4106 78.1648 12.4106C77.1691 12.4106 76.3618 13.2179 76.3618 14.2137C76.3618 15.2094 77.1691 16.0167 78.1648 16.0167Z" fill="#F2F2F2"/>
<path d="M70.9788 16.0167C71.9746 16.0167 72.7818 15.2094 72.7818 14.2137C72.7818 13.2179 71.9746 12.4106 70.9788 12.4106C69.983 12.4106 69.1758 13.2179 69.1758 14.2137C69.1758 15.2094 69.983 16.0167 70.9788 16.0167Z" fill="#F2F2F2"/>
<path d="M63.7928 16.0167C64.7885 16.0167 65.5958 15.2094 65.5958 14.2137C65.5958 13.2179 64.7885 12.4106 63.7928 12.4106C62.797 12.4106 61.9897 13.2179 61.9897 14.2137C61.9897 15.2094 62.797 16.0167 63.7928 16.0167Z" fill="#F2F2F2"/>
<path d="M56.6072 16.0167C57.603 16.0167 58.4102 15.2094 58.4102 14.2137C58.4102 13.2179 57.603 12.4106 56.6072 12.4106C55.6114 12.4106 54.8042 13.2179 54.8042 14.2137C54.8042 15.2094 55.6114 16.0167 56.6072 16.0167Z" fill="#F2F2F2"/>
<path d="M78.1648 23.5445C79.1606 23.5445 79.9679 22.7373 79.9679 21.7415C79.9679 20.7457 79.1606 19.9385 78.1648 19.9385C77.1691 19.9385 76.3618 20.7457 76.3618 21.7415C76.3618 22.7373 77.1691 23.5445 78.1648 23.5445Z" fill="#F2F2F2"/>
<path d="M70.9788 23.5445C71.9746 23.5445 72.7818 22.7373 72.7818 21.7415C72.7818 20.7457 71.9746 19.9385 70.9788 19.9385C69.983 19.9385 69.1758 20.7457 69.1758 21.7415C69.1758 22.7373 69.983 23.5445 70.9788 23.5445Z" fill="#F2F2F2"/>
<path d="M63.7928 23.5445C64.7885 23.5445 65.5958 22.7373 65.5958 21.7415C65.5958 20.7457 64.7885 19.9385 63.7928 19.9385C62.797 19.9385 61.9897 20.7457 61.9897 21.7415C61.9897 22.7373 62.797 23.5445 63.7928 23.5445Z" fill="#F2F2F2"/>
<path d="M56.6072 23.5445C57.603 23.5445 58.4102 22.7373 58.4102 21.7415C58.4102 20.7457 57.603 19.9385 56.6072 19.9385C55.6114 19.9385 54.8042 20.7457 54.8042 21.7415C54.8042 22.7373 55.6114 23.5445 56.6072 23.5445Z" fill="#F2F2F2"/>
<path d="M78.1648 31.0723C79.1606 31.0723 79.9679 30.2651 79.9679 29.2693C79.9679 28.2735 79.1606 27.4663 78.1648 27.4663C77.1691 27.4663 76.3618 28.2735 76.3618 29.2693C76.3618 30.2651 77.1691 31.0723 78.1648 31.0723Z" fill="#F2F2F2"/>
<path d="M70.9788 31.0723C71.9746 31.0723 72.7818 30.2651 72.7818 29.2693C72.7818 28.2735 71.9746 27.4663 70.9788 27.4663C69.983 27.4663 69.1758 28.2735 69.1758 29.2693C69.1758 30.2651 69.983 31.0723 70.9788 31.0723Z" fill="#F2F2F2"/>
<path d="M63.7928 31.0723C64.7885 31.0723 65.5958 30.2651 65.5958 29.2693C65.5958 28.2735 64.7885 27.4663 63.7928 27.4663C62.797 27.4663 61.9897 28.2735 61.9897 29.2693C61.9897 30.2651 62.797 31.0723 63.7928 31.0723Z" fill="#F2F2F2"/>
<path d="M56.6072 31.0723C57.603 31.0723 58.4102 30.2651 58.4102 29.2693C58.4102 28.2735 57.603 27.4663 56.6072 27.4663C55.6114 27.4663 54.8042 28.2735 54.8042 29.2693C54.8042 30.2651 55.6114 31.0723 56.6072 31.0723Z" fill="#F2F2F2"/>
<path d="M78.1648 38.6002C79.1606 38.6002 79.9679 37.7929 79.9679 36.7972C79.9679 35.8014 79.1606 34.9941 78.1648 34.9941C77.1691 34.9941 76.3618 35.8014 76.3618 36.7972C76.3618 37.7929 77.1691 38.6002 78.1648 38.6002Z" fill="#F2F2F2"/>
<path d="M70.9788 38.6002C71.9746 38.6002 72.7818 37.7929 72.7818 36.7972C72.7818 35.8014 71.9746 34.9941 70.9788 34.9941C69.983 34.9941 69.1758 35.8014 69.1758 36.7972C69.1758 37.7929 69.983 38.6002 70.9788 38.6002Z" fill="#F2F2F2"/>
<path d="M63.7928 38.6002C64.7885 38.6002 65.5958 37.7929 65.5958 36.7972C65.5958 35.8014 64.7885 34.9941 63.7928 34.9941C62.797 34.9941 61.9897 35.8014 61.9897 36.7972C61.9897 37.7929 62.797 38.6002 63.7928 38.6002Z" fill="#F2F2F2"/>
<path d="M56.6072 38.6002C57.603 38.6002 58.4102 37.7929 58.4102 36.7972C58.4102 35.8014 57.603 34.9941 56.6072 34.9941C55.6114 34.9941 54.8042 35.8014 54.8042 36.7972C54.8042 37.7929 55.6114 38.6002 56.6072 38.6002Z" fill="#F2F2F2"/>
<path d="M78.1648 46.128C79.1606 46.128 79.9679 45.3208 79.9679 44.325C79.9679 43.3292 79.1606 42.522 78.1648 42.522C77.1691 42.522 76.3618 43.3292 76.3618 44.325C76.3618 45.3208 77.1691 46.128 78.1648 46.128Z" fill="#F2F2F2"/>
<path d="M70.9788 46.128C71.9746 46.128 72.7818 45.3208 72.7818 44.325C72.7818 43.3292 71.9746 42.522 70.9788 42.522C69.983 42.522 69.1758 43.3292 69.1758 44.325C69.1758 45.3208 69.983 46.128 70.9788 46.128Z" fill="#F2F2F2"/>
<path d="M63.7928 46.128C64.7885 46.128 65.5958 45.3208 65.5958 44.325C65.5958 43.3292 64.7885 42.522 63.7928 42.522C62.797 42.522 61.9897 43.3292 61.9897 44.325C61.9897 45.3208 62.797 46.128 63.7928 46.128Z" fill="#F2F2F2"/>
<path d="M56.6072 46.128C57.603 46.128 58.4102 45.3208 58.4102 44.325C58.4102 43.3292 57.603 42.522 56.6072 42.522C55.6114 42.522 54.8042 43.3292 54.8042 44.325C54.8042 45.3208 55.6114 46.128 56.6072 46.128Z" fill="#F2F2F2"/>
<path d="M78.1648 53.6557C79.1606 53.6557 79.9679 52.8485 79.9679 51.8527C79.9679 50.8569 79.1606 50.0497 78.1648 50.0497C77.1691 50.0497 76.3618 50.8569 76.3618 51.8527C76.3618 52.8485 77.1691 53.6557 78.1648 53.6557Z" fill="#F2F2F2"/>
<path d="M70.9788 53.6557C71.9746 53.6557 72.7818 52.8485 72.7818 51.8527C72.7818 50.8569 71.9746 50.0497 70.9788 50.0497C69.983 50.0497 69.1758 50.8569 69.1758 51.8527C69.1758 52.8485 69.983 53.6557 70.9788 53.6557Z" fill="#F2F2F2"/>
<path d="M63.7928 53.6557C64.7885 53.6557 65.5958 52.8485 65.5958 51.8527C65.5958 50.8569 64.7885 50.0497 63.7928 50.0497C62.797 50.0497 61.9897 50.8569 61.9897 51.8527C61.9897 52.8485 62.797 53.6557 63.7928 53.6557Z" fill="#F2F2F2"/>
<path d="M56.6072 53.6557C57.603 53.6557 58.4102 52.8485 58.4102 51.8527C58.4102 50.8569 57.603 50.0497 56.6072 50.0497C55.6114 50.0497 54.8042 50.8569 54.8042 51.8527C54.8042 52.8485 55.6114 53.6557 56.6072 53.6557Z" fill="#F2F2F2"/>
<path d="M62.3213 101.04V101.597C62.3221 102.521 62.6895 103.407 63.3429 104.061C63.9964 104.714 64.8823 105.082 65.8064 105.082H90.8991C91.8233 105.082 92.7095 104.715 93.363 104.061C94.0165 103.408 94.3838 102.522 94.3842 101.597V101.04C94.3859 100.224 94.0995 99.4343 93.5755 98.8093C93.4011 98.6018 93.2038 98.4147 92.9873 98.2517C92.9873 98.2517 79.1919 97.9394 79.1919 97.5547H65.8064C64.8825 97.556 63.9968 97.9236 63.3435 98.5769C62.6902 99.2302 62.3226 100.116 62.3213 101.04Z" fill="#CCCCCC"/>
<path d="M80.3667 104.944H76.7422V128.364H80.3667V104.944Z" fill="#CCCCCC"/>
<path d="M90.6825 128.237C90.6825 128.628 85.1902 128.388 78.415 128.388C71.6398 128.388 66.1475 128.628 66.1475 128.237C66.1475 127.845 71.6398 124.74 78.415 124.74C85.1902 124.74 90.6825 127.845 90.6825 128.237Z" fill="#CCCCCC"/>
<path d="M85.6995 100.567C85.9611 100.216 86.1426 99.8116 86.2312 99.3828C86.3197 98.9539 86.3132 98.5109 86.212 98.0849C86.1108 97.6589 85.9174 97.2603 85.6454 96.9171C85.3735 96.5739 85.0296 96.2945 84.638 96.0985L76.9561 69.9226L71.1064 72.7875L80.4969 97.6168C80.2114 98.2964 80.1851 99.0572 80.423 99.755C80.661 100.453 81.1466 101.039 81.7879 101.403C82.4291 101.766 83.1815 101.882 83.9025 101.728C84.6234 101.574 85.2628 101.161 85.6995 100.567L85.6995 100.567Z" fill="#A0616A"/>
<path d="M78.6965 74.294L72.1494 76.0664C71.9631 76.1168 71.7681 76.1265 71.5778 76.0948C71.3874 76.063 71.2061 75.9907 71.0462 75.8826C70.8863 75.7745 70.7516 75.6332 70.6513 75.4683C70.551 75.3035 70.4873 75.119 70.4647 74.9273L69.6734 68.2115C69.4208 67.257 69.5571 66.2413 70.0523 65.387C70.5475 64.5328 71.3612 63.9098 72.315 63.6546C73.2688 63.3994 74.285 63.5328 75.1406 64.0256C75.9962 64.5184 76.6215 65.3304 76.8793 66.2835L79.5765 72.4607C79.6537 72.6376 79.6918 72.829 79.6883 73.022C79.6848 73.2149 79.6398 73.4049 79.5563 73.5789C79.4728 73.7529 79.3528 73.9068 79.2044 74.0302C79.056 74.1536 78.8828 74.2436 78.6965 74.294H78.6965Z" fill="#0E7A8B"/>
<path d="M87.4107 125.492L90.8289 125.491L92.4552 116.626H87.4102L87.4107 125.492Z" fill="#A0616A"/>
<path d="M86.5386 124.376L93.27 124.375H93.2703C93.8337 124.375 94.3915 124.486 94.912 124.702C95.4325 124.918 95.9054 125.234 96.3037 125.632C96.7021 126.03 97.0181 126.503 97.2337 127.024C97.4492 127.544 97.5602 128.102 97.5602 128.665V128.805L86.5388 128.805L86.5386 124.376Z" fill="#2F2E41"/>
<path d="M91.378 120.738C91.3382 120.738 91.2983 120.736 91.2581 120.732L86.5277 120.388C86.3364 120.37 86.1517 120.308 85.9879 120.208C85.8241 120.108 85.6856 119.971 85.583 119.808C85.4803 119.646 85.4164 119.462 85.396 119.271C85.3757 119.08 85.3995 118.887 85.4656 118.707L91.7964 104.483C91.8416 104.357 91.8601 104.222 91.8507 104.087C91.8413 103.953 91.8042 103.822 91.7417 103.703C91.6794 103.582 91.5922 103.476 91.486 103.392C91.3797 103.307 91.2567 103.246 91.1252 103.212C88.1483 102.434 80.5104 100.362 73.8986 97.9378C71.066 96.8991 69.2819 95.3981 68.5961 93.4764C67.6918 90.9429 69.0295 88.6324 69.0869 88.5354L69.1317 88.4595L75.3533 89.025L82.098 89.5987L96.8785 97.5245C98.117 98.1943 99.0578 99.306 99.5134 100.638C99.9691 101.97 99.9061 103.425 99.3372 104.713L92.5229 119.994C92.4243 120.215 92.2637 120.403 92.0605 120.535C91.8574 120.667 91.6203 120.738 91.378 120.738Z" fill="#2F2E41"/>
<path d="M76.4352 60.8852C80.2171 60.8852 83.283 57.8193 83.283 54.0374C83.283 50.2554 80.2171 47.1896 76.4352 47.1896C72.6533 47.1896 69.5874 50.2554 69.5874 54.0374C69.5874 57.8193 72.6533 60.8852 76.4352 60.8852Z" fill="#A0616A"/>
<path d="M85.459 125.213L88.8772 125.213L90.5035 116.348H85.4585L85.459 125.213Z" fill="#A0616A"/>
<path d="M84.5869 124.097L91.3184 124.097H91.3187C91.882 124.097 92.4399 124.208 92.9603 124.423C93.4808 124.639 93.9537 124.955 94.3521 125.353C94.7504 125.751 95.0664 126.224 95.282 126.745C95.4976 127.265 95.6085 127.823 95.6085 128.386V128.526L84.5871 128.526L84.5869 124.097Z" fill="#2F2E41"/>
<path d="M89.4264 121.574C89.3866 121.574 89.3466 121.572 89.3064 121.568L84.576 121.224C84.3847 121.206 84.2001 121.145 84.0363 121.044C83.8725 120.944 83.7339 120.807 83.6313 120.645C83.5287 120.482 83.4647 120.299 83.4444 120.108C83.424 119.917 83.4478 119.723 83.514 119.543L89.8447 105.32C89.8899 105.193 89.9084 105.058 89.899 104.924C89.8896 104.79 89.8525 104.659 89.79 104.539C89.7277 104.419 89.6405 104.313 89.5343 104.228C89.428 104.144 89.3051 104.082 89.1735 104.049C86.1966 103.271 78.5587 101.199 71.947 98.7743C69.1143 97.7356 67.3302 96.2345 66.6444 94.3128C65.7402 91.7793 67.0779 89.4688 67.1352 89.3719L67.1801 89.2959L73.4016 89.8614L80.1463 90.4351L94.9268 98.361C96.1653 99.0307 97.1061 100.142 97.5617 101.475C98.0174 102.807 97.9545 104.262 97.3855 105.55L90.5712 120.831C90.4726 121.052 90.312 121.24 90.1089 121.372C89.9057 121.504 89.6686 121.574 89.4264 121.574Z" fill="#2F2E41"/>
<path d="M78.5471 64.7682L71.2981 62.2589C71.2981 62.2589 66.7474 65.7552 68.9335 74.4285C70.0748 78.9042 69.7424 83.6287 67.9855 87.9005C67.774 88.4291 67.5302 88.9441 67.2554 89.4427C67.2554 89.4427 75.3408 99.2009 82.8686 91.9519L79.9411 77.8721C79.9411 77.8721 84.5414 68.5321 78.5471 64.7682Z" fill="#2F2E41"/>
<path d="M77.2855 61.118C76.3109 59.6592 75.5418 57.6364 76.6148 56.2484C77.674 54.8783 79.7632 55.0801 81.3854 54.4738C83.6448 53.6294 84.9553 50.975 84.5466 48.5978C84.1379 46.2206 82.2296 44.25 79.9563 43.4436C77.683 42.6373 75.1194 42.8996 72.8932 43.8281C70.1527 44.9711 67.8019 47.1822 66.8161 49.9831C65.8303 52.784 66.3573 56.147 68.4023 58.2998C70.5948 60.6079 74.0358 61.223 77.219 61.1857" fill="#2F2E41"/>
<path d="M70.9154 48.6741C69.6873 49.6739 67.8136 49.2298 66.4953 48.3524C65.177 47.475 64.1073 46.2256 62.6809 45.5377C60.1663 44.3249 57.126 45.1311 54.6786 46.4745C52.2313 47.8179 50.0618 49.6738 47.4767 50.728C44.8916 51.7823 41.5927 51.8344 39.6353 49.8438C39.1535 51.2394 39.1142 52.7497 39.5225 54.1686C39.9308 55.5875 40.767 56.8458 41.9169 57.7719C43.0668 58.698 44.4744 59.2468 45.9477 59.3434C47.421 59.44 48.8882 59.0796 50.1491 58.3116C52.9817 56.5862 54.5462 52.9686 57.7232 52.0163C59.4812 51.4893 61.369 51.9137 63.1458 52.3734C64.9226 52.8331 66.7752 53.3299 68.5683 52.9385C70.3614 52.5472 72.0387 50.9358 71.8105 49.1147L70.9154 48.6741Z" fill="#2F2E41"/>
<path d="M93.2074 113.198C92.4823 108.488 92.4823 103.695 93.2074 98.9855C93.2534 98.7052 93.3974 98.4503 93.6137 98.2662C93.83 98.0821 94.1047 97.9808 94.3887 97.9802H105.505C105.686 97.9797 105.864 98.0202 106.026 98.0988C106.188 98.1773 106.33 98.2919 106.441 98.4336C106.555 98.5773 106.634 98.7451 106.673 98.924C106.712 99.103 106.71 99.2886 106.666 99.4665C105.626 103.822 105.626 108.361 106.666 112.717C106.71 112.895 106.712 113.08 106.673 113.259C106.634 113.438 106.555 113.606 106.441 113.75C106.33 113.892 106.188 114.006 106.026 114.085C105.864 114.163 105.686 114.204 105.505 114.203H94.3887C94.1047 114.203 93.83 114.101 93.6137 113.917C93.3974 113.733 93.2534 113.478 93.2074 113.198Z" fill="#0E7A8B"/>
<path d="M102.084 104.86H96.2505C96.0287 104.86 95.8161 104.772 95.6593 104.615C95.5025 104.458 95.4143 104.246 95.4141 104.024V103.697C95.4143 103.475 95.5025 103.263 95.6593 103.106C95.8161 102.949 96.0287 102.861 96.2505 102.861H102.084C102.306 102.861 102.519 102.949 102.675 103.106C102.832 103.263 102.92 103.475 102.921 103.697V104.024C102.92 104.246 102.832 104.458 102.675 104.615C102.519 104.772 102.306 104.86 102.084 104.86Z" fill="white"/>
<path d="M102.084 108.302H96.2505C96.0287 108.302 95.8161 108.214 95.6593 108.057C95.5025 107.9 95.4143 107.687 95.4141 107.466V107.139C95.4143 106.917 95.5025 106.704 95.6593 106.547C95.8161 106.391 96.0287 106.302 96.2505 106.302H102.084C102.306 106.302 102.519 106.391 102.675 106.547C102.832 106.704 102.92 106.917 102.921 107.139V107.466C102.92 107.687 102.832 107.9 102.675 108.057C102.519 108.214 102.306 108.302 102.084 108.302Z" fill="white"/>
<path d="M96.1307 99.3125C96.2963 98.9072 96.3711 98.4705 96.3497 98.0331C96.3283 97.5958 96.2112 97.1684 96.0068 96.7812C95.8024 96.394 95.5155 96.0563 95.1665 95.7919C94.8174 95.5276 94.4147 95.3429 93.9865 95.2511L80.0084 71.8245L75.0601 76.06L90.3561 97.7557C90.2494 98.4852 90.414 99.2284 90.8187 99.8446C91.2234 100.461 91.8401 100.907 92.5519 101.099C93.2637 101.291 94.0212 101.215 94.6808 100.886C95.3404 100.557 95.8563 99.9967 96.1307 99.3125L96.1307 99.3125Z" fill="#A0616A"/>
<path d="M82.7855 75.6224L76.8888 78.9743C76.7211 79.0697 76.5347 79.1278 76.3425 79.1446C76.1502 79.1615 75.9566 79.1367 75.7748 79.072C75.593 79.0072 75.4272 78.9041 75.2889 78.7695C75.1505 78.635 75.0428 78.4722 74.973 78.2922L72.5289 71.9871C72.046 71.126 71.9242 70.1084 72.1902 69.1576C72.4563 68.2068 73.0886 67.4002 73.9484 66.9148C74.8082 66.4294 75.8253 66.3048 76.7769 66.5682C77.7285 66.8315 78.5368 67.4615 79.0246 68.3199L83.1796 73.6274C83.2985 73.7794 83.3833 73.9552 83.4281 74.1429C83.4729 74.3306 83.4768 74.5258 83.4394 74.7151C83.402 74.9045 83.3242 75.0835 83.2114 75.2401C83.0986 75.3967 82.9533 75.5271 82.7855 75.6224Z" fill="#2F2E41"/>
<path d="M145.529 83.8513H32.3328C31.8521 83.8513 31.3912 84.0423 31.0513 84.3821C30.7114 84.722 30.5205 85.1829 30.5205 85.6636C30.5205 86.1442 30.7114 86.6052 31.0513 86.945C31.3912 87.2849 31.8521 87.4758 32.3328 87.4758H35.539V126.927C35.539 127.408 35.73 127.869 36.0698 128.209C36.4097 128.548 36.8707 128.739 37.3513 128.739C37.8319 128.739 38.2929 128.548 38.6328 128.209C38.9726 127.869 39.1635 127.408 39.1635 126.927V90.9581L59.4806 127.782C59.7214 128.198 60.1171 128.5 60.5809 128.624C61.0447 128.748 61.5386 128.683 61.9543 128.443C62.37 128.203 62.6735 127.808 62.7982 127.344C62.9229 126.88 62.8587 126.386 62.6195 125.97L41.3811 87.4758H138.419V87.4993L117.194 125.97C116.953 126.386 116.888 126.881 117.013 127.345C117.137 127.81 117.441 128.205 117.857 128.446C118.273 128.686 118.768 128.751 119.232 128.627C119.696 128.502 120.092 128.199 120.333 127.782L138.419 95.0008V126.927C138.419 127.408 138.61 127.869 138.95 128.209C139.29 128.548 139.751 128.739 140.231 128.739C140.712 128.739 141.173 128.548 141.513 128.209C141.853 127.869 142.044 127.408 142.044 126.927V88.4314L142.571 87.4758H145.529C146.009 87.4758 146.47 87.2849 146.81 86.945C147.15 86.6052 147.341 86.1442 147.341 85.6636C147.341 85.1829 147.15 84.722 146.81 84.3821C146.47 84.0423 146.009 83.8513 145.529 83.8513Z" fill="#E4E4E4"/>
<path d="M98.6887 82.7361H76.6628C76.1239 82.7361 75.687 83.173 75.687 83.7119C75.687 84.2508 76.1239 84.6877 76.6628 84.6877H98.6887C99.2276 84.6877 99.6645 84.2508 99.6645 83.7119C99.6645 83.173 99.2276 82.7361 98.6887 82.7361Z" fill="#CCCCCC"/>
<path d="M113.465 84.6877H88.6516C88.1711 84.6871 87.7105 84.496 87.3708 84.1563C87.031 83.8165 86.8399 83.3559 86.8394 82.8754V69.2139C86.8399 68.7334 87.031 68.2727 87.3708 67.933C87.7105 67.5933 88.1711 67.4022 88.6516 67.4016H113.465C113.946 67.4022 114.407 67.5933 114.746 67.933C115.086 68.2727 115.277 68.7334 115.278 69.2139V82.8754C115.277 83.3559 115.086 83.8165 114.746 84.1563C114.407 84.496 113.946 84.6871 113.465 84.6877Z" fill="#CCCCCC"/>
<path d="M101.059 77.7175C101.982 77.7175 102.731 76.9686 102.731 76.0447C102.731 75.1208 101.982 74.3718 101.059 74.3718C100.135 74.3718 99.3857 75.1208 99.3857 76.0447C99.3857 76.9686 100.135 77.7175 101.059 77.7175Z" fill="white"/>
<path d="M132.402 51.0278V2.09703C132.403 1.54106 132.624 1.00804 133.017 0.614903C133.41 0.22177 133.943 0.000632402 134.499 0H173.178C173.734 0.000632402 174.267 0.22177 174.66 0.614903C175.053 1.00804 175.274 1.54106 175.275 2.09703V51.0278C175.274 51.5838 175.053 52.1168 174.66 52.5099C174.267 52.9031 173.734 53.1242 173.178 53.1248H134.499C133.943 53.1242 133.41 52.9031 133.017 52.5099C132.624 52.1168 132.403 51.5838 132.402 51.0278ZM134.499 0.466008C134.067 0.466494 133.652 0.638489 133.347 0.94426C133.041 1.25003 132.869 1.66461 132.868 2.09703V51.0278C132.869 51.4602 133.041 51.8748 133.347 52.1806C133.652 52.4863 134.067 52.6583 134.499 52.6588H173.178C173.61 52.6583 174.025 52.4863 174.331 52.1806C174.636 51.8748 174.808 51.4602 174.809 51.0278V2.09703C174.808 1.66461 174.636 1.25003 174.331 0.94426C174.025 0.638489 173.61 0.466494 173.178 0.466008H134.499Z" fill="#E6E6E6"/>
<path d="M156.008 22.4713V12.4242C156.008 12.1463 156.119 11.8797 156.315 11.6832C156.512 11.4866 156.778 11.376 157.056 11.3757H165.57C165.848 11.376 166.115 11.4866 166.311 11.6832C166.508 11.8797 166.618 12.1463 166.619 12.4242V22.4713C166.618 22.7493 166.508 23.0158 166.311 23.2123C166.115 23.4089 165.848 23.5195 165.57 23.5198H157.056C156.778 23.5195 156.512 23.4089 156.315 23.2123C156.119 23.0158 156.008 22.7493 156.008 22.4713Z" fill="#0E7A8B"/>
<path d="M139.464 27.1313V17.0843C139.465 16.8063 139.575 16.5398 139.772 16.3432C139.968 16.1466 140.235 16.0361 140.513 16.0358H149.027C149.305 16.0361 149.571 16.1466 149.768 16.3432C149.964 16.5398 150.075 16.8063 150.075 17.0843V27.1313C150.075 27.4093 149.964 27.6758 149.768 27.8724C149.571 28.069 149.305 28.1795 149.027 28.1798H140.513C140.235 28.1795 139.968 28.069 139.772 27.8724C139.575 27.6758 139.465 27.4093 139.464 27.1313Z" fill="#CCCCCC"/>
<path d="M152.746 41.3446V31.2975C152.746 31.0195 152.856 30.753 153.053 30.5565C153.25 30.3599 153.516 30.2493 153.794 30.249H162.308C162.586 30.2493 162.853 30.3599 163.049 30.5565C163.246 30.753 163.356 31.0195 163.357 31.2975V41.3446C163.356 41.6226 163.246 41.8891 163.049 42.0856C162.853 42.2822 162.586 42.3928 162.308 42.3931H153.794C153.516 42.3928 153.25 42.2822 153.053 42.0856C152.856 41.8891 152.746 41.6226 152.746 41.3446Z" fill="#FF6584"/>
<path d="M217.677 5.09859C218.672 5.09859 219.48 4.29135 219.48 3.29557C219.48 2.29979 218.672 1.49255 217.677 1.49255C216.681 1.49255 215.874 2.29979 215.874 3.29557C215.874 4.29135 216.681 5.09859 217.677 5.09859Z" fill="#F2F2F2"/>
<path d="M217.677 12.2844C218.672 12.2844 219.48 11.4771 219.48 10.4814C219.48 9.48558 218.672 8.67834 217.677 8.67834C216.681 8.67834 215.874 9.48558 215.874 10.4814C215.874 11.4771 216.681 12.2844 217.677 12.2844Z" fill="#F2F2F2"/>
<path d="M217.677 19.4702C218.672 19.4702 219.48 18.6629 219.48 17.6672C219.48 16.6714 218.672 15.8641 217.677 15.8641C216.681 15.8641 215.874 16.6714 215.874 17.6672C215.874 18.6629 216.681 19.4702 217.677 19.4702Z" fill="#F2F2F2"/>
<path d="M217.677 26.656C218.672 26.656 219.48 25.8487 219.48 24.8529C219.48 23.8572 218.672 23.0499 217.677 23.0499C216.681 23.0499 215.874 23.8572 215.874 24.8529C215.874 25.8487 216.681 26.656 217.677 26.656Z" fill="#F2F2F2"/>
<path d="M210.149 5.09859C211.144 5.09859 211.952 4.29135 211.952 3.29557C211.952 2.29979 211.144 1.49255 210.149 1.49255C209.153 1.49255 208.346 2.29979 208.346 3.29557C208.346 4.29135 209.153 5.09859 210.149 5.09859Z" fill="#F2F2F2"/>
<path d="M210.149 12.2844C211.144 12.2844 211.952 11.4771 211.952 10.4814C211.952 9.48558 211.144 8.67834 210.149 8.67834C209.153 8.67834 208.346 9.48558 208.346 10.4814C208.346 11.4771 209.153 12.2844 210.149 12.2844Z" fill="#F2F2F2"/>
<path d="M210.149 19.4702C211.144 19.4702 211.952 18.6629 211.952 17.6672C211.952 16.6714 211.144 15.8641 210.149 15.8641C209.153 15.8641 208.346 16.6714 208.346 17.6672C208.346 18.6629 209.153 19.4702 210.149 19.4702Z" fill="#F2F2F2"/>
<path d="M210.149 26.656C211.144 26.656 211.952 25.8487 211.952 24.8529C211.952 23.8572 211.144 23.0499 210.149 23.0499C209.153 23.0499 208.346 23.8572 208.346 24.8529C208.346 25.8487 209.153 26.656 210.149 26.656Z" fill="#F2F2F2"/>
<path d="M202.621 5.09859C203.617 5.09859 204.424 4.29135 204.424 3.29557C204.424 2.29979 203.617 1.49255 202.621 1.49255C201.625 1.49255 200.818 2.29979 200.818 3.29557C200.818 4.29135 201.625 5.09859 202.621 5.09859Z" fill="#F2F2F2"/>
<path d="M202.621 12.2844C203.617 12.2844 204.424 11.4771 204.424 10.4814C204.424 9.48558 203.617 8.67834 202.621 8.67834C201.625 8.67834 200.818 9.48558 200.818 10.4814C200.818 11.4771 201.625 12.2844 202.621 12.2844Z" fill="#F2F2F2"/>
<path d="M202.621 19.4702C203.617 19.4702 204.424 18.6629 204.424 17.6672C204.424 16.6714 203.617 15.8641 202.621 15.8641C201.625 15.8641 200.818 16.6714 200.818 17.6672C200.818 18.6629 201.625 19.4702 202.621 19.4702Z" fill="#F2F2F2"/>
<path d="M202.621 26.656C203.617 26.656 204.424 25.8487 204.424 24.8529C204.424 23.8572 203.617 23.0499 202.621 23.0499C201.625 23.0499 200.818 23.8572 200.818 24.8529C200.818 25.8487 201.625 26.656 202.621 26.656Z" fill="#F2F2F2"/>
<path d="M195.093 5.09859C196.089 5.09859 196.896 4.29135 196.896 3.29557C196.896 2.29979 196.089 1.49255 195.093 1.49255C194.097 1.49255 193.29 2.29979 193.29 3.29557C193.29 4.29135 194.097 5.09859 195.093 5.09859Z" fill="#F2F2F2"/>
<path d="M195.093 12.2844C196.089 12.2844 196.896 11.4771 196.896 10.4814C196.896 9.48558 196.089 8.67834 195.093 8.67834C194.097 8.67834 193.29 9.48558 193.29 10.4814C193.29 11.4771 194.097 12.2844 195.093 12.2844Z" fill="#F2F2F2"/>
<path d="M195.093 19.4702C196.089 19.4702 196.896 18.6629 196.896 17.6672C196.896 16.6714 196.089 15.8641 195.093 15.8641C194.097 15.8641 193.29 16.6714 193.29 17.6672C193.29 18.6629 194.097 19.4702 195.093 19.4702Z" fill="#F2F2F2"/>
<path d="M195.093 26.656C196.089 26.656 196.896 25.8487 196.896 24.8529C196.896 23.8572 196.089 23.0499 195.093 23.0499C194.097 23.0499 193.29 23.8572 193.29 24.8529C193.29 25.8487 194.097 26.656 195.093 26.656Z" fill="#F2F2F2"/>
<path d="M187.565 5.09859C188.561 5.09859 189.368 4.29135 189.368 3.29557C189.368 2.29979 188.561 1.49255 187.565 1.49255C186.569 1.49255 185.762 2.29979 185.762 3.29557C185.762 4.29135 186.569 5.09859 187.565 5.09859Z" fill="#F2F2F2"/>
<path d="M187.565 12.2844C188.561 12.2844 189.368 11.4771 189.368 10.4814C189.368 9.48558 188.561 8.67834 187.565 8.67834C186.569 8.67834 185.762 9.48558 185.762 10.4814C185.762 11.4771 186.569 12.2844 187.565 12.2844Z" fill="#F2F2F2"/>
<path d="M187.565 19.4702C188.561 19.4702 189.368 18.6629 189.368 17.6672C189.368 16.6714 188.561 15.8641 187.565 15.8641C186.569 15.8641 185.762 16.6714 185.762 17.6672C185.762 18.6629 186.569 19.4702 187.565 19.4702Z" fill="#F2F2F2"/>
<path d="M187.565 26.656C188.561 26.656 189.368 25.8487 189.368 24.8529C189.368 23.8572 188.561 23.0499 187.565 23.0499C186.569 23.0499 185.762 23.8572 185.762 24.8529C185.762 25.8487 186.569 26.656 187.565 26.656Z" fill="#F2F2F2"/>
<path d="M180.038 5.09859C181.034 5.09859 181.841 4.29135 181.841 3.29557C181.841 2.29979 181.034 1.49255 180.038 1.49255C179.042 1.49255 178.235 2.29979 178.235 3.29557C178.235 4.29135 179.042 5.09859 180.038 5.09859Z" fill="#F2F2F2"/>
<path d="M180.038 12.2844C181.034 12.2844 181.841 11.4771 181.841 10.4814C181.841 9.48558 181.034 8.67834 180.038 8.67834C179.042 8.67834 178.235 9.48558 178.235 10.4814C178.235 11.4771 179.042 12.2844 180.038 12.2844Z" fill="#F2F2F2"/>
<path d="M180.038 19.4702C181.034 19.4702 181.841 18.6629 181.841 17.6672C181.841 16.6714 181.034 15.8641 180.038 15.8641C179.042 15.8641 178.235 16.6714 178.235 17.6672C178.235 18.6629 179.042 19.4702 180.038 19.4702Z" fill="#F2F2F2"/>
<path d="M180.038 26.656C181.034 26.656 181.841 25.8487 181.841 24.8529C181.841 23.8572 181.034 23.0499 180.038 23.0499C179.042 23.0499 178.235 23.8572 178.235 24.8529C178.235 25.8487 179.042 26.656 180.038 26.656Z" fill="#F2F2F2"/>
<path d="M187.302 67.263C187.154 66.8569 187.094 66.4242 187.125 65.9931C187.156 65.5621 187.277 65.1424 187.482 64.7617C187.686 64.381 187.969 64.0477 188.311 63.7838C188.653 63.5199 189.047 63.3313 189.468 63.2303C189.601 63.199 189.736 63.177 189.872 63.1644L196.648 51.2876L194.937 48.3483L199.196 45.0626L202.454 49.5882C202.843 50.1323 203.046 50.7871 203.033 51.4555C203.02 52.1239 202.791 52.7703 202.382 53.2987L193.079 65.2077C193.113 65.3023 193.142 65.3986 193.166 65.4962C193.267 65.9164 193.278 66.3533 193.198 66.7781C193.118 67.2029 192.95 67.606 192.703 67.9611C192.457 68.3162 192.138 68.6152 191.768 68.8386C191.398 69.062 190.985 69.2046 190.556 69.2572C190.432 69.273 190.306 69.2808 190.181 69.2808C189.552 69.2788 188.94 69.0843 188.425 68.7235C187.91 68.3628 187.518 67.8531 187.302 67.263Z" fill="#FFB8B8"/>
<path d="M174.082 125.711L170.664 125.711L169.038 112.527L174.082 112.527L174.082 125.711Z" fill="#FFB8B8"/>
<path d="M168.222 124.734H174.814V128.885H164.072C164.072 128.34 164.179 127.8 164.388 127.296C164.596 126.793 164.902 126.335 165.287 125.95C165.673 125.564 166.13 125.259 166.634 125.05C167.138 124.841 167.677 124.734 168.222 124.734Z" fill="#2F2E41"/>
<path d="M202.241 125.711L198.823 125.711L197.197 112.527L202.242 112.527L202.241 125.711Z" fill="#FFB8B8"/>
<path d="M196.382 124.734H202.974V128.885H192.231C192.231 128.34 192.339 127.8 192.547 127.296C192.756 126.793 193.062 126.335 193.447 125.95C193.833 125.564 194.29 125.259 194.794 125.05C195.297 124.841 195.837 124.734 196.382 124.734Z" fill="#2F2E41"/>
<path d="M200.143 45.7047L192.469 48.6208L190.596 43.4164C190.347 42.7254 190.35 41.9686 190.606 41.2798C190.861 40.5911 191.351 40.0148 191.99 39.6527C192.637 39.2863 193.393 39.1633 194.122 39.3056C194.851 39.448 195.506 39.8464 195.967 40.429L200.143 45.7047Z" fill="#0E7A8B"/>
<path d="M174.377 115.033L167.941 113.565C167.599 113.486 167.299 113.281 167.102 112.99C166.904 112.7 166.825 112.345 166.878 111.998C169.461 95.6296 171.945 86.0438 178.348 73.8706C178.438 73.6436 179.437 69.0366 180.09 65.9844C180.082 65.6482 180.198 65.3207 180.414 65.063C180.63 64.8053 180.932 64.6349 181.265 64.5837L193.266 62.7368C193.447 62.674 193.638 62.6452 193.83 62.652L193.949 62.6747L193.948 62.7927C193.946 62.9147 193.825 62.9334 193.779 62.9404L193.62 62.9649C193.802 63.0497 193.969 63.1633 194.115 63.3013C199.373 69.6257 202.107 90.3568 205.58 113.259C205.599 113.445 205.577 113.633 205.514 113.809C205.451 113.985 205.349 114.145 205.217 114.276C205.091 114.414 204.939 114.524 204.769 114.601C204.6 114.677 204.416 114.719 204.23 114.723L196.563 114.909C196.226 114.917 195.898 114.802 195.64 114.586C195.381 114.369 195.21 114.066 195.159 113.733L189.994 83.8874C189.959 83.6542 189.85 83.4385 189.683 83.2716C189.516 83.1047 189.301 82.9954 189.068 82.9594C188.835 82.9235 188.596 82.9628 188.387 83.0718C188.178 83.1807 188.009 83.3535 187.905 83.5651C183.738 92.0505 179.853 99.3888 176.026 114.029C175.95 114.326 175.777 114.589 175.535 114.778C175.294 114.966 174.996 115.068 174.69 115.068C174.584 115.068 174.48 115.056 174.377 115.033Z" fill="#2F2E41"/>
<path d="M180.624 66.3253C180.463 66.211 180.327 66.0637 180.227 65.8931C180.127 65.7225 180.064 65.5325 180.043 65.3358C179.06 56.1604 179.745 48.9798 182.136 43.384C182.557 42.4188 183.192 41.5616 183.992 40.8769C184.792 40.1922 185.736 39.6977 186.755 39.4305L192.958 39.1174L192.991 39.133C194.39 39.8186 195.532 40.9371 196.246 42.3226C196.96 43.7081 197.209 45.2869 196.955 46.8248C194.96 52.084 193.289 57.5597 194.563 61.9769C194.617 62.1616 194.632 62.3552 194.609 62.546C194.586 62.7368 194.524 62.921 194.428 63.0875C194.335 63.2485 194.21 63.3886 194.061 63.4994C193.911 63.6101 193.741 63.689 193.56 63.7313L181.744 66.542C181.553 66.5875 181.354 66.5917 181.161 66.5544C180.968 66.517 180.785 66.4389 180.624 66.3253Z" fill="#0E7A8B"/>
<path d="M177.954 53.1579L166.056 43.7715C165.961 43.8049 165.865 43.8333 165.767 43.8567C165.347 43.955 164.912 43.9638 164.488 43.8825C164.064 43.8013 163.663 43.6318 163.309 43.3852C162.953 43.1384 162.653 42.8183 162.431 42.4465C162.209 42.0746 162.068 41.6596 162.019 41.229C161.939 40.5408 162.094 39.8458 162.459 39.2568C162.824 38.6678 163.377 38.2193 164.029 37.9842C164.436 37.8383 164.869 37.78 165.3 37.8131C165.73 37.8462 166.15 37.9699 166.529 38.1762C166.909 38.3825 167.241 38.6667 167.503 39.0102C167.765 39.3537 167.952 39.7487 168.051 40.1693C168.082 40.3027 168.103 40.4379 168.115 40.5742L179.959 47.407L182.907 45.7101L186.172 49.9848L181.595 53.2466C181.06 53.6253 180.416 53.8212 179.76 53.8052C179.104 53.7892 178.471 53.5622 177.954 53.1579H177.954Z" fill="#FFB8B8"/>
<path d="M187.624 51.316L180.835 46.6997L184.025 42.1811C184.449 41.5811 185.071 41.1502 185.782 40.9645C186.492 40.7787 187.246 40.8502 187.909 41.1662C188.579 41.4859 189.114 42.0349 189.415 42.7141C189.717 43.3932 189.765 44.1577 189.552 44.8695L187.624 51.316Z" fill="#0E7A8B"/>
<path d="M190.888 36.8005C194.67 36.8005 197.736 33.7346 197.736 29.9527C197.736 26.1707 194.67 23.1049 190.888 23.1049C187.106 23.1049 184.041 26.1707 184.041 29.9527C184.041 33.7346 187.106 36.8005 190.888 36.8005Z" fill="#FFB8B8"/>
<path d="M188.378 28.9327C186.618 30.1373 184.307 31.3756 182.509 30.0928C181.329 29.2505 180.957 27.6907 181.435 26.3219C182.296 23.8605 184.661 22.7768 186.922 21.9462C189.862 20.8663 193.063 20.0073 196.098 20.7806C199.133 21.5539 201.815 24.4923 201.268 27.576C200.827 30.0557 198.488 32.1191 198.82 34.6157C199.154 37.1284 201.98 38.451 204.475 38.9001C206.969 39.3491 209.761 39.4934 211.554 41.2853C213.841 43.5712 213.27 47.657 211.118 50.0704C208.966 52.4839 205.718 53.5779 202.571 54.3216C198.402 55.3069 193.892 55.8248 189.932 54.1895C185.972 52.5542 182.891 48.1521 184.038 44.0242C184.522 42.2806 185.664 40.807 186.767 39.3724C187.87 37.9378 188.987 36.4377 189.408 34.6776C189.759 33.2109 189.499 31.5079 188.526 30.4077C188.349 30.2151 188.238 29.9715 188.208 29.7117C188.179 29.4519 188.232 29.1893 188.361 28.9617L188.378 28.9327Z" fill="#2F2E41"/>
</g>
<defs>
<clipPath id="clip0">
<rect width="250" height="128.885" fill="white"/>
</clipPath>
</defs>
</svg>
