<svg width="171" height="125" viewBox="0 0 171 125" fill="none" xmlns="http://www.w3.org/2000/svg">
<g clip-path="url(#clip0)">
<path d="M95.4162 123.021C129.388 123.021 156.927 95.4818 156.927 61.5105C156.927 27.5392 129.388 0 95.4162 0C61.4449 0 33.9058 27.5392 33.9058 61.5105C33.9058 95.4818 61.4449 123.021 95.4162 123.021Z" fill="#F2F2F2"/>
<path d="M114.216 38.4237C123.05 38.4237 130.212 31.2621 130.212 22.4277C130.212 13.5933 123.05 6.43164 114.216 6.43164C105.381 6.43164 98.2197 13.5933 98.2197 22.4277C98.2197 31.2621 105.381 38.4237 114.216 38.4237Z" fill="#FF6584"/>
<path d="M47.1574 11.9531L47.5947 21.0687C49.4071 23.486 51.3624 26.2524 53.2922 29.2673L53.5677 15.3606L53.7198 15.4578C51.4875 13.8631 49.2184 12.6431 47.0054 11.8687L47.1574 11.9531Z" fill="#12A3BA"/>
<path d="M47.2762 20.6451L46.8527 11.8151C44.3673 10.9675 41.9558 10.6863 39.7515 11.0794C39.6368 11.0999 39.5241 11.1234 39.4116 11.1473C39.9717 11.7482 43.2356 15.2969 47.2762 20.6451Z" fill="#12A3BA"/>
<path d="M67.3446 31.5202L67.4913 31.6602C66.889 30.5272 66.2505 29.4258 65.5758 28.3557L61.4656 44.5286L61.396 44.4673C61.6932 45.1768 61.9758 45.8814 62.2438 46.5812L67.3446 31.5202Z" fill="#12A3BA"/>
<path d="M61.0828 22.3257L61.2342 22.4468C59.0611 19.872 56.5907 17.5637 53.8746 15.5701L53.5938 29.7417C55.3896 32.5757 56.9974 35.3671 58.4172 38.116L61.0828 22.3257Z" fill="#12A3BA"/>
<path d="M31.2666 26.7502C31.4975 29.1389 31.9692 31.4981 32.6744 33.7919L57.1849 36.3201C55.9053 33.9605 54.5845 31.7468 53.3022 29.7291L31.3289 26.943L31.2666 26.7502Z" fill="#12A3BA"/>
<path d="M33.5663 36.4371L33.5003 36.2447L58.3071 38.4497C58.0075 37.8635 57.7045 37.2851 57.398 36.7145L32.7971 34.177L32.7324 33.9844C32.9804 34.7929 33.2583 35.6105 33.5663 36.4371Z" fill="#12A3BA"/>
<path d="M65.296 28.0185L65.4452 28.15C64.2153 26.2157 62.8563 24.3666 61.3774 22.6152L58.6758 38.6191C59.6121 40.4575 60.4602 42.27 61.22 44.0567L65.296 28.0185Z" fill="#12A3BA"/>
<path d="M64.7715 54.7523C65.7574 59.0186 66.1309 63.0524 65.8843 66.8093C67.2716 63.8535 72.5472 51.6085 70.5751 40.1965L64.7715 54.7523Z" fill="#12A3BA"/>
<path d="M38.1172 45.0623C39.4298 46.8303 40.8594 48.5085 42.3964 50.0854L42.3365 49.8717L64.403 54.4113C63.8289 52.029 63.1125 49.6834 62.2575 47.3869L38.1172 45.0623Z" fill="#12A3BA"/>
<path d="M47.086 20.794C42.7129 15.0087 39.2624 11.3522 39.2128 11.2999L39.2696 11.178C35.9511 11.9314 33.6081 14.1892 32.3188 17.4572L47.086 20.794Z" fill="#12A3BA"/>
<path d="M62.4478 47.1241C62.5292 47.3418 62.6121 47.5599 62.6908 47.7765C63.4486 49.8527 64.0929 51.9685 64.6207 54.1147L70.3692 39.6969L70.5096 39.8378C70.1457 37.8315 69.529 35.8795 68.6744 34.0283C68.3353 33.3024 67.9803 32.5875 67.6095 31.8835L62.4478 47.1241Z" fill="#12A3BA"/>
<path d="M53.0455 29.3272C51.1356 26.3479 49.2024 23.6148 47.4107 21.2259L32.3047 17.8125L32.2535 17.6218C31.3104 20.1053 30.9656 23.1562 31.2512 26.5637L53.0455 29.3272Z" fill="#12A3BA"/>
<path d="M64.4924 54.7899L42.5874 50.2834C51.8011 59.7417 64.6916 66.9954 65.5143 67.4539C65.8982 63.2867 65.4628 59.0063 64.4924 54.7899Z" fill="#12A3BA"/>
<path d="M62.102 46.9985L62.1069 46.984C61.0537 44.2073 59.8517 41.4893 58.5061 38.8418L33.6382 36.6313C34.0604 37.7494 34.5376 38.8794 35.0697 40.0213C35.8447 41.6483 36.7666 43.2011 37.8237 44.6606L62.102 46.9985Z" fill="#12A3BA"/>
<path d="M93.7352 42.6567L88.258 49.9562C88.1121 52.9741 87.8536 56.3518 87.417 59.9047L96.4991 49.3697L96.5542 49.5415C95.852 46.8895 94.8825 44.5026 93.672 42.4946L93.7352 42.6567Z" fill="#12A3BA"/>
<path d="M88.2827 49.4269L93.5885 42.3561C92.2148 40.1181 90.5369 38.3634 88.5884 37.2602C88.487 37.2028 88.3852 37.1491 88.2833 37.0957C88.3315 37.9157 88.5818 42.7307 88.2827 49.4269Z" fill="#12A3BA"/>
<path d="M96.8024 70.6025L96.8261 70.8039C97.0847 69.5472 97.2955 68.2916 97.4584 67.0371L83.9774 76.8717L83.9629 76.7801C83.7393 77.5161 83.5075 78.2391 83.2676 78.949L96.8024 70.6025Z" fill="#12A3BA"/>
<path d="M97.8446 59.5271L97.8839 59.717C97.8524 56.3479 97.4221 52.9944 96.6018 49.7266L87.3465 60.4623C86.9221 63.7904 86.38 66.9658 85.7202 69.9885L97.8446 59.5271Z" fill="#12A3BA"/>
<path d="M72.0589 43.918C70.7132 45.905 69.5717 48.0228 68.6519 50.2393L85.9171 67.8196C86.4366 65.1862 86.8312 62.6387 87.1305 60.2669L71.984 44.1061L72.0589 43.918Z" fill="#12A3BA"/>
<path d="M67.6514 52.8454L67.7232 52.6552L85.4228 70.1757C85.5659 69.5331 85.7014 68.8943 85.8294 68.2594L68.5005 50.6142L68.5735 50.4246C68.2488 51.2054 67.9414 52.0124 67.6514 52.8454Z" fill="#12A3BA"/>
<path d="M97.4585 66.5992L97.4895 66.7956C97.776 64.5213 97.9087 62.2303 97.8867 59.9382L85.5984 70.5411C85.147 72.5542 84.6442 74.4911 84.0898 76.3518L97.4585 66.5992Z" fill="#12A3BA"/>
<path d="M80.0034 86.8547C78.0416 90.7694 75.7565 94.1145 73.1704 96.8507C76.1241 95.459 87.9973 89.3929 93.7572 79.3457L80.0034 86.8547Z" fill="#12A3BA"/>
<path d="M65.6548 62.3909C65.538 64.5898 65.5688 66.7942 65.7467 68.989L65.837 68.7862L79.9369 86.3569C81.0142 84.156 81.9585 81.8924 82.7647 79.5784L65.6548 62.3909Z" fill="#12A3BA"/>
<path d="M88.0412 49.42C88.363 42.175 88.0377 37.158 88.0328 37.086L88.1543 37.0284C85.1179 35.4921 81.8732 35.7366 78.7959 37.4313L88.0412 49.42Z" fill="#12A3BA"/>
<path d="M83.0791 79.4974C83.003 79.717 82.9277 79.9379 82.8501 80.1549C82.1096 82.2373 81.2563 84.2778 80.2939 86.2674L93.9173 78.8295L93.9356 79.0275C94.9349 77.2502 95.705 75.3535 96.2275 73.3826C96.4293 72.6072 96.6119 71.8302 96.7753 71.0515L83.0791 79.4974Z" fill="#12A3BA"/>
<path d="M87.1886 59.7934C87.6179 56.2806 87.8721 52.9426 88.0159 49.9599L78.5585 37.6961L78.6407 37.5166C76.3304 38.8278 74.1189 40.9577 72.1655 43.7643L87.1886 59.7934Z" fill="#12A3BA"/>
<path d="M79.7643 86.7056L65.7676 69.2634C66.8312 82.4247 72.1329 96.2332 72.4741 97.1111C75.4276 94.1464 77.8224 90.572 79.7643 86.7056Z" fill="#12A3BA"/>
<path d="M82.8928 79.1803L82.9058 79.1723C83.8656 76.3619 84.6735 73.5019 85.3257 70.6046L67.5826 53.041C67.1947 54.1714 66.8414 55.346 66.5229 56.565C66.0822 58.3124 65.8017 60.0963 65.6851 61.8947L82.8928 79.1803Z" fill="#12A3BA"/>
<path d="M39.1224 52.4025L42.3558 60.9365C44.8267 62.6753 47.5413 64.7017 50.3085 66.9725L46.272 53.6617L46.4466 53.7071C43.8308 52.8805 41.2957 52.4216 38.9517 52.3691L39.1224 52.4025Z" fill="#12A3BA"/>
<path d="M41.922 60.632L38.79 52.3654C36.1643 52.3275 33.784 52.8054 31.8091 53.8607C31.7064 53.9156 31.6064 53.9728 31.5068 54.0303C32.2252 54.4286 36.4262 56.7947 41.922 60.632Z" fill="#12A3BA"/>
<path d="M64.3688 64.7716L64.5516 64.8594C63.6286 63.9681 62.6809 63.1179 61.7085 62.3088L62.7985 78.9602L62.7134 78.9234C63.2153 79.5063 63.7019 80.0891 64.1731 80.6718L64.3688 64.7716Z" fill="#12A3BA"/>
<path d="M55.5722 57.9626L55.7536 58.031C52.8911 56.2541 49.8282 54.8224 46.6289 53.7659L50.7422 67.3303C53.326 69.4705 55.7179 71.6283 57.9179 73.8037L55.5722 57.9626Z" fill="#12A3BA"/>
<path d="M28.5835 71.3866C29.5414 73.5869 30.7192 75.6848 32.0989 77.6483L56.1906 72.4765C54.2444 70.628 52.3039 68.9309 50.4608 67.4084L28.7023 71.5506L28.5835 71.3866Z" fill="#12A3BA"/>
<path d="M33.7645 79.8884L33.6423 79.7259L57.9159 74.1552C57.4498 73.6903 56.9828 73.2339 56.515 72.7859L32.3344 77.9768L32.2134 77.8135C32.6991 78.5058 33.2161 79.1975 33.7645 79.8884Z" fill="#12A3BA"/>
<path d="M61.3383 62.0747L61.5208 62.1536C59.7532 60.6942 57.8892 59.3557 55.9414 58.1472L58.3188 74.2025C59.7776 75.6614 61.1444 77.123 62.4192 78.5873L61.3383 62.0747Z" fill="#12A3BA"/>
<path d="M69.103 87.6615C71.3593 91.4141 72.9614 95.1349 73.8882 98.784C74.2938 95.5442 75.5262 82.2682 70.1233 72.0247L69.103 87.6615Z" fill="#12A3BA"/>
<path d="M40.7583 86.6845C42.5531 87.9603 44.4315 89.1144 46.3806 90.139L46.2576 89.9542L68.6467 87.4509C67.3644 85.3627 65.9579 83.3533 64.435 81.4336L40.7583 86.6845Z" fill="#12A3BA"/>
<path d="M41.7868 60.8326C35.8397 56.6824 31.4279 54.2714 31.3645 54.237L31.3809 54.1035C28.4578 55.8458 26.9274 58.7172 26.7114 62.2237L41.7868 60.8326Z" fill="#12A3BA"/>
<path d="M64.5352 81.1252C64.6799 81.3069 64.8262 81.4888 64.9679 81.6705C66.3304 83.4107 67.5971 85.2238 68.7624 87.1018L69.773 71.6131L69.9501 71.7037C68.9838 69.9082 67.794 68.2423 66.409 66.746C65.8621 66.1604 65.3036 65.5903 64.7333 65.0354L64.5352 81.1252Z" fill="#12A3BA"/>
<path d="M50.0924 67.1055C47.3551 64.8624 44.6718 62.8607 42.2294 61.1426L26.8081 62.5656L26.7004 62.4001C26.5712 65.0534 27.1863 68.0614 28.5112 71.2138L50.0924 67.1055Z" fill="#12A3BA"/>
<path d="M68.8492 87.7834L46.624 90.2684C58.31 96.4156 72.8114 99.3297 73.7356 99.5114C72.8126 95.4297 71.0755 91.4935 68.8492 87.7834Z" fill="#12A3BA"/>
<path d="M64.1675 81.1123L64.1677 81.0971C62.3077 78.7818 60.3244 76.5685 58.2264 74.4666L33.8931 80.0509C34.6402 80.9837 35.4433 81.9109 36.3023 82.8325C37.5423 84.1402 38.899 85.332 40.3555 86.3933L64.1675 81.1123Z" fill="#12A3BA"/>
<path d="M170.944 104.551C170.944 111.928 132.995 125 86.1818 125C39.3688 125 1.41943 111.928 1.41943 104.551C1.41943 97.1742 39.3688 98.2848 86.1818 98.2848C132.995 98.2848 170.944 97.1742 170.944 104.551Z" fill="#3F3D56"/>
<path opacity="0.1" d="M170.944 104.551C170.944 111.928 132.995 125 86.1818 125C39.3688 125 1.41943 111.928 1.41943 104.551C1.41943 97.1742 39.3688 98.2848 86.1818 98.2848C132.995 98.2848 170.944 97.1742 170.944 104.551Z" fill="#0E7A8B"/>
<path d="M86.1818 117.909C132.995 117.909 170.944 111.929 170.944 104.552C170.944 97.1744 132.995 91.1941 86.1818 91.1941C39.3688 91.1941 1.41943 97.1744 1.41943 104.552C1.41943 111.929 39.3688 117.909 86.1818 117.909Z" fill="#3F3D56"/>
<path opacity="0.1" d="M100.878 90.5901C100.878 98.6273 89.6746 96.1414 75.9578 96.1414C62.241 96.1414 51.2046 98.6273 51.2046 90.5901C51.2046 82.553 62.4059 80.8049 76.1227 80.8049C89.8395 80.8049 100.878 82.553 100.878 90.5901Z" fill="#0E7A8B"/>
<path d="M100.878 88.6111C100.878 96.6483 89.6746 94.1624 75.9578 94.1624C62.241 94.1624 51.2046 96.6483 51.2046 88.6111C51.2046 80.5739 62.4059 78.8259 76.1227 78.8259C89.8395 78.8259 100.878 80.5739 100.878 88.6111Z" fill="#3F3D56"/>
<path d="M56.751 66.4963C57.0528 66.2816 57.3857 66.1146 57.7383 66.0012C59.9736 65.1695 62.3157 64.6597 64.6944 64.487C66.7628 64.3403 69.0045 64.5145 70.6201 65.8144C70.8713 65.9988 71.077 66.2384 71.2211 66.5147C71.4244 66.9533 71.3628 67.4631 71.297 67.942C71.2822 68.1278 71.2354 68.3096 71.1586 68.4794C70.9412 68.8933 70.406 69.0383 69.9411 68.9886C69.4762 68.939 69.0399 68.7423 68.5814 68.6511C68.2976 68.6016 68.0106 68.5724 67.7226 68.5637L64.8467 68.408C63.0583 68.3111 61.2464 68.2159 59.4922 68.5769C58.9521 68.6739 58.4303 68.8537 57.9451 69.11C57.5445 69.3349 57.2747 69.6577 56.9029 69.2422C56.2497 68.5122 55.8882 67.1706 56.751 66.4963Z" fill="#2F2E41"/>
<path d="M61.2075 67.7679C61.2075 67.7679 65.0758 66.0338 66.5431 68.0347C68.0103 70.0355 65.7427 69.2352 65.7427 69.2352L63.2084 70.0355L60.4072 69.5019L61.2075 67.7679Z" fill="#F2F2F2"/>
<path d="M61.4077 66.5008C61.4077 66.5008 61.9413 69.0351 61.5411 69.7021C61.1409 70.369 63.8087 71.3027 63.8087 71.3027L66.3431 70.2356C66.3431 70.2356 65.6761 66.1006 66.3431 65.3003L61.4077 66.5008Z" fill="#FFB9B9"/>
<path opacity="0.1" d="M61.4077 66.5008C61.4077 66.5008 61.9413 69.0351 61.5411 69.7021C61.1409 70.369 63.8087 71.3027 63.8087 71.3027L66.3431 70.2356C66.3431 70.2356 65.6761 66.1006 66.3431 65.3003L61.4077 66.5008Z" fill="#0E7A8B"/>
<path d="M58.9078 96.9747C59.2664 97.7184 59.5613 98.4911 59.7892 99.2847C59.793 99.3109 59.8022 99.336 59.8163 99.3584C59.8305 99.3808 59.8492 99.3999 59.8712 99.4146C59.8932 99.4293 59.9181 99.4391 59.9442 99.4435C59.9703 99.4478 59.9971 99.4467 60.0227 99.44L62.3953 99.4373C62.6881 99.437 63.0809 99.3429 63.0779 99.0502C63.0757 98.8444 62.8655 98.7162 62.709 98.5826C62.2747 98.2121 62.1616 97.601 61.9817 97.0591C61.6321 96.0153 60.9583 95.1103 60.0585 94.4761C59.9369 94.3808 59.7969 94.3117 59.6474 94.2729C59.497 94.251 59.3437 94.2594 59.1966 94.2973C58.7801 94.3813 57.2248 94.6688 57.5186 95.2746C57.6451 95.5355 58.114 95.807 58.3105 96.0507C58.5396 96.3382 58.7397 96.6478 58.9078 96.9747Z" fill="#575A89"/>
<path d="M67.1587 94.223C67.0751 94.3989 66.982 94.57 66.8798 94.7358C66.5361 95.3027 66.1304 95.8315 65.8103 96.4121C65.5946 96.7668 65.4613 97.1654 65.4206 97.5786C65.4023 97.7852 65.4339 97.9931 65.5127 98.185C65.5915 98.3768 65.7152 98.5469 65.8734 98.681C66.2178 98.9424 66.69 98.9545 67.118 98.8936C67.5461 98.8327 67.9717 98.71 68.4028 98.7423C68.2574 97.9197 68.9512 97.1958 69.1247 96.3787C69.1734 96.1492 69.1807 95.9112 69.246 95.6858C69.3162 95.4798 69.4062 95.2809 69.5145 95.0921C69.86 94.4193 70.1041 93.6992 70.2391 92.955C70.2554 92.8648 68.1301 92.85 67.9307 92.8931C67.3085 93.0277 67.3995 93.7071 67.1587 94.223Z" fill="#575A89"/>
<path d="M50.7773 81.2999C50.1705 82.2494 50.3103 83.5077 50.7365 84.5508C51.1626 85.5939 51.8408 86.5161 52.3051 87.5428C52.601 88.1974 52.8085 88.8914 53.1418 89.5278C53.5544 90.3158 54.1569 91.0104 54.4339 91.8558C54.6104 92.3946 54.6509 92.9852 54.9368 93.4749C55.1096 93.7366 55.3069 93.9813 55.5259 94.2058C56.1418 94.9113 56.6042 95.7373 56.8838 96.6312C57.1451 95.8527 57.9277 95.3422 58.7314 95.1738C59.5352 95.0055 60.368 95.1199 61.1812 95.2347C60.7276 94.532 60.2696 93.8204 59.9992 93.029C59.7377 92.2635 59.6605 91.4492 59.4844 90.6597C59.1232 89.0407 58.3515 87.5475 57.5876 86.0751L61.5141 85.7637C62.155 85.6992 62.7993 85.6753 63.4432 85.6921C64.4567 85.7399 65.4496 85.9883 66.4577 86.1031C67.4658 86.218 68.5322 86.1879 69.4306 85.7164C67.7127 88.1812 66.8181 91.126 66.8745 94.1299C67.2584 93.8324 67.7041 93.6245 68.1787 93.5215C68.6534 93.4185 69.1451 93.4229 69.6178 93.5345C70.0906 93.646 70.5324 93.8619 70.9109 94.1663C71.2894 94.4706 71.5951 94.8558 71.8055 95.2936C73.3443 93.1908 73.1613 90.2634 74.3806 87.9606C74.6314 87.4871 74.9386 87.0461 75.2092 86.5836C75.7205 85.6549 76.1583 84.6875 76.5185 83.6904C76.8596 82.8181 77.2031 81.8474 76.876 80.9697C76.7402 80.6367 76.5424 80.3325 76.2931 80.0733C75.5896 79.2977 74.6104 78.7239 73.5635 78.7C71.9564 78.6634 70.6288 79.8546 69.2191 80.627C67.5362 81.5215 65.6326 81.9163 63.7328 81.7648C61.7964 81.6277 59.947 80.9938 58.1021 80.4356C57.1792 80.1434 56.2411 79.9014 55.292 79.7107C54.5009 79.5623 53.7474 79.7267 52.9678 79.929C52.1189 80.1493 51.2658 80.5354 50.7773 81.2999Z" fill="#2F2E41"/>
<path d="M67.5435 63.9665C67.5426 65.0275 67.1207 66.0449 66.3705 66.7951C65.6202 67.5454 64.6029 67.9673 63.5418 67.9681C63.3034 67.9685 63.0654 67.9471 62.8309 67.9041C62.082 67.7689 61.3872 67.4229 60.828 66.9067C60.2688 66.3906 59.8683 65.7256 59.6737 64.99C59.479 64.2543 59.4981 63.4783 59.7289 62.7531C59.9596 62.028 60.3923 61.3836 60.9763 60.8957C61.5603 60.4077 62.2713 60.0964 63.026 59.9983C63.7806 59.9001 64.5476 60.0192 65.237 60.3416C65.9263 60.6639 66.5095 61.1761 66.918 61.8182C67.3265 62.4602 67.5435 63.2055 67.5435 63.9665Z" fill="#FFB9B9"/>
<path d="M61.2077 67.7679C61.2077 67.7679 61.9413 68.1013 62.2081 68.3681C62.4748 68.6349 63.2752 70.1022 64.609 69.1684C65.9429 68.2347 66.0763 67.7012 66.4765 67.7012C66.8766 67.7012 67.4102 68.5015 67.4102 68.5015L71.0784 79.506C70.0897 80.6219 68.9439 81.588 67.677 82.3739C65.5428 83.7077 63.0084 84.3747 61.8079 83.8411C60.6074 83.3076 58.3398 82.9074 57.9397 81.8403C57.5395 80.7732 56.8726 77.5719 56.8726 77.5719L58.74 69.4352L61.2077 67.7679Z" fill="#F2F2F2"/>
<path d="M60.6927 78.8976C60.9835 78.2695 61.0258 77.5585 61.0504 76.8667C61.0896 76.1816 61.0714 75.4943 60.9961 74.8122C60.8779 73.92 60.5873 73.0604 60.4038 72.1792C60.2429 71.4064 60.1647 70.6187 60.1705 69.8293C60.1732 69.4691 60.1993 69.0899 60.3956 68.7879C60.5325 68.5772 60.7467 68.414 60.8322 68.1778C61 67.7145 60.5855 67.2294 60.1312 67.0386C59.5779 66.8312 58.9726 66.8069 58.4045 66.9693C57.8409 67.1322 57.2964 67.3549 56.7803 67.6338C56.39 67.8002 56.0311 68.0322 55.7191 68.3198C55.305 68.7482 55.1229 69.345 54.9759 69.9224C54.8583 70.3845 54.7537 70.8665 54.8432 71.3349C54.9886 72.0955 55.6087 72.6676 55.9392 73.3679C56.3231 74.1812 56.2972 75.1289 56.1446 76.0151C55.9919 76.9013 55.7209 77.7678 55.6373 78.6632C55.5537 79.5585 55.682 80.521 56.243 81.2239C56.4716 81.5103 57.0917 82.1891 57.5102 82.1123C57.839 82.0519 58.3156 81.3282 58.5804 81.0988C59.3455 80.4361 60.2533 79.8466 60.6927 78.8976Z" fill="#2F2E41"/>
<path d="M67.681 67.3329C67.6926 68.0769 67.3647 68.784 66.9791 69.4203C66.5934 70.0566 66.1404 70.6584 65.8562 71.346C65.503 72.2068 65.4309 73.1571 65.6502 74.0613C65.7317 74.3693 65.8299 74.6726 65.9445 74.9699L66.6753 76.9745C66.7736 77.2897 66.9163 77.5893 67.0991 77.8643C67.2643 78.0749 67.4582 78.2614 67.675 78.4184C68.2302 78.8667 68.869 79.1999 69.5543 79.3987C70.2443 79.5961 70.9808 79.5541 71.6439 79.2795C71.7144 76.5619 72.151 73.8663 72.9419 71.2654C73.0881 70.7852 73.2477 70.2798 73.135 69.7907C73.0088 69.2429 72.5688 68.8316 72.1505 68.456C70.8714 67.3074 69.4647 66.1008 67.7525 65.9459C66.7615 65.8563 67.6725 66.7951 67.681 67.3329Z" fill="#2F2E41"/>
<path d="M58.9275 82.8413C59.029 83.0398 59.0921 83.2561 59.1925 83.4553C59.3405 83.7224 59.5235 83.9685 59.7367 84.1871C60.6286 85.1761 61.7188 86.1612 63.0491 86.2209C63.1813 86.2332 63.3146 86.2164 63.4396 86.1717C63.5521 86.1142 63.6487 86.0299 63.7212 85.9264C63.7936 85.8228 63.8396 85.7031 63.8551 85.5777C63.9494 85.0611 63.7214 84.5457 63.4931 84.0728C62.9982 83.0479 62.4415 81.997 61.515 81.3361C61.0523 81.0191 60.5239 80.811 59.9693 80.7276C59.4147 80.6441 58.8484 80.6875 58.313 80.8543C57.8304 81.003 57.0302 81.2626 57.6691 81.7029C58.1538 82.0369 58.6465 82.2912 58.9275 82.8413Z" fill="#FFB9B9"/>
<path d="M64.6785 69.793C64.5396 69.418 64.3267 69.0747 64.0525 68.7837C63.7759 68.5499 63.4484 68.384 63.0963 68.2993C62.64 68.1689 62.168 68.1013 61.6935 68.0982C61.1286 68.0947 60.4736 68.2462 60.2337 68.7577C60.0432 69.1638 60.1909 69.6448 60.3827 70.0503C60.4646 70.2604 60.6011 70.4448 60.7781 70.5845C61.0217 70.7491 61.3368 70.7438 61.6256 70.799C62.0734 70.9127 62.4974 71.1048 62.8781 71.3666L63.8676 71.9646L65.5671 72.9919C65.5223 72.9649 65.5382 71.7994 65.486 71.6084C65.3179 70.9931 64.9393 70.3757 64.6785 69.793Z" fill="#FFB9B9"/>
<path d="M59.7275 98.9826C59.3298 99.523 59.4095 100.296 59.0573 100.867C58.7519 101.362 58.1765 101.621 57.7945 102.06C57.6727 102.205 57.564 102.362 57.4699 102.527C57.1156 103.12 56.8276 103.881 57.1766 104.477C57.4573 104.957 58.0473 105.145 58.5884 105.273C59.2723 105.434 59.9829 105.564 60.6747 105.44C61.3665 105.317 62.0426 104.893 62.2893 104.235C62.3378 104.07 62.3954 103.907 62.4619 103.748C62.8369 103.01 64.013 103.002 64.3968 102.268C64.6653 101.755 64.4185 101.134 64.1717 100.61L63.418 99.0085C63.1679 98.4771 62.154 98.7827 61.6254 98.6554C60.936 98.4893 60.2234 98.3063 59.7275 98.9826Z" fill="#2F2E41"/>
<path d="M65.5575 97.6072C65.2489 97.8502 65.013 98.1734 64.8756 98.5414C64.5026 99.4019 64.3745 100.345 64.2501 101.275C64.1792 101.645 64.1719 102.024 64.2286 102.396C64.3893 103.155 65.0773 103.714 65.8178 103.946C66.5583 104.179 67.3525 104.143 68.1276 104.105C68.3776 104.111 68.6259 104.061 68.8536 103.957C69.2432 103.743 69.3953 103.238 69.3286 102.798C69.2618 102.358 69.0215 101.967 68.7863 101.589C68.5511 101.212 68.3107 100.821 68.2433 100.381C68.13 99.6413 68.4497 98.5556 67.9953 97.8865C67.54 97.2159 66.1653 97.1813 65.5575 97.6072Z" fill="#2F2E41"/>
<path d="M67.4428 61.881C67.3716 61.6417 67.2148 61.437 67.0023 61.306C67.0132 61.0496 66.9818 60.7932 66.9092 60.5471C66.6669 59.8307 66.0928 59.8718 65.5512 59.555C65.3161 59.4176 65.3307 59.2961 65.2083 59.0704C65.048 58.7745 64.8079 58.5295 64.5153 58.3633C64.1678 58.1419 63.8009 57.9139 63.3898 57.8859C62.5259 57.827 61.8635 58.6396 61.0378 58.9004C60.6738 59.0153 60.2827 59.02 59.9168 59.1287C59.5509 59.2374 59.1859 59.4969 59.1314 59.8746C59.1062 60.049 59.1506 60.228 59.1251 60.4023C59.0743 60.7489 58.7703 60.9916 58.5668 61.2766C58.1167 61.9069 58.1682 62.7973 58.5281 63.4831C58.6039 63.625 58.6907 63.7608 58.7876 63.8892C58.8176 64.2134 58.9107 64.5286 59.0616 64.817C59.4216 65.5028 60.0409 66.0153 60.6879 66.441C60.6349 66.2136 60.6028 65.9818 60.5919 65.7485C60.5828 65.6707 60.5929 65.592 60.6213 65.519C60.6934 65.3684 60.8838 65.3284 61.0289 65.2459C61.3296 65.075 61.4475 64.6969 61.4562 64.3512C61.4649 64.0055 61.3916 63.6592 61.4279 63.3153C61.4293 63.2362 61.4472 63.1583 61.4806 63.0866C61.514 63.0149 61.562 62.951 61.6216 62.899C61.7326 62.8357 61.8593 62.8054 61.9869 62.8119C62.603 62.7867 63.2466 62.7754 63.79 62.4841C63.9652 62.3677 64.1536 62.2724 64.3512 62.2002C64.8129 62.0798 65.2849 62.4035 65.551 62.7996C65.8172 63.1957 65.9499 63.6671 66.1954 64.0763C66.4409 64.4855 66.8651 64.8504 67.3399 64.8019C67.3666 64.802 67.3931 64.7964 67.4175 64.7856C67.4419 64.7747 67.4638 64.7588 67.4817 64.7389C67.5021 64.7021 67.5112 64.6601 67.5078 64.6181L67.5343 62.8034C67.5563 62.493 67.5254 62.181 67.4428 61.881Z" fill="#2F2E41"/>
<path d="M54.7785 71.3736C54.3967 71.9368 53.9565 72.4784 53.7466 73.1257C53.6233 73.5062 53.585 73.9084 53.4957 74.2982C53.1982 75.5968 52.3389 76.7501 52.2525 78.0795C52.2223 78.3749 52.2656 78.6732 52.3788 78.9477C52.6253 79.4839 53.2152 79.7665 53.778 79.9443C54.3408 80.122 54.9451 80.2501 55.3943 80.6329C55.6204 80.8497 55.8255 81.0874 56.0068 81.3429C56.7396 82.2544 57.7255 82.929 58.8406 83.2818C58.7525 82.6749 58.7111 81.9433 59.1963 81.5681C59.4589 81.3651 59.8099 81.3289 60.1406 81.3003L61.7035 81.1653C60.6613 80.1544 59.5126 79.2595 58.2775 78.4963C57.8453 78.2294 57.375 77.9478 57.1776 77.4797C57.0757 77.1781 57.0334 76.8595 57.053 76.5418C57.0423 75.3794 56.9439 74.2195 56.7586 73.072C56.6299 72.2752 56.4596 71.4855 56.2647 70.7023C56.21 70.4824 55.8867 69.4961 55.4888 69.7269C55.3951 69.7812 55.3074 70.4069 55.2526 70.5367C55.1224 70.8305 54.9636 71.1108 54.7785 71.3736Z" fill="#2F2E41"/>
<path d="M72.7794 69.245L73.4177 70.5724C73.7251 71.1182 73.8651 71.7424 73.8201 72.3672L73.8579 76.3489C73.8874 76.8809 73.8433 77.4144 73.727 77.9344C73.6872 78.1058 73.6123 78.267 73.5069 78.4078C73.3986 78.5292 73.2711 78.632 73.1294 78.7119C71.9215 79.4666 70.3552 79.8956 69.079 79.2632C68.7867 79.1073 68.5088 78.9259 68.2486 78.7211C67.7399 78.3444 67.2238 77.9604 66.8433 77.4546C66.445 76.9253 66.2168 76.2916 65.9489 75.6858C65.4681 74.5991 64.8468 73.5801 64.101 72.6549C63.9774 72.5326 63.8971 72.3734 63.8722 72.2013C63.8643 71.8523 64.2784 71.6805 64.6012 71.5477C65.1528 71.3209 65.6729 70.8831 65.7652 70.2939C66.9381 71.832 68.2325 73.4572 70.0833 74.0192C70.1123 74.0378 70.1458 74.0481 70.1803 74.0492C70.2147 74.0502 70.2488 74.0419 70.2789 74.0252C70.309 74.0085 70.334 73.9839 70.3513 73.9541C70.3686 73.9243 70.3775 73.8904 70.3771 73.856C70.4821 73.4164 70.5193 72.9637 70.5961 72.5184C70.7371 71.7073 71.0085 70.9245 71.3999 70.2003C71.6191 69.7943 72.3289 68.3081 72.7794 69.245Z" fill="#2F2E41"/>
<path opacity="0.1" d="M56.9418 73.0835C56.9594 74.0257 56.7593 74.9593 56.3569 75.8116C56.2523 75.9999 56.1751 76.2023 56.1279 76.4125C56.0579 76.861 56.3131 77.2951 56.6048 77.6429C57.1802 78.3267 57.9266 78.846 58.7679 79.1477" fill="#0E7A8B"/>
<path opacity="0.1" d="M70.801 72.2893C70.707 72.5422 70.7924 72.8219 70.8649 73.0818C71.0749 73.8356 71.1729 74.6162 71.1559 75.3985C71.1589 75.4122 71.1585 75.4265 71.1547 75.4399C71.1508 75.4534 71.1437 75.4657 71.1339 75.4758C71.1241 75.4858 71.112 75.4932 71.0986 75.4974C71.0852 75.5016 71.071 75.5023 71.0572 75.4996C70.7494 75.5185 70.3969 75.5205 70.188 75.2935" fill="#0E7A8B"/>
<path opacity="0.1" d="M123.121 109.993C134.597 109.993 143.899 108 143.899 105.541C143.899 103.082 134.597 101.088 123.121 101.088C111.646 101.088 102.343 103.082 102.343 105.541C102.343 108 111.646 109.993 123.121 109.993Z" fill="#0E7A8B"/>
<path d="M133.511 65.7981L132.026 67.2823L133.511 68.7664L134.995 65.7981H133.511Z" fill="#A0616A"/>
<path d="M133.844 52.9287C134.261 53.0991 134.459 53.5651 134.616 53.9869L136.541 59.1603L136.916 60.1673C137.1 60.6611 137.284 61.1552 137.439 61.6587C137.537 61.9772 137.624 62.2989 137.699 62.6239C137.777 62.902 137.807 63.1914 137.788 63.4796C137.736 63.7967 137.62 64.1 137.448 64.3711C136.778 65.5377 135.824 66.516 134.675 67.2152C134.608 66.7875 134.436 66.3831 134.173 66.0393C133.91 65.6954 133.565 65.423 133.17 65.2469L134.165 64.6994C134.376 64.6005 134.565 64.4617 134.723 64.2908C134.82 64.1574 134.888 64.0059 134.925 63.8455C134.961 63.685 134.965 63.5189 134.936 63.3569C134.876 63.0336 134.777 62.719 134.641 62.4199C134.307 61.5863 134.017 60.7356 133.772 59.8714C133.628 59.3603 133.495 58.8349 133.208 58.3876C132.948 57.9819 132.572 57.6574 132.336 57.2373C131.976 56.5971 131.985 55.8089 132.144 55.0919C132.278 54.4865 132.503 53.9039 132.693 53.3146C132.841 52.8515 133.398 52.7462 133.844 52.9287Z" fill="#D0CDE1"/>
<path d="M124.665 39.1067C123.9 39.3653 123.206 39.97 123.049 40.7626C122.977 41.1301 123.021 41.512 122.96 41.8816C122.818 42.7386 122.146 43.3931 121.525 44.001C120.905 44.609 120.264 45.3154 120.219 46.1829C120.169 47.1328 120.858 48.0227 120.739 48.9664C120.6 50.0628 119.442 50.7733 119.156 51.8407C118.965 52.5534 119.199 53.3212 119.584 53.9505C120.319 55.1497 121.574 55.9639 122.911 56.4004C124.247 56.8368 125.671 56.9286 127.077 56.9434C128.789 56.9613 130.648 56.8143 131.935 55.6843C132.67 55.0331 133.131 54.1281 133.227 53.1509C133.349 51.842 132.803 50.4895 133.179 49.2301C133.417 48.4374 134.011 47.7136 133.923 46.891C133.836 46.0867 133.133 45.5166 132.651 44.8669C132.202 44.2602 131.928 43.5438 131.661 42.8375L130.745 40.4209C130.565 39.9458 130.368 39.4461 129.967 39.1343C129.216 38.5506 128.008 38.6653 127.13 38.7857C126.316 38.8974 125.449 38.8422 124.665 39.1067Z" fill="#2F2E41"/>
<path d="M125.373 47.0713C125.373 47.0713 125.463 49.7597 125.194 50.0285C124.925 50.2973 126.27 52.0896 126.27 52.0896L128.689 52L129.944 51.0143L128.868 49.5804C128.868 49.5804 128.42 47.2505 128.779 46.7128C129.137 46.1751 125.373 47.0713 125.373 47.0713Z" fill="#A0616A"/>
<path opacity="0.1" d="M125.373 47.0713C125.373 47.0713 125.463 49.7597 125.194 50.0285C124.925 50.2973 126.27 52.0896 126.27 52.0896L128.689 52L129.944 51.0143L128.868 49.5804C128.868 49.5804 128.42 47.2505 128.779 46.7128C129.137 46.1751 125.373 47.0713 125.373 47.0713Z" fill="#0E7A8B"/>
<path d="M119.772 67.8166L121.296 71.2219L122.461 69.788L120.131 66.7412L119.772 67.8166Z" fill="#A0616A"/>
<path d="M115.695 101.914L115.068 105.409L113.993 106.933L114.62 107.291L115.695 107.112L116.95 106.664L117.488 104.603L118.473 101.914H115.695Z" fill="#A0616A"/>
<path d="M127.166 99.7637L126.807 104.782L127.703 105.499L129.137 104.244V100.57L127.166 99.7637Z" fill="#A0616A"/>
<path d="M126.852 48.1018C128.634 48.1018 130.078 46.6575 130.078 44.8757C130.078 43.094 128.634 41.6497 126.852 41.6497C125.07 41.6497 123.626 43.094 123.626 44.8757C123.626 46.6575 125.07 48.1018 126.852 48.1018Z" fill="#A0616A"/>
<path d="M129.342 49.2148C129.245 49.1682 129.139 49.1431 129.032 49.141C128.925 49.1389 128.819 49.16 128.72 49.2028C128.524 49.2895 128.334 49.3885 128.151 49.4993C127.68 49.7442 127.147 49.8413 126.62 49.7778C126.558 49.7731 126.497 49.7575 126.441 49.7317C126.381 49.6945 126.326 49.65 126.277 49.5994C126.086 49.4441 125.842 49.3692 125.597 49.3903C125.351 49.4115 125.124 49.527 124.962 49.7127C124.867 49.8307 124.803 49.9717 124.699 50.0822C124.431 50.3686 123.989 50.3802 123.597 50.3795C122.784 50.3569 121.972 50.4313 121.177 50.6014C120.378 50.7737 119.642 51.1636 119.051 51.7278C118.89 51.8795 118.761 52.0627 118.673 52.2661C118.565 52.545 118.579 52.8582 118.482 53.141C118.374 53.456 118.134 53.7144 118.037 54.033C117.964 54.273 117.974 54.5401 117.852 54.7591C118.376 55.2124 118.819 55.8169 119.343 56.2702C119.69 56.5703 120.053 56.895 120.183 57.3346C120.242 57.6057 120.268 57.8828 120.261 58.1601C120.326 59.4857 121.044 60.6881 121.848 61.744C122.069 62.0572 122.333 62.3375 122.632 62.5764C123.038 62.8531 123.5 63.0384 123.984 63.1195C124.9 63.3068 125.842 63.3059 126.777 63.2966C127.742 63.2869 128.725 63.2665 129.643 62.9664C130.11 62.836 130.53 62.575 130.854 62.2141C131.232 61.7504 131.379 61.0796 131.894 60.7758C132.019 60.7186 132.137 60.6481 132.247 60.5654C132.352 60.4515 132.426 60.3129 132.463 60.1625C132.643 59.5997 132.742 59.0141 132.758 58.4233C132.744 58.0688 132.768 57.7139 132.829 57.3644C132.918 57.0564 133.048 56.7617 133.215 56.488L134.283 54.5521C134.369 54.3947 134.347 54.1632 134.355 53.9837C134.347 53.7249 134.267 53.4733 134.125 53.2569C133.433 52.0332 132.345 51.0811 131.041 50.5568C130.938 50.5218 130.84 50.4739 130.749 50.414C130.643 50.3243 130.552 50.2166 130.483 50.0958C130.199 49.669 129.853 49.1881 129.342 49.2148Z" fill="#D0CDE1"/>
<path d="M116.038 59.7582C115.827 60.27 115.673 60.803 115.577 61.348C115.474 62.101 115.595 62.8676 115.926 63.5519C116.501 64.7361 117.634 65.5392 118.433 66.5852C119.176 67.5571 119.618 68.7219 120.261 69.7624C120.149 69.4975 120.285 69.1909 120.469 68.9694C120.652 68.748 120.887 68.5643 121.021 68.3101C121.113 68.1133 121.17 67.9023 121.192 67.6862C121.288 67.0411 121.339 66.3401 121.01 65.7769C120.763 65.3529 120.335 65.0713 119.997 64.7157C119.658 64.354 119.409 63.9177 119.27 63.4421C119.131 62.9666 119.105 62.4649 119.196 61.9777C119.261 61.6423 119.381 61.3204 119.471 60.9907C119.582 60.5477 119.666 60.0983 119.723 59.645L120.126 56.8733C120.233 56.1361 120.324 55.3203 119.907 54.7033C119.825 54.5741 119.713 54.4676 119.579 54.3934C119.469 54.3429 119.351 54.3098 119.231 54.2953C118.791 54.2235 118.197 54.0311 117.982 54.5017C117.723 55.0697 117.543 55.6889 117.326 56.2745L116.038 59.7582Z" fill="#D0CDE1"/>
<path d="M131.417 61.2747C131.417 61.2747 126.09 62.3052 124.836 62.3052H122.595C122.595 62.3052 121.789 63.739 121.789 65.1728C121.789 66.6066 116.502 86.68 116.502 86.68C116.502 86.68 111.483 103.169 117.039 103.258C122.595 103.348 126.09 103.617 126.18 101.735C126.269 99.8532 126.807 75.568 126.807 75.568L127.644 88.0553C127.868 91.1467 127.628 94.2543 126.931 97.2745C126.53 98.9677 126.592 100.824 128.599 101.197C132.453 101.914 137.292 101.287 137.292 99.9428C137.292 98.5986 134.783 68.7574 134.783 68.7574C134.783 68.7574 133.528 64.3663 132.811 64.0079C132.094 63.6494 131.417 61.2747 131.417 61.2747Z" fill="#2F2E41"/>
<path d="M114.71 106.753L116.681 106.036L118.025 102.631L119.459 102.452C119.459 102.452 118.653 104.155 118.205 104.423C117.757 104.692 117.04 106.933 117.04 106.933C117.04 106.933 117.398 107.829 115.695 108.187C113.993 108.546 112.738 108.814 112.738 108.814C112.738 108.814 112.559 108.456 113.365 107.56C114.172 106.664 115.114 105.155 115.114 105.155L114.71 106.753Z" fill="#2F2E41"/>
<path d="M126.808 102.631L126.449 105.32C126.449 105.32 127.435 106.753 127.704 106.753C127.973 106.753 129.406 105.499 129.406 105.499C129.406 105.499 129.317 104.155 129.406 103.796C129.496 103.438 129.675 101.735 129.406 101.645C129.138 101.556 129.138 103.643 129.138 103.643L127.973 104.871L126.849 104.198L126.808 102.631Z" fill="#2F2E41"/>
<path d="M127.121 44.8756C129.051 44.8756 130.616 44.033 130.616 42.9937C130.616 41.9544 129.051 41.1118 127.121 41.1118C125.191 41.1118 123.626 41.9544 123.626 42.9937C123.626 44.033 125.191 44.8756 127.121 44.8756Z" fill="#2F2E41"/>
<path d="M0 79.9241C0 90.4808 6.62275 99.0232 14.8072 99.0232L0 79.9241Z" fill="#3F3D56"/>
<path d="M14.8071 99.0232C14.8071 88.3478 22.1977 79.7095 31.3311 79.7095L14.8071 99.0232Z" fill="#12A3BA"/>
<path d="M5.36523 80.8811C5.36523 90.9089 9.58844 99.0232 14.8075 99.0232L5.36523 80.8811Z" fill="#12A3BA"/>
<path d="M14.8071 99.0234C14.8071 85.3826 23.3495 74.3447 33.9063 74.3447L14.8071 99.0234Z" fill="#3F3D56"/>
<path d="M11.6924 99.1576C11.6924 99.1576 13.7923 99.093 14.4251 98.6423C15.058 98.1917 17.6553 97.6536 17.8123 98.3763C17.9693 99.0991 20.9681 101.971 18.5973 101.99C16.2265 102.009 13.0887 101.621 12.457 101.236C11.8254 100.851 11.6924 99.1576 11.6924 99.1576Z" fill="#A8A8A8"/>
<path opacity="0.2" d="M18.6396 101.739C16.2688 101.758 13.131 101.369 12.4993 100.984C12.0183 100.691 11.8266 99.6401 11.7625 99.155C11.7181 99.1569 11.6924 99.1578 11.6924 99.1578C11.6924 99.1578 11.8254 100.851 12.457 101.236C13.0887 101.621 16.2265 102.009 18.5973 101.99C19.2817 101.985 19.518 101.741 19.5051 101.381C19.41 101.598 19.149 101.734 18.6396 101.739Z" fill="#0E7A8B"/>
</g>
<defs>
<clipPath id="clip0">
<rect width="170.944" height="125" fill="white"/>
</clipPath>
</defs>
</svg>
