<svg width="250" height="113" viewBox="0 0 250 113" fill="none" xmlns="http://www.w3.org/2000/svg">
<g clip-path="url(#clip0)">
<path d="M20.5697 102.778C21.5377 103.119 22.5771 103.204 23.5876 103.026C24.5981 102.848 25.5457 102.413 26.3392 101.762C28.36 100.066 28.9943 97.2718 29.509 94.6842L31.0337 87.0312L27.8416 89.2295C25.5458 90.8102 23.1985 92.4416 21.6089 94.7313C20.0193 97.021 19.3255 100.147 20.6026 102.624" fill="#E6E6E6"/>
<path d="M20.8427 112.044C20.5196 109.69 20.1873 107.307 20.4139 104.928C20.6153 102.815 21.2596 100.752 22.5719 99.0601C23.2684 98.1638 24.116 97.3958 25.0764 96.7907C25.3269 96.6329 25.5572 97.0296 25.308 97.1868C23.6462 98.237 22.3609 99.7878 21.6374 101.616C20.8382 103.648 20.7099 105.864 20.8487 108.023C20.9321 109.329 21.1085 110.626 21.2864 111.922C21.3008 111.98 21.2921 112.042 21.2623 112.095C21.2325 112.147 21.1838 112.186 21.1261 112.204C21.0674 112.22 21.0048 112.212 20.9519 112.182C20.8991 112.152 20.8602 112.102 20.8437 112.044L20.8427 112.044Z" fill="#F2F2F2"/>
<path d="M237.204 99.7838C236.172 100.146 235.065 100.237 233.988 100.048C232.912 99.8579 231.902 99.3942 231.057 98.7011C228.904 96.8939 228.229 93.9177 227.68 91.1611L226.055 83.0074L229.456 85.3493C231.902 87.0334 234.403 88.7717 236.097 91.211C237.79 93.6503 238.529 96.9804 237.169 99.62" fill="#E6E6E6"/>
<path d="M236.679 110.223C237.107 107.104 237.547 103.945 237.246 100.793C236.979 97.9935 236.125 95.2597 234.386 93.0171C233.463 91.8293 232.34 90.8115 231.068 90.0097C230.736 89.8003 230.43 90.3261 230.761 90.5346C232.963 91.9263 234.666 93.9814 235.625 96.4036C236.684 99.0971 236.854 102.033 236.672 104.895C236.562 106.625 236.327 108.344 236.092 110.061C236.073 110.139 236.085 110.22 236.124 110.29C236.164 110.359 236.228 110.411 236.304 110.435C236.382 110.456 236.465 110.445 236.535 110.406C236.605 110.366 236.657 110.3 236.678 110.223L236.679 110.223Z" fill="#F2F2F2"/>
<path d="M233.598 105.219C233.155 105.891 232.547 106.438 231.832 106.807C231.117 107.177 230.319 107.355 229.515 107.327C227.447 107.228 225.724 105.786 224.174 104.416L219.586 100.366L222.622 100.22C224.806 100.116 227.046 100.018 229.125 100.692C231.205 101.366 233.123 102.986 233.503 105.139" fill="#E6E6E6"/>
<path d="M237.889 112.016C235.828 108.369 233.438 104.316 229.166 103.021C227.979 102.662 226.733 102.534 225.498 102.642C225.108 102.676 225.205 103.276 225.594 103.243C227.666 103.071 229.733 103.618 231.449 104.792C233.1 105.915 234.385 107.478 235.473 109.134C236.139 110.149 236.736 111.207 237.333 112.263C237.524 112.601 238.082 112.357 237.889 112.016Z" fill="#F2F2F2"/>
<path d="M179.39 67.8938H76.0781V45.8118H179.39V67.8938Z" fill="white"/>
<path d="M89.465 62.4622C92.563 62.4622 95.0744 59.9508 95.0744 56.8528C95.0744 53.7547 92.563 51.2433 89.465 51.2433C86.3669 51.2433 83.8555 53.7547 83.8555 56.8528C83.8555 59.9508 86.3669 62.4622 89.465 62.4622Z" fill="#007B8E"/>
<path d="M102.42 53.1131C102.172 53.1131 101.935 53.2116 101.759 53.3869C101.584 53.5623 101.485 53.8001 101.485 54.048C101.485 54.296 101.584 54.5338 101.759 54.7091C101.935 54.8844 102.172 54.9829 102.42 54.9829H170.68C170.927 54.9823 171.165 54.8836 171.339 54.7083C171.514 54.533 171.613 54.2956 171.613 54.048C171.613 53.8004 171.514 53.563 171.339 53.3877C171.165 53.2124 170.927 53.1137 170.68 53.1131H102.42Z" fill="#007B8E"/>
<path d="M102.42 58.7226C102.172 58.7221 101.934 58.8201 101.759 58.995C101.583 59.17 101.484 59.4076 101.483 59.6555C101.483 59.9035 101.581 60.1415 101.756 60.3172C101.931 60.4929 102.168 60.5919 102.416 60.5924H145.571C145.694 60.5926 145.815 60.5686 145.929 60.5217C146.043 60.4748 146.146 60.406 146.233 60.3191C146.32 60.2323 146.389 60.1292 146.436 60.0156C146.483 59.9021 146.507 59.7804 146.507 59.6575C146.507 59.5346 146.483 59.4129 146.436 59.2994C146.389 59.1858 146.32 59.0827 146.233 58.9959C146.146 58.909 146.043 58.8402 145.929 58.7933C145.815 58.7464 145.694 58.7224 145.571 58.7226H102.42Z" fill="#007B8E"/>
<path d="M179.39 67.8938H76.0781V45.8118H179.39V67.8938ZM77.6554 66.3165H177.813V47.3891H77.6554V66.3165Z" fill="#CCCCCC"/>
<path d="M208.484 62.4087C208.384 62.1135 208.349 61.7998 208.383 61.4899C208.417 61.1799 208.519 60.8811 208.681 60.6147C208.843 60.3482 209.061 60.1205 209.321 59.9476C209.58 59.7747 209.875 59.6607 210.183 59.6139L211.352 54.882L214.401 54.8913L212.656 61.5504C212.7 62.0735 212.551 62.5948 212.237 63.0154C211.923 63.436 211.465 63.7268 210.951 63.8326C210.437 63.9384 209.902 63.8519 209.447 63.5894C208.992 63.327 208.65 62.9069 208.484 62.4087Z" fill="#FFB7B7"/>
<path d="M213.631 59.3466L208.962 59.023L211.223 45.5457L209.784 30.7058L214.505 28.7704L217.652 45.2503L217.644 45.2803L213.631 59.3466Z" fill="#3F3D56"/>
<path d="M177.526 57.767C177.52 57.4552 177.583 57.146 177.71 56.8613C177.837 56.5765 178.025 56.323 178.261 56.1186C178.496 55.9143 178.774 55.7641 179.074 55.6786C179.374 55.5932 179.689 55.5745 179.996 55.6239L182.554 51.4746L185.455 52.4139L181.76 58.2228C181.643 58.7345 181.342 59.1854 180.915 59.4901C180.487 59.7948 179.963 59.932 179.441 59.8758C178.919 59.8197 178.435 59.574 178.082 59.1853C177.73 58.7966 177.531 58.292 177.526 57.767Z" fill="#FFB7B7"/>
<path d="M191.926 109.649H189.442L188.26 100.068L191.926 100.068L191.926 109.649Z" fill="#FFB7B7"/>
<path d="M192.559 112.057L184.55 112.056V111.955C184.55 111.128 184.878 110.335 185.463 109.751C186.048 109.166 186.84 108.838 187.667 108.838H187.667L192.559 108.838L192.559 112.057Z" fill="#2F2E41"/>
<path d="M209.255 109.649H206.771L205.589 100.068L209.255 100.068L209.255 109.649Z" fill="#FFB7B7"/>
<path d="M209.888 112.057L201.879 112.056V111.955C201.879 111.128 202.207 110.335 202.792 109.751C203.377 109.166 204.17 108.838 204.996 108.838H204.997L209.888 108.838L209.888 112.057Z" fill="#2F2E41"/>
<path d="M206.892 19.6775C210.152 19.6775 212.794 17.0355 212.794 13.7763C212.794 10.5171 210.152 7.87506 206.892 7.87506C203.633 7.87506 200.991 10.5171 200.991 13.7763C200.991 17.0355 203.633 19.6775 206.892 19.6775Z" fill="#FFB8B8"/>
<path d="M204.9 13.4527C204.018 13.8216 203.03 13.8489 202.13 13.5294C201.229 13.2099 200.479 12.5665 200.027 11.7245C199.575 10.8825 199.452 9.90227 199.683 8.97479C199.914 8.04731 200.482 7.23902 201.276 6.70744C202.847 5.65633 205.192 6.00423 206.715 7.22328C207.742 6.75632 208.89 6.62815 209.995 6.85731C211.099 7.08647 212.102 7.66108 212.858 8.49797C214.327 10.1984 214.488 12.8975 213.417 14.8797C212.948 15.9131 212.741 17.0456 212.812 18.1779C212.882 19.3103 213.23 20.408 213.824 21.3749C213.363 21.3561 212.348 21.2707 211.079 21.1612C210.712 21.1295 210.553 20.0506 210.15 20.0159C209.795 19.9852 209.199 20.9991 208.827 20.9676C206.07 20.7347 202.984 20.4981 201.585 20.5444C202.639 18.0772 203.693 15.6099 204.9 13.4527Z" fill="#2F2E41"/>
<path d="M211.418 55.3497C211.418 55.3497 213.336 57.3269 212.165 67.5374L211.356 89.2182L209.924 108.416L205.319 108.109L201.273 63.924L195.61 80.0927L192.56 106.823L188.141 106.517L187.387 79.935L189.324 59.3918L211.418 55.3497Z" fill="#2F2E41"/>
<path d="M192.436 60.6286C190.08 60.6287 189.131 60.3454 189.062 60.3236L188.952 60.2892L188.971 60.1762C188.987 60.0834 190.57 50.8533 192.742 46.0075L194.27 26.3557C194.314 25.7718 194.554 25.22 194.951 24.7901C195.349 24.3602 195.88 24.0776 196.459 23.9883L196.479 24.1182L196.459 23.9883L200.344 23.3784L202.721 21.2856L208.414 21.6005L208.917 24.0089C209.598 24.1992 214.091 25.5764 214.536 28.8742L214.541 28.9156L214.522 28.9524L206.29 44.7895C206.986 45.4761 212.483 51.1238 212.856 58.3439L212.865 58.5176L212.696 58.4788C212.68 58.4756 210.921 58.1412 201.669 59.7053C197.39 60.4285 194.416 60.6286 192.436 60.6286Z" fill="#3F3D56"/>
<path d="M183.31 57.6714L179.954 55.0872L187.444 40.1028L194.409 25.4166C194.507 25.2114 194.665 25.0408 194.862 24.9279C195.059 24.8149 195.286 24.7649 195.512 24.7847C195.738 24.8044 195.953 24.8929 196.127 25.0382C196.302 25.1836 196.428 25.3789 196.488 25.5978L198.212 31.8528L192.821 45.8808L183.31 57.6714Z" fill="#3F3D56"/>
<path d="M249.737 112.513H149.579C149.51 112.513 149.443 112.485 149.393 112.436C149.344 112.387 149.316 112.32 149.316 112.25C149.316 112.181 149.344 112.114 149.393 112.064C149.443 112.015 149.51 111.987 149.579 111.987H249.737C249.807 111.987 249.874 112.015 249.923 112.064C249.972 112.114 250 112.181 250 112.25C250 112.32 249.972 112.387 249.923 112.436C249.874 112.485 249.807 112.513 249.737 112.513Z" fill="#CBCBCB"/>
<path d="M134.291 33.1231H120.095V18.9275H127.193V19.4533H120.621V32.5973H133.765V26.0253H134.291V33.1231Z" fill="#3F3D56"/>
<path d="M126.927 28.9296L123.478 24.9698L124.073 24.452L126.933 27.7367L134.785 18.928L135.373 19.4528L126.927 28.9296Z" fill="#007B8E"/>
<path d="M46.189 17.6761L46.5209 16.0167C46.5209 16.0167 51.4026 14.3572 51.9487 17.6761H46.189Z" fill="#E6E6E6"/>
<path d="M55.5577 109.049H58.758L60.2806 96.7046H55.5571L55.5577 109.049Z" fill="#9F616A"/>
<path d="M54.7412 108.004L61.0439 108.004H61.0442C62.1095 108.004 63.131 108.427 63.8843 109.18C64.6375 109.933 65.0607 110.955 65.0608 112.02V112.151L54.7414 112.151L54.7412 108.004Z" fill="#2F2E41"/>
<path d="M40.1299 109.049H43.3302L44.8528 96.7046H40.1294L40.1299 109.049Z" fill="#9F616A"/>
<path d="M39.3135 108.004L45.6162 108.004H45.6165C46.6817 108.004 47.7033 108.427 48.4566 109.18C49.2098 109.933 49.633 110.955 49.6331 112.02V112.151L39.3137 112.151L39.3135 108.004Z" fill="#2F2E41"/>
<path d="M41.5423 24.6459L37.8914 24.3139L35.5684 35.2663L35.9001 45.2232L39.551 58.499L44.5295 55.5119L41.8744 41.9043L41.5423 24.6459Z" fill="#3F3D56"/>
<path d="M39.2312 57.3373L40.0485 64.3071L40.8159 80.57L39.0527 104.804L45.3587 104.466L48.4494 79.2422L50.3372 67.626L52.9923 80.9017L54.6518 105.794L61.1237 105.275V80.8142L61.2896 62.9795L58.9665 56.0098L39.2312 57.3373Z" fill="#2F2E41"/>
<path d="M52.8267 18.008C52.8267 18.008 50.5034 14.689 46.1888 17.0123L44.1974 19.6674L37.8915 24.3139L39.219 39.9129L37.5596 59.4946L61.124 59.1627L57.1413 39.581V18.6718L52.8267 18.008Z" fill="#3F3D56"/>
<path opacity="0.25" d="M40.049 29.8229L38.146 52.5766L40.5469 40.2448L40.049 29.8229Z" fill="black"/>
<path d="M79.6602 48.9006C79.3214 49.0157 78.9614 49.0551 78.6057 49.016C78.25 48.977 77.9072 48.8604 77.6014 48.6746C77.2956 48.4887 77.0342 48.238 76.8358 47.9402C76.6374 47.6424 76.5066 47.3047 76.4528 46.951L71.0225 45.6089L71.0332 42.11L78.6752 44.1129C79.2756 44.0619 79.8738 44.2329 80.3565 44.5934C80.8392 44.954 81.1729 45.4791 81.2943 46.0692C81.4157 46.6594 81.3164 47.2736 81.0153 47.7954C80.7141 48.3172 80.232 48.7105 79.6602 48.9006H79.6602Z" fill="#9F616A"/>
<path d="M73.982 42.0681L73.0688 47.2993L75.3575 47.6988L76.2706 42.4676L73.982 42.0681Z" fill="#E6E6E6"/>
<path d="M49.1335 14.1744C52.8143 14.1744 55.7982 11.1905 55.7982 7.50967C55.7982 3.82886 52.8143 0.844971 49.1335 0.844971C45.4526 0.844971 42.4688 3.82886 42.4688 7.50967C42.4688 11.1905 45.4526 14.1744 49.1335 14.1744Z" fill="#9F616A"/>
<path d="M49.6311 13.3888C48.0006 13.7802 46.2827 13.5517 44.8112 12.7476C43.3397 11.9436 42.2195 10.6213 41.6682 9.03759C41.117 7.45391 41.174 5.72187 41.8281 4.17785C42.4823 2.63383 43.6869 1.38803 45.2081 0.682398C46.3796 0.159566 47.6607 -0.0703318 48.9408 0.0125515C50.934 0.117346 52.8713 0.854047 54.8666 0.799759L55.1558 1.26462L56.2457 1.00029L56.4792 1.8656L56.7663 1.85566C57.2806 2.81132 56.4532 4.17951 55.368 4.16794C54.9413 4.11874 54.5205 4.02708 54.112 3.89433C53.6919 3.80431 53.1971 3.82675 52.9074 4.14405C52.5309 4.55641 52.6948 5.19989 52.7733 5.75273C52.8518 6.30556 52.6558 7.05022 52.0977 7.06827C51.8126 7.07749 51.5414 6.87305 51.2613 6.9268C50.935 6.9894 50.7701 7.38339 50.8177 7.71219C50.8985 8.03481 51.0303 8.34246 51.2081 8.62354C51.5854 9.44635 51.6454 10.3796 51.3766 11.2439C51.1078 12.1083 50.5292 12.8429 49.7518 13.3066" fill="#2F2E41"/>
<path d="M55.5572 19.9542L57.1413 18.6718C57.1413 18.6718 60.3384 18.4495 60.2806 21.8388L65.3962 37.8408L75.2101 41.3173L73.8877 48.1497L60.0025 42.8601L52.9497 31.1702L55.5572 19.9542Z" fill="#3F3D56"/>
<path d="M100.421 112.513H0.262881C0.193161 112.513 0.126296 112.485 0.0769959 112.436C0.0276961 112.387 0 112.32 0 112.25C0 112.181 0.0276961 112.114 0.0769959 112.064C0.126296 112.015 0.193161 111.987 0.262881 111.987H100.421C100.49 111.987 100.557 112.015 100.606 112.064C100.656 112.114 100.683 112.181 100.683 112.25C100.683 112.32 100.656 112.387 100.606 112.436C100.557 112.485 100.49 112.513 100.421 112.513Z" fill="#CBCBCB"/>
</g>
<defs>
<clipPath id="clip0">
<rect width="250" height="112.513" fill="white"/>
</clipPath>
</defs>
</svg>
